<svg width="1650" height="2200" viewBox="0 0 1650 2200" fill="none" xmlns="http://www.w3.org/2000/svg">
<g id="a-logo">
<path id="left" d="M592.005 216.591C605.94 173.272 646.239 143.895 691.745 143.882L958.182 143.809C1029.2 143.789 1079.68 212.929 1058.02 280.569L515.302 1975.64C501.645 2018.3 462.391 2047.56 417.611 2048.47L146.876 2053.94C74.9272 2055.4 22.9495 1985.58 44.9868 1917.07L592.005 216.591Z" fill="url(#paint0_linear_929_750)"/>
<path id="horizontal" d="M1182.56 1312.13H432.174C374.293 1312.13 327.371 1359.05 327.371 1416.93V1576.23C327.371 1634.11 374.293 1681.04 432.174 1681.04H1182.56C1240.44 1681.04 1287.37 1634.11 1287.37 1576.23V1416.93C1287.37 1359.05 1240.44 1312.13 1182.56 1312.13Z" fill="url(#paint1_linear_929_750)"/>
<g id="right">
<path id="Vector" d="M1058 214.024C1044.06 170.695 1003.75 141.315 958.233 141.315L693.308 141.314C622.341 141.314 571.892 210.366 593.464 277.974L1134.32 1973.07C1147.95 2015.78 1187.25 2045.1 1232.08 2045.99L1503.17 2051.4C1575.1 2052.84 1627.06 1983.02 1605.03 1914.52L1058 214.024Z" fill="#43ACF2"/>
<mask id="mask0_929_750" style="mask-type:alpha" maskUnits="userSpaceOnUse" x="39" y="143" width="1025" height="1911">
<g id="mask0_925_742">
<path id="Vector_2" d="M592.005 216.59C605.94 173.27 646.239 143.893 691.745 143.881L958.182 143.807C1029.2 143.787 1079.68 212.927 1058.02 280.567L515.302 1975.64C501.645 2018.29 462.391 2047.56 417.611 2048.46L146.876 2053.94C74.9272 2055.4 22.9495 1985.57 44.9868 1917.07L592.005 216.59Z" fill="url(#paint2_linear_929_750)"/>
</g>
</mask>
<g mask="url(#mask0_929_750)">
<g id="Group">
<path id="Vector_3" d="M624.638 375.193C609.965 326.984 572.236 316.504 547.083 356.329L492.586 343.752L568.044 165.588L817.475 318.6C806.296 357.028 639.411 423.735 624.638 375.193Z" fill="#43ACF2"/>
</g>
</g>
</g>
</g>
<defs>
<linearGradient id="paint0_linear_929_750" x1="882.735" y1="73.2916" x2="221.691" y2="2128.23" gradientUnits="userSpaceOnUse">
<stop stop-color="#3384BA"/>
<stop offset="1" stop-color="#3F82AE"/>
</linearGradient>
<linearGradient id="paint1_linear_929_750" x1="327.371" y1="1496.58" x2="1287.37" y2="1496.58" gradientUnits="userSpaceOnUse">
<stop stop-color="#43ACF2"/>
<stop offset="1" stop-color="#347BAB"/>
</linearGradient>
<linearGradient id="paint2_linear_929_750" x1="882.735" y1="73.2899" x2="221.691" y2="2128.23" gradientUnits="userSpaceOnUse">
<stop stop-color="#3384BA"/>
<stop offset="1" stop-color="#3F82AE"/>
</linearGradient>
</defs>
</svg>
