<svg width="9009" height="515" viewBox="0 0 9009 515" fill="none" xmlns="http://www.w3.org/2000/svg">
<path d="M201.451 411.294C163.392 411.294 128.993 402.877 98.2531 386.043C67.8792 369.209 43.9094 345.971 26.3437 316.329C9.14402 286.321 0.544176 252.837 0.544176 215.876C0.544176 178.915 9.14402 145.613 26.3437 115.971C43.9094 85.9631 68.0621 62.5423 98.802 45.7085C129.542 28.8748 163.941 20.4579 202 20.4579C230.544 20.4579 256.893 25.2153 281.046 34.73C305.198 44.2447 325.692 58.1509 342.525 76.4484L316.726 102.248C286.718 71.874 248.842 56.687 203.098 56.687C172.724 56.687 145.095 63.6401 120.21 77.5462C95.3255 91.4524 75.7471 110.482 61.475 134.635C47.5689 158.787 40.6158 185.868 40.6158 215.876C40.6158 245.884 47.5689 272.964 61.475 297.117C75.7471 321.27 95.3255 340.299 120.21 354.205C145.095 368.111 172.724 375.064 203.098 375.064C249.208 375.064 287.084 359.694 316.726 328.955L342.525 354.754C325.692 373.052 305.015 387.141 280.497 397.021C256.344 406.536 229.995 411.294 201.451 411.294ZM526.038 410.745C498.226 410.745 473.158 404.523 450.835 392.081C428.512 379.273 410.947 361.707 398.138 339.384C385.33 317.061 378.926 291.811 378.926 263.632C378.926 235.454 385.33 210.203 398.138 187.88C410.947 165.557 428.512 148.175 450.835 135.732C473.158 123.29 498.226 117.069 526.038 117.069C553.851 117.069 578.918 123.29 601.241 135.732C623.564 148.175 640.947 165.557 653.389 187.88C666.198 210.203 672.602 235.454 672.602 263.632C672.602 291.811 666.198 317.061 653.389 339.384C640.947 361.707 623.564 379.273 601.241 392.081C578.918 404.523 553.851 410.745 526.038 410.745ZM526.038 376.162C546.532 376.162 564.829 371.588 580.931 362.439C597.399 352.924 610.207 339.567 619.356 322.367C628.505 305.168 633.079 285.589 633.079 263.632C633.079 241.675 628.505 222.097 619.356 204.897C610.207 187.698 597.399 174.523 580.931 165.374C564.829 155.86 546.532 151.102 526.038 151.102C505.545 151.102 487.065 155.86 470.597 165.374C454.495 174.523 441.687 187.698 432.172 204.897C423.023 222.097 418.449 241.675 418.449 263.632C418.449 285.589 423.023 305.168 432.172 322.367C441.687 339.567 454.495 352.924 470.597 362.439C487.065 371.588 505.545 376.162 526.038 376.162ZM899.283 117.069C935.512 117.069 964.239 127.682 985.464 148.907C1007.06 169.766 1017.85 200.323 1017.85 240.577V408H978.877V244.42C978.877 214.412 971.375 191.54 956.371 175.804C941.367 160.068 919.959 152.2 892.147 152.2C861.041 152.2 836.339 161.532 818.041 180.196C800.11 198.493 791.144 223.927 791.144 256.496V408H752.17V119.265H789.497V172.511C800.11 154.945 814.748 141.405 833.411 131.89C852.441 122.009 874.398 117.069 899.283 117.069ZM1201.06 410.745C1177.64 410.745 1155.13 407.451 1133.54 400.864C1112.32 393.911 1095.67 385.311 1083.59 375.064L1101.15 344.325C1113.23 353.839 1128.42 361.707 1146.72 367.928C1165.01 373.784 1184.04 376.711 1203.8 376.711C1230.15 376.711 1249.55 372.686 1261.99 364.635C1274.8 356.218 1281.2 344.508 1281.2 329.504C1281.2 318.891 1277.73 310.657 1270.77 304.802C1263.82 298.581 1255.04 294.006 1244.42 291.079C1233.81 287.785 1219.72 284.675 1202.16 281.747C1178.74 277.355 1159.89 272.964 1145.62 268.573C1131.35 263.815 1119.09 255.947 1108.84 244.969C1098.96 233.99 1094.02 218.803 1094.02 199.408C1094.02 175.255 1104.08 155.494 1124.21 140.124C1144.34 124.754 1172.33 117.069 1208.2 117.069C1226.86 117.069 1245.52 119.631 1264.19 124.754C1282.85 129.511 1298.22 135.915 1310.3 143.966L1293.28 175.255C1269.49 158.787 1241.13 150.553 1208.2 150.553C1183.31 150.553 1164.46 154.945 1151.66 163.728C1139.21 172.511 1132.99 184.038 1132.99 198.31C1132.99 209.289 1136.47 218.071 1143.42 224.659C1150.74 231.246 1159.71 236.186 1170.32 239.48C1180.93 242.407 1195.57 245.518 1214.23 248.811C1237.29 253.203 1255.77 257.594 1269.68 261.986C1283.58 266.377 1295.47 273.879 1305.36 284.492C1315.24 295.104 1320.18 309.742 1320.18 328.406C1320.18 353.656 1309.56 373.784 1288.34 388.788C1267.48 403.426 1238.39 410.745 1201.06 410.745ZM1510.25 410.745C1482.43 410.745 1457.37 404.523 1435.04 392.081C1412.72 379.273 1395.15 361.707 1382.35 339.384C1369.54 317.061 1363.13 291.811 1363.13 263.632C1363.13 235.454 1369.54 210.203 1382.35 187.88C1395.15 165.557 1412.72 148.175 1435.04 135.732C1457.37 123.29 1482.43 117.069 1510.25 117.069C1538.06 117.069 1563.13 123.29 1585.45 135.732C1607.77 148.175 1625.15 165.557 1637.6 187.88C1650.41 210.203 1656.81 235.454 1656.81 263.632C1656.81 291.811 1650.41 317.061 1637.6 339.384C1625.15 361.707 1607.77 379.273 1585.45 392.081C1563.13 404.523 1538.06 410.745 1510.25 410.745ZM1510.25 376.162C1530.74 376.162 1549.04 371.588 1565.14 362.439C1581.61 352.924 1594.42 339.567 1603.56 322.367C1612.71 305.168 1617.29 285.589 1617.29 263.632C1617.29 241.675 1612.71 222.097 1603.56 204.897C1594.42 187.698 1581.61 174.523 1565.14 165.374C1549.04 155.86 1530.74 151.102 1510.25 151.102C1489.75 151.102 1471.27 155.86 1454.8 165.374C1438.7 174.523 1425.89 187.698 1416.38 204.897C1407.23 222.097 1402.66 241.675 1402.66 263.632C1402.66 285.589 1407.23 305.168 1416.38 322.367C1425.89 339.567 1438.7 352.924 1454.8 362.439C1471.27 371.588 1489.75 376.162 1510.25 376.162ZM1736.38 0.696548H1775.35V408H1736.38V0.696548ZM2135.2 275.709H1893.68C1895.87 305.717 1907.4 330.052 1928.26 348.716C1949.12 367.013 1975.47 376.162 2007.3 376.162C2025.24 376.162 2041.7 373.052 2056.71 366.831C2071.71 360.243 2084.7 350.729 2095.68 338.286L2117.64 363.537C2104.83 378.907 2088.73 390.617 2069.33 398.668C2050.3 406.719 2029.26 410.745 2006.21 410.745C1976.56 410.745 1950.22 404.523 1927.16 392.081C1904.47 379.273 1886.72 361.707 1873.91 339.384C1861.11 317.061 1854.7 291.811 1854.7 263.632C1854.7 235.454 1860.74 210.203 1872.82 187.88C1885.26 165.557 1902.09 148.175 1923.32 135.732C1944.91 123.29 1969.06 117.069 1995.78 117.069C2022.49 117.069 2046.46 123.29 2067.69 135.732C2088.91 148.175 2105.56 165.557 2117.64 187.88C2129.71 209.838 2135.75 235.088 2135.75 263.632L2135.2 275.709ZM1995.78 150.553C1967.96 150.553 1944.54 159.519 1925.51 177.451C1906.85 195.017 1896.24 218.071 1893.68 246.616H2098.43C2095.86 218.071 2085.07 195.017 2066.04 177.451C2047.38 159.519 2023.95 150.553 1995.78 150.553ZM2218.92 410.745C2210.87 410.745 2203.92 407.817 2198.06 401.962C2192.57 396.107 2189.83 388.971 2189.83 380.554C2189.83 372.137 2192.57 365.184 2198.06 359.694C2203.92 353.839 2210.87 350.912 2218.92 350.912C2226.97 350.912 2233.93 353.839 2239.78 359.694C2245.64 365.184 2248.57 372.137 2248.57 380.554C2248.57 388.971 2245.64 396.107 2239.78 401.962C2233.93 407.817 2226.97 410.745 2218.92 410.745ZM2847.32 23.7515L2717.78 408H2674.96L2562.43 80.2909L2449.35 408H2407.08L2277.54 23.7515H2319.26L2430.14 354.205L2544.87 23.7515H2582.74L2695.82 355.852L2808.35 23.7515H2847.32ZM2939.64 175.804C2948.79 156.409 2962.33 141.771 2980.26 131.89C2998.56 122.009 3021.06 117.069 3047.78 117.069V154.945L3038.44 154.396C3008.07 154.396 2984.28 163.728 2967.08 182.391C2949.88 201.055 2941.28 227.22 2941.28 260.888V408H2902.31V119.265H2939.64V175.804ZM3118.34 119.265H3157.32V408H3118.34V119.265ZM3138.1 56.1381C3130.05 56.1381 3123.28 53.3935 3117.79 47.9042C3112.31 42.415 3109.56 35.8279 3109.56 28.1429C3109.56 20.8239 3112.31 14.4197 3117.79 8.93044C3123.28 3.44118 3130.05 0.696548 3138.1 0.696548C3146.16 0.696548 3152.93 3.44118 3158.42 8.93044C3163.9 14.0538 3166.65 20.2749 3166.65 27.594C3166.65 35.6449 3163.9 42.415 3158.42 47.9042C3152.93 53.3935 3146.16 56.1381 3138.1 56.1381ZM3417.81 390.434C3410.49 397.021 3401.35 402.145 3390.37 405.804C3379.75 409.098 3368.59 410.745 3356.88 410.745C3329.8 410.745 3308.94 403.426 3294.3 388.788C3279.67 374.15 3272.35 353.473 3272.35 326.759V152.2H3220.75V119.265H3272.35V56.1381H3311.32V119.265H3399.15V152.2H3311.32V324.563C3311.32 341.763 3315.53 354.937 3323.95 364.086C3332.73 372.869 3345.17 377.26 3361.27 377.26C3369.32 377.26 3377.01 375.979 3384.33 373.418C3392.01 370.856 3398.6 367.196 3404.09 362.439L3417.81 390.434ZM3729.98 275.709H3488.46C3490.65 305.717 3502.18 330.052 3523.04 348.716C3543.9 367.013 3570.25 376.162 3602.08 376.162C3620.02 376.162 3636.48 373.052 3651.49 366.831C3666.49 360.243 3679.48 350.729 3690.46 338.286L3712.42 363.537C3699.61 378.907 3683.51 390.617 3664.11 398.668C3645.08 406.719 3624.04 410.745 3600.99 410.745C3571.34 410.745 3545 404.523 3521.94 392.081C3499.25 379.273 3481.5 361.707 3468.7 339.384C3455.89 317.061 3449.48 291.811 3449.48 263.632C3449.48 235.454 3455.52 210.203 3467.6 187.88C3480.04 165.557 3496.87 148.175 3518.1 135.732C3539.69 123.29 3563.84 117.069 3590.56 117.069C3617.27 117.069 3641.24 123.29 3662.47 135.732C3683.69 148.175 3700.34 165.557 3712.42 187.88C3724.5 209.838 3730.53 235.088 3730.53 263.632L3729.98 275.709ZM3590.56 150.553C3562.75 150.553 3539.32 159.519 3520.29 177.451C3501.63 195.017 3491.02 218.071 3488.46 246.616H3693.21C3690.64 218.071 3679.85 195.017 3660.82 177.451C3642.16 159.519 3618.74 150.553 3590.56 150.553ZM3818.1 23.7515H3858.72V372.869H4073.9V408H3818.1V23.7515ZM4133.11 119.265H4172.08V408H4133.11V119.265ZM4152.87 56.1381C4144.82 56.1381 4138.05 53.3935 4132.56 47.9042C4127.07 42.415 4124.32 35.8279 4124.32 28.1429C4124.32 20.8239 4127.07 14.4197 4132.56 8.93044C4138.05 3.44118 4144.82 0.696548 4152.87 0.696548C4160.92 0.696548 4167.69 3.44118 4173.18 8.93044C4178.67 14.0538 4181.41 20.2749 4181.41 27.594C4181.41 35.6449 4178.67 42.415 4173.18 47.9042C4167.69 53.3935 4160.92 56.1381 4152.87 56.1381ZM4427.64 117.069C4463.87 117.069 4492.59 127.682 4513.82 148.907C4535.41 169.766 4546.2 200.323 4546.2 240.577V408H4507.23V244.42C4507.23 214.412 4499.73 191.54 4484.72 175.804C4469.72 160.068 4448.31 152.2 4420.5 152.2C4389.39 152.2 4364.69 161.532 4346.4 180.196C4328.46 198.493 4319.5 223.927 4319.5 256.496V408H4280.52V119.265H4317.85V172.511C4328.46 154.945 4343.1 141.405 4361.77 131.89C4380.79 122.009 4402.75 117.069 4427.64 117.069ZM4904.49 275.709H4662.97C4665.16 305.717 4676.69 330.052 4697.55 348.716C4718.41 367.013 4744.76 376.162 4776.59 376.162C4794.53 376.162 4810.99 373.052 4826 366.831C4841 360.243 4853.99 350.729 4864.97 338.286L4886.93 363.537C4874.12 378.907 4858.02 390.617 4838.62 398.668C4819.59 406.719 4798.55 410.745 4775.5 410.745C4745.85 410.745 4719.51 404.523 4696.45 392.081C4673.76 379.273 4656.01 361.707 4643.21 339.384C4630.4 317.061 4623.99 291.811 4623.99 263.632C4623.99 235.454 4630.03 210.203 4642.11 187.88C4654.55 165.557 4671.38 148.175 4692.61 135.732C4714.2 123.29 4738.35 117.069 4765.07 117.069C4791.78 117.069 4815.75 123.29 4836.98 135.732C4858.2 148.175 4874.85 165.557 4886.93 187.88C4899 209.838 4905.04 235.088 4905.04 263.632L4904.49 275.709ZM4765.07 150.553C4737.25 150.553 4713.83 159.519 4694.8 177.451C4676.14 195.017 4665.53 218.071 4662.97 246.616H4867.72C4865.15 218.071 4854.36 195.017 4835.33 177.451C4816.67 159.519 4793.25 150.553 4765.07 150.553ZM5050.79 514.492C5030.3 480.824 5014.56 442.216 5003.58 398.668C4992.61 354.754 4987.12 307.729 4987.12 257.594C4987.12 207.459 4992.61 160.434 5003.58 116.52C5014.56 72.24 5030.3 33.6321 5050.79 0.696548H5088.12C5066.53 37.6576 5050.61 77.3633 5040.36 119.814C5030.48 162.264 5025.54 208.191 5025.54 257.594C5025.54 306.998 5030.48 352.924 5040.36 395.375C5050.61 437.825 5066.53 477.531 5088.12 514.492H5050.79ZM5148.56 23.7515H5183.14L5180.39 168.668H5151.3L5148.56 23.7515ZM5242.42 23.7515H5277.01L5274.26 168.668H5245.17L5242.42 23.7515ZM5699.16 23.7515V408H5659.08V230.697H5418.65V408H5378.03V23.7515H5418.65V195.017H5659.08V23.7515H5699.16ZM6067.75 275.709H5826.22C5828.41 305.717 5839.94 330.052 5860.8 348.716C5881.66 367.013 5908.01 376.162 5939.85 376.162C5957.78 376.162 5974.25 373.052 5989.25 366.831C6004.25 360.243 6017.25 350.729 6028.22 338.286L6050.18 363.537C6037.37 378.907 6021.27 390.617 6001.88 398.668C5982.85 406.719 5961.8 410.745 5938.75 410.745C5909.11 410.745 5882.76 404.523 5859.7 392.081C5837.01 379.273 5819.27 361.707 5806.46 339.384C5793.65 317.061 5787.25 291.811 5787.25 263.632C5787.25 235.454 5793.28 210.203 5805.36 187.88C5817.8 165.557 5834.64 148.175 5855.86 135.732C5877.45 123.29 5901.6 117.069 5928.32 117.069C5955.03 117.069 5979 123.29 6000.23 135.732C6021.45 148.175 6038.1 165.557 6050.18 187.88C6062.26 209.838 6068.3 235.088 6068.3 263.632L6067.75 275.709ZM5928.32 150.553C5900.51 150.553 5877.09 159.519 5858.06 177.451C5839.39 195.017 5828.78 218.071 5826.22 246.616H6030.97C6028.41 218.071 6017.61 195.017 5998.58 177.451C5979.92 159.519 5956.5 150.553 5928.32 150.553ZM6147.62 0.696548H6186.6V408H6147.62V0.696548ZM6295.04 0.696548H6334.01V408H6295.04V0.696548ZM6560.48 410.745C6532.66 410.745 6507.6 404.523 6485.27 392.081C6462.95 379.273 6445.39 361.707 6432.58 339.384C6419.77 317.061 6413.36 291.811 6413.36 263.632C6413.36 235.454 6419.77 210.203 6432.58 187.88C6445.39 165.557 6462.95 148.175 6485.27 135.732C6507.6 123.29 6532.66 117.069 6560.48 117.069C6588.29 117.069 6613.36 123.29 6635.68 135.732C6658 148.175 6675.39 165.557 6687.83 187.88C6700.64 210.203 6707.04 235.454 6707.04 263.632C6707.04 291.811 6700.64 317.061 6687.83 339.384C6675.39 361.707 6658 379.273 6635.68 392.081C6613.36 404.523 6588.29 410.745 6560.48 410.745ZM6560.48 376.162C6580.97 376.162 6599.27 371.588 6615.37 362.439C6631.84 352.924 6644.65 339.567 6653.79 322.367C6662.94 305.168 6667.52 285.589 6667.52 263.632C6667.52 241.675 6662.94 222.097 6653.79 204.897C6644.65 187.698 6631.84 174.523 6615.37 165.374C6599.27 155.86 6580.97 151.102 6560.48 151.102C6539.98 151.102 6521.5 155.86 6505.04 165.374C6488.93 174.523 6476.13 187.698 6466.61 204.897C6457.46 222.097 6452.89 241.675 6452.89 263.632C6452.89 285.589 6457.46 305.168 6466.61 322.367C6476.13 339.567 6488.93 352.924 6505.04 362.439C6521.5 371.588 6539.98 376.162 6560.48 376.162ZM7466.03 23.7515L7336.48 408H7293.66L7181.13 80.2909L7068.05 408H7025.79L6896.24 23.7515H6937.96L7048.84 354.205L7163.57 23.7515H7201.44L7314.52 355.852L7427.05 23.7515H7466.03ZM7628.31 410.745C7600.5 410.745 7575.43 404.523 7553.11 392.081C7530.78 379.273 7513.22 361.707 7500.41 339.384C7487.6 317.061 7481.2 291.811 7481.2 263.632C7481.2 235.454 7487.6 210.203 7500.41 187.88C7513.22 165.557 7530.78 148.175 7553.11 135.732C7575.43 123.29 7600.5 117.069 7628.31 117.069C7656.12 117.069 7681.19 123.29 7703.51 135.732C7725.84 148.175 7743.22 165.557 7755.66 187.88C7768.47 210.203 7774.87 235.454 7774.87 263.632C7774.87 291.811 7768.47 317.061 7755.66 339.384C7743.22 361.707 7725.84 379.273 7703.51 392.081C7681.19 404.523 7656.12 410.745 7628.31 410.745ZM7628.31 376.162C7648.8 376.162 7667.1 371.588 7683.2 362.439C7699.67 352.924 7712.48 339.567 7721.63 322.367C7730.78 305.168 7735.35 285.589 7735.35 263.632C7735.35 241.675 7730.78 222.097 7721.63 204.897C7712.48 187.698 7699.67 174.523 7683.2 165.374C7667.1 155.86 7648.8 151.102 7628.31 151.102C7607.82 151.102 7589.34 155.86 7572.87 165.374C7556.77 174.523 7543.96 187.698 7534.44 204.897C7525.3 222.097 7520.72 241.675 7520.72 263.632C7520.72 285.589 7525.3 305.168 7534.44 322.367C7543.96 339.567 7556.77 352.924 7572.87 362.439C7589.34 371.588 7607.82 376.162 7628.31 376.162ZM7891.77 175.804C7900.92 156.409 7914.46 141.771 7932.39 131.89C7950.69 122.009 7973.19 117.069 7999.91 117.069V154.945L7990.58 154.396C7960.2 154.396 7936.42 163.728 7919.22 182.391C7902.02 201.055 7893.42 227.22 7893.42 260.888V408H7854.44V119.265H7891.77V175.804ZM8070.48 0.696548H8109.45V408H8070.48V0.696548ZM8481.38 0.696548V408H8444.05V350.912C8432.34 370.307 8416.79 385.128 8397.39 395.375C8378.36 405.621 8356.77 410.745 8332.62 410.745C8305.54 410.745 8281.02 404.523 8259.06 392.081C8237.1 379.639 8219.9 362.256 8207.46 339.933C8195.02 317.61 8188.8 292.177 8188.8 263.632C8188.8 235.088 8195.02 209.655 8207.46 187.332C8219.9 165.009 8237.1 147.809 8259.06 135.732C8281.02 123.29 8305.54 117.069 8332.62 117.069C8356.04 117.069 8377.08 122.009 8395.74 131.89C8414.77 141.405 8430.33 155.494 8442.4 174.157V0.696548H8481.38ZM8335.91 376.162C8356.04 376.162 8374.15 371.588 8390.25 362.439C8406.72 352.924 8419.53 339.567 8428.68 322.367C8438.19 305.168 8442.95 285.589 8442.95 263.632C8442.95 241.675 8438.19 222.097 8428.68 204.897C8419.53 187.698 8406.72 174.523 8390.25 165.374C8374.15 155.86 8356.04 151.102 8335.91 151.102C8315.42 151.102 8296.94 155.86 8280.47 165.374C8264.37 174.523 8251.56 187.698 8242.04 204.897C8232.9 222.097 8228.32 241.675 8228.32 263.632C8228.32 285.589 8232.9 305.168 8242.04 322.367C8251.56 339.567 8264.37 352.924 8280.47 362.439C8296.94 371.588 8315.42 376.162 8335.91 376.162ZM8573.45 23.7515H8608.03L8605.29 168.668H8576.19L8573.45 23.7515ZM8667.32 23.7515H8701.9L8699.15 168.668H8670.06L8667.32 23.7515ZM8762.31 514.492C8783.9 477.531 8799.82 438.008 8810.06 395.924C8820.31 353.473 8825.43 307.363 8825.43 257.594C8825.43 207.825 8820.31 161.898 8810.06 119.814C8799.82 77.3633 8783.9 37.6576 8762.31 0.696548H8799.63C8820.13 33.6321 8835.86 72.24 8846.84 116.52C8858.19 160.434 8863.86 207.459 8863.86 257.594C8863.86 307.729 8858.37 354.754 8847.39 398.668C8836.41 442.582 8820.49 481.19 8799.63 514.492H8762.31ZM8979.19 176.902C8971.14 176.902 8964.18 173.974 8958.33 168.119C8952.84 162.264 8950.1 155.128 8950.1 146.711C8950.1 138.294 8952.84 131.341 8958.33 125.852C8964.18 119.997 8971.14 117.069 8979.19 117.069C8987.24 117.069 8994.19 119.997 9000.05 125.852C9005.9 131.341 9008.83 138.294 9008.83 146.711C9008.83 155.128 9005.9 162.264 9000.05 168.119C8994.19 173.974 8987.24 176.902 8979.19 176.902ZM8979.74 350.912C8988.15 350.912 8995.11 353.839 9000.6 359.694C9006.09 365.184 9008.83 372.137 9008.83 380.554C9008.83 384.945 9008.1 389.702 9006.63 394.826C9005.54 399.949 9003.71 405.804 9001.15 412.391L8978.09 488.143H8951.74L8970.41 408.549C8964.55 406.719 8959.79 403.426 8956.13 398.668C8952.47 393.545 8950.64 387.507 8950.64 380.554C8950.64 372.137 8953.39 365.184 8958.88 359.694C8964.37 353.839 8971.32 350.912 8979.74 350.912Z" fill="#fff"/>
</svg>
