<svg width="3452" height="518" viewBox="0 0 3452 518" fill="none" xmlns="http://www.w3.org/2000/svg">
<path d="M83.2746 212.582C83.2746 226.122 81.2618 236.186 77.2364 242.773C73.2109 249.36 66.6238 254.301 57.475 257.594C66.6238 260.888 73.2109 265.828 77.2364 272.415C81.2618 279.002 83.2746 289.066 83.2746 302.606V438.191C83.2746 467.467 97.1807 482.105 124.993 482.105H139.814V514.492H119.504C69.3684 514.492 44.3008 490.156 44.3008 441.485V302.057C44.3008 283.394 36.0669 274.062 19.5991 274.062H0.935588V241.126H19.5991C36.0669 241.126 44.3008 231.795 44.3008 213.131V73.7038C44.3008 25.0323 69.3684 0.696548 119.504 0.696548H139.814V33.0832H124.993C97.1807 33.0832 83.2746 47.7213 83.2746 76.9973V212.582ZM381.882 411.294C343.823 411.294 309.241 402.877 278.135 386.043C247.395 368.843 223.242 345.422 205.677 315.78C188.477 286.138 179.877 252.837 179.877 215.876C179.877 178.915 188.477 145.613 205.677 115.971C223.242 86.3291 247.395 63.0912 278.135 46.2574C309.241 29.0578 343.823 20.4579 381.882 20.4579C419.941 20.4579 454.157 28.8748 484.531 45.7085C515.271 62.5423 539.424 85.9631 556.99 115.971C574.555 145.613 583.338 178.915 583.338 215.876C583.338 252.837 574.555 286.321 556.99 316.329C539.424 345.971 515.271 369.209 484.531 386.043C454.157 402.877 419.941 411.294 381.882 411.294ZM381.882 375.064C412.256 375.064 439.702 368.294 464.221 354.754C488.74 340.848 507.952 321.819 521.858 297.666C535.764 273.147 542.717 245.884 542.717 215.876C542.717 185.868 535.764 158.787 521.858 134.635C507.952 110.116 488.74 91.0865 464.221 77.5462C439.702 63.6401 412.256 56.687 381.882 56.687C351.508 56.687 323.879 63.6401 298.994 77.5462C274.475 91.0865 255.08 110.116 240.808 134.635C226.902 158.787 219.949 185.868 219.949 215.876C219.949 245.884 226.902 273.147 240.808 297.666C255.08 321.819 274.475 340.848 298.994 354.754C323.879 368.294 351.508 375.064 381.882 375.064ZM814.912 117.069C841.992 117.069 866.511 123.29 888.468 135.732C910.425 147.809 927.625 165.009 940.067 187.332C952.51 209.655 958.731 235.088 958.731 263.632C958.731 292.542 952.51 318.159 940.067 340.482C927.625 362.805 910.425 380.188 888.468 392.63C866.877 404.706 842.358 410.745 814.912 410.745C791.491 410.745 770.266 405.987 751.237 396.473C732.573 386.592 717.203 372.32 705.127 353.656V514.492H666.153V119.265H703.48V176.353C715.19 157.324 730.56 142.686 749.59 132.439C768.985 122.192 790.759 117.069 814.912 117.069ZM812.167 376.162C832.295 376.162 850.592 371.588 867.06 362.439C883.528 352.924 896.336 339.567 905.485 322.367C915 305.168 919.757 285.589 919.757 263.632C919.757 241.675 915 222.28 905.485 205.446C896.336 188.246 883.528 174.889 867.06 165.374C850.592 155.86 832.295 151.102 812.167 151.102C791.674 151.102 773.194 155.86 756.726 165.374C740.624 174.889 727.816 188.246 718.301 205.446C709.152 222.28 704.578 241.675 704.578 263.632C704.578 285.589 709.152 305.168 718.301 322.367C727.816 339.567 740.624 352.924 756.726 362.439C773.194 371.588 791.674 376.162 812.167 376.162ZM1137.57 117.069C1175.27 117.069 1204.18 126.584 1224.3 145.613C1244.43 164.277 1254.49 192.089 1254.49 229.05V408H1217.17V362.988C1208.39 377.992 1195.39 389.702 1178.19 398.119C1161.36 406.536 1141.23 410.745 1117.81 410.745C1085.61 410.745 1059.99 403.06 1040.96 387.69C1021.93 372.32 1012.42 352.01 1012.42 326.759C1012.42 302.24 1021.2 282.479 1038.77 267.475C1056.7 252.471 1085.06 244.969 1123.85 244.969H1215.52V227.403C1215.52 202.519 1208.57 183.672 1194.66 170.864C1180.76 157.69 1160.45 151.102 1133.73 151.102C1115.43 151.102 1097.87 154.213 1081.03 160.434C1064.2 166.289 1049.75 174.523 1037.67 185.136L1020.1 156.043C1034.74 143.6 1052.31 134.086 1072.8 127.499C1093.29 120.545 1114.88 117.069 1137.57 117.069ZM1123.85 380.005C1145.81 380.005 1164.65 375.064 1180.39 365.184C1196.13 354.937 1207.84 340.299 1215.52 321.27V274.062H1124.95C1075.54 274.062 1050.84 291.262 1050.84 325.661C1050.84 342.495 1057.25 355.852 1070.06 365.733C1082.86 375.247 1100.8 380.005 1123.85 380.005ZM1481.09 410.745C1452.55 410.745 1426.93 404.523 1404.24 392.081C1381.92 379.639 1364.35 362.256 1351.54 339.933C1338.74 317.244 1332.33 291.811 1332.33 263.632C1332.33 235.454 1338.74 210.203 1351.54 187.88C1364.35 165.557 1381.92 148.175 1404.24 135.732C1426.93 123.29 1452.55 117.069 1481.09 117.069C1505.97 117.069 1528.11 122.009 1547.51 131.89C1567.27 141.405 1582.82 155.494 1594.17 174.157L1565.08 193.919C1555.56 179.647 1543.48 169.034 1528.85 162.081C1514.21 154.762 1498.29 151.102 1481.09 151.102C1460.23 151.102 1441.38 155.86 1424.55 165.374C1408.08 174.523 1395.09 187.698 1385.58 204.897C1376.43 222.097 1371.85 241.675 1371.85 263.632C1371.85 285.955 1376.43 305.717 1385.58 322.916C1395.09 339.75 1408.08 352.924 1424.55 362.439C1441.38 371.588 1460.23 376.162 1481.09 376.162C1498.29 376.162 1514.21 372.686 1528.85 365.733C1543.48 358.78 1555.56 348.167 1565.08 333.895L1594.17 353.656C1582.82 372.32 1567.27 386.592 1547.51 396.473C1527.75 405.987 1505.61 410.745 1481.09 410.745ZM1670.73 119.265H1709.71V408H1670.73V119.265ZM1690.49 56.1381C1682.44 56.1381 1675.67 53.3935 1670.18 47.9042C1664.69 42.415 1661.95 35.8279 1661.95 28.1429C1661.95 20.8239 1664.69 14.4197 1670.18 8.93044C1675.67 3.44118 1682.44 0.696548 1690.49 0.696548C1698.54 0.696548 1705.31 3.44118 1710.8 8.93044C1716.29 14.0538 1719.04 20.2749 1719.04 27.594C1719.04 35.6449 1716.29 42.415 1710.8 47.9042C1705.31 53.3935 1698.54 56.1381 1690.49 56.1381ZM1970.2 390.434C1962.88 397.021 1953.73 402.145 1942.75 405.804C1932.14 409.098 1920.98 410.745 1909.27 410.745C1882.19 410.745 1861.33 403.426 1846.69 388.788C1832.05 374.15 1824.74 353.473 1824.74 326.759V152.2H1773.14V119.265H1824.74V56.1381H1863.71V119.265H1951.54V152.2H1863.71V324.563C1863.71 341.763 1867.92 354.937 1876.33 364.086C1885.12 372.869 1897.56 377.26 1913.66 377.26C1921.71 377.26 1929.4 375.979 1936.72 373.418C1944.4 370.856 1950.99 367.196 1956.48 362.439L1970.2 390.434ZM2278.41 119.265L2134.05 442.582C2122.34 469.663 2108.8 488.875 2093.43 500.22C2078.06 511.564 2059.58 517.236 2037.98 517.236C2024.08 517.236 2011.09 515.041 1999.01 510.649C1986.93 506.258 1976.5 499.671 1967.72 490.888L1985.84 461.795C2000.47 476.433 2018.04 483.752 2038.53 483.752C2051.71 483.752 2062.87 480.092 2072.02 472.773C2081.53 465.454 2090.32 453.012 2098.37 435.446L2110.99 407.451L1981.99 119.265H2022.61L2131.3 364.635L2239.99 119.265H2278.41ZM2341.43 176.902C2333.38 176.902 2326.43 173.974 2320.57 168.119C2315.09 162.264 2312.34 155.128 2312.34 146.711C2312.34 138.294 2315.09 131.341 2320.57 125.852C2326.43 119.997 2333.38 117.069 2341.43 117.069C2349.48 117.069 2356.44 119.997 2362.29 125.852C2368.15 131.341 2371.08 138.294 2371.08 146.711C2371.08 155.128 2368.15 162.264 2362.29 168.119C2356.44 173.974 2349.48 176.902 2341.43 176.902ZM2341.43 410.745C2333.38 410.745 2326.43 407.817 2320.57 401.962C2315.09 396.107 2312.34 388.971 2312.34 380.554C2312.34 372.137 2315.09 365.184 2320.57 359.694C2326.43 353.839 2333.38 350.912 2341.43 350.912C2349.48 350.912 2356.44 353.839 2362.29 359.694C2368.15 365.184 2371.08 372.137 2371.08 380.554C2371.08 388.971 2368.15 396.107 2362.29 401.962C2356.44 407.817 2349.48 410.745 2341.43 410.745ZM2581.27 411.294C2551.63 411.294 2525.09 403.426 2501.67 387.69C2478.62 371.954 2460.5 349.448 2447.33 320.172C2434.52 290.53 2428.12 255.764 2428.12 215.876C2428.12 175.987 2434.52 141.405 2447.33 112.129C2460.5 82.4866 2478.62 59.7976 2501.67 44.0617C2525.09 28.3259 2551.63 20.4579 2581.27 20.4579C2610.91 20.4579 2637.26 28.3259 2660.31 44.0617C2683.73 59.7976 2702.03 82.4866 2715.21 112.129C2728.38 141.405 2734.97 175.987 2734.97 215.876C2734.97 255.764 2728.38 290.53 2715.21 320.172C2702.03 349.448 2683.73 371.954 2660.31 387.69C2637.26 403.426 2610.91 411.294 2581.27 411.294ZM2581.27 375.064C2603.59 375.064 2623.17 368.843 2640 356.401C2657.2 343.959 2670.56 325.844 2680.07 302.057C2689.59 278.27 2694.35 249.543 2694.35 215.876C2694.35 182.208 2689.59 153.481 2680.07 129.694C2670.56 105.907 2657.2 87.7929 2640 75.3506C2623.17 62.9082 2603.59 56.687 2581.27 56.687C2558.94 56.687 2539.18 62.9082 2521.98 75.3506C2505.15 87.7929 2491.98 105.907 2482.46 129.694C2472.95 153.481 2468.19 182.208 2468.19 215.876C2468.19 249.543 2472.95 278.27 2482.46 302.057C2491.98 325.844 2505.15 343.959 2521.98 356.401C2539.18 368.843 2558.94 375.064 2581.27 375.064ZM2815.31 410.745C2807.26 410.745 2800.31 407.817 2794.45 401.962C2788.96 396.107 2786.22 388.971 2786.22 380.554C2786.22 372.137 2788.96 365.184 2794.45 359.694C2800.31 353.839 2807.26 350.912 2815.31 350.912C2823.36 350.912 2830.32 353.839 2836.17 359.694C2842.03 365.184 2844.95 372.137 2844.95 380.554C2844.95 388.971 2842.03 396.107 2836.17 401.962C2830.32 407.817 2823.36 410.745 2815.31 410.745ZM3003 181.293C3058.62 181.293 3099.06 191.357 3124.31 211.484C3149.93 231.246 3162.73 259.058 3162.73 294.921C3162.73 317.244 3157.43 337.188 3146.82 354.754C3136.57 372.32 3121.02 386.226 3100.16 396.473C3079.3 406.353 3053.68 411.294 3023.31 411.294C2995.86 411.294 2969.7 406.902 2944.81 398.119C2920.29 388.971 2900.53 376.894 2885.53 361.89L2904.74 330.601C2917.55 343.776 2934.38 354.571 2955.24 362.988C2976.1 371.039 2998.61 375.064 3022.76 375.064C3054.6 375.064 3079.12 367.928 3096.31 353.656C3113.88 339.384 3122.66 320.355 3122.66 296.568C3122.66 270.219 3112.78 250.275 3093.02 236.735C3073.63 223.195 3040.69 216.425 2994.21 216.425H2912.42L2932.19 23.7515H3142.42V58.8828H2966.77L2953.59 181.293H3003ZM3242.55 176.902C3234.5 176.902 3227.55 173.974 3221.69 168.119C3216.2 162.264 3213.46 155.128 3213.46 146.711C3213.46 138.294 3216.2 131.341 3221.69 125.852C3227.55 119.997 3234.5 117.069 3242.55 117.069C3250.6 117.069 3257.56 119.997 3263.41 125.852C3269.27 131.341 3272.19 138.294 3272.19 146.711C3272.19 155.128 3269.27 162.264 3263.41 168.119C3257.56 173.974 3250.6 176.902 3242.55 176.902ZM3243.1 350.912C3251.52 350.912 3258.47 353.839 3263.96 359.694C3269.45 365.184 3272.19 372.137 3272.19 380.554C3272.19 384.945 3271.46 389.702 3270 394.826C3268.9 399.949 3267.07 405.804 3264.51 412.391L3241.45 488.143H3215.11L3233.77 408.549C3227.91 406.719 3223.16 403.426 3219.5 398.668C3215.84 393.545 3214.01 387.507 3214.01 380.554C3214.01 372.137 3216.75 365.184 3222.24 359.694C3227.73 353.839 3234.68 350.912 3243.1 350.912ZM3451.1 241.126V274.062H3432.43C3415.97 274.062 3407.73 283.394 3407.73 302.057V441.485C3407.73 490.156 3382.85 514.492 3333.08 514.492H3312.22V482.105H3327.04C3354.85 482.105 3368.76 467.467 3368.76 438.191V302.606C3368.76 289.066 3370.77 279.002 3374.8 272.415C3378.82 265.828 3385.41 260.888 3394.56 257.594C3385.41 254.301 3378.82 249.36 3374.8 242.773C3370.77 236.186 3368.76 226.122 3368.76 212.582V76.9973C3368.76 47.7213 3354.85 33.0832 3327.04 33.0832H3312.22V0.696548H3333.08C3382.85 0.696548 3407.73 25.0323 3407.73 73.7038V213.131C3407.73 231.795 3415.97 241.126 3432.43 241.126H3451.1Z" fill="#fff"/>
</svg>
