<svg width="1187" height="890" viewBox="0 0 1187 890" fill="none" xmlns="http://www.w3.org/2000/svg">
<g id="enveloppe">
<path id="bottom" d="M1163.86 293.803C1172.89 286.62 1186.33 293.339 1186.33 304.693V778.531C1186.33 839.933 1136.52 889.75 1075.11 889.75H111.219C49.8167 889.75 0 839.933 0 778.531V304.925C0 293.339 13.2072 286.852 22.4755 294.034C74.3775 334.351 143.194 385.558 379.534 557.252C428.424 592.935 510.911 668.008 593.167 667.544C675.886 668.239 759.995 591.545 807.031 557.252C1043.37 385.558 1111.96 334.12 1163.86 293.803Z" fill="#43ACF2"/>
<path id="top" d="M593.167 593.167C646.922 594.094 724.312 525.509 763.239 497.241C1070.71 274.108 1094.11 254.645 1165.02 199.035C1178.46 188.608 1186.33 172.389 1186.33 155.243V111.219C1186.33 49.8167 1136.52 0 1075.11 0H111.219C49.8167 0 0 49.8167 0 111.219V155.243C0 172.389 7.87799 188.377 21.3169 199.035C92.2189 254.413 115.621 274.108 423.095 497.241C462.021 525.509 539.411 594.094 593.167 593.167Z" fill="#43ACF2"/>
</g>
</svg>
