<svg width="1200" height="1200" viewBox="0 0 1200 1200" fill="none" xmlns="http://www.w3.org/2000/svg">
<g id="home">
<path id="Icon" d="M653.033 21.967C623.744 -7.32233 576.256 -7.32233 546.967 21.967L21.967 546.967C-7.32233 576.256 -7.32233 623.744 21.967 653.033C51.2563 682.322 98.7437 682.322 128.033 653.033L150 631.066V1125C150 1166.42 183.579 1200 225 1200H375C416.421 1200 450 1166.42 450 1125V975C450 933.579 483.579 900 525 900H675C716.421 900 750 933.579 750 975V1125C750 1166.42 783.579 1200 825 1200H975C1016.42 1200 1050 1166.42 1050 1125V631.066L1071.97 653.033C1101.26 682.322 1148.74 682.322 1178.03 653.033C1207.32 623.744 1207.32 576.256 1178.03 546.967L653.033 21.967Z" fill="#43ACF2"/>
</g>
</svg>
