<svg width="1880" height="411" viewBox="0 0 1880 411" fill="none" xmlns="http://www.w3.org/2000/svg">
<path d="M239.208 136.281L37.2029 215.876L239.208 295.47V329.504L0.424852 233.99V197.761L239.208 101.699V136.281ZM479.196 117.069C515.425 117.069 544.152 127.682 565.377 148.907C586.969 169.766 597.764 200.323 597.764 240.577V408H558.79V244.42C558.79 214.412 551.288 191.54 536.284 175.804C521.28 160.068 499.872 152.2 472.06 152.2C440.954 152.2 416.252 161.532 397.955 180.196C380.023 198.493 371.057 223.927 371.057 256.496V408H332.084V0.696548H371.057V169.766C381.67 152.932 396.308 139.941 414.972 130.792C433.635 121.643 455.043 117.069 479.196 117.069ZM855.627 390.434C848.308 397.021 839.159 402.145 828.18 405.804C817.568 409.098 806.406 410.745 794.696 410.745C767.615 410.745 746.756 403.426 732.118 388.788C717.48 374.15 710.161 353.473 710.161 326.759V152.2H658.562V119.265H710.161V56.1381H749.135V119.265H836.963V152.2H749.135V324.563C749.135 341.763 753.343 354.937 761.76 364.086C770.543 372.869 782.985 377.26 799.087 377.26C807.138 377.26 814.823 375.979 822.142 373.418C829.827 370.856 836.414 367.196 841.903 362.439L855.627 390.434ZM1286.67 117.069C1322.9 117.069 1351.26 127.499 1371.75 148.358C1392.61 169.217 1403.04 199.957 1403.04 240.577V408H1364.07V244.42C1364.07 214.412 1356.75 191.54 1342.11 175.804C1327.84 160.068 1307.53 152.2 1281.18 152.2C1251.17 152.2 1227.57 161.532 1210.37 180.196C1193.17 198.493 1184.57 223.927 1184.57 256.496V408H1145.6V244.42C1145.6 214.412 1138.28 191.54 1123.64 175.804C1109.37 160.068 1088.87 152.2 1062.16 152.2C1032.52 152.2 1008.91 161.532 991.349 180.196C974.149 198.493 965.549 223.927 965.549 256.496V408H926.575V119.265H963.902V171.962C974.149 154.396 988.421 140.856 1006.72 131.341C1025.02 121.826 1046.06 117.069 1069.85 117.069C1094 117.069 1114.86 122.192 1132.42 132.439C1150.35 142.686 1163.71 157.872 1172.49 178C1183.11 158.97 1198.29 144.149 1218.06 133.537C1238.18 122.558 1261.05 117.069 1286.67 117.069ZM1508.74 0.696548H1547.71V408H1508.74V0.696548ZM1879.02 197.761V233.99L1640.24 329.504V295.47L1842.24 215.876L1640.24 136.281V101.699L1879.02 197.761Z" fill="#fff"/>
</svg>
