<svg width="6976" height="521" viewBox="0 0 6976 521" fill="none" xmlns="http://www.w3.org/2000/svg">
<path d="M143.52 414.294C114.976 414.294 87.5299 409.719 61.1815 400.57C35.1989 391.422 15.0716 379.345 0.799544 364.341L16.7184 333.052C30.6246 346.959 49.1051 358.303 72.16 367.086C95.2149 375.503 119.002 379.711 143.52 379.711C177.92 379.711 203.719 373.49 220.919 361.048C238.119 348.239 246.719 331.772 246.719 311.644C246.719 296.274 241.961 284.015 232.447 274.866C223.298 265.717 211.953 258.764 198.413 254.007C184.873 248.884 166.026 243.394 141.874 237.539C112.964 230.22 89.9086 223.267 72.7089 216.68C55.5092 209.727 40.6882 199.297 28.2459 185.391C16.1695 171.485 10.1313 152.639 10.1313 128.852C10.1313 109.456 15.2546 91.8907 25.5012 76.1549C35.7479 60.053 51.4838 47.2447 72.7089 37.73C93.9341 28.2153 120.283 23.4579 151.754 23.4579C173.711 23.4579 195.12 26.5685 215.979 32.7897C237.204 38.6449 255.501 46.8788 270.871 57.4913L257.148 89.878C241.046 79.2654 223.847 71.3975 205.549 66.2742C187.252 60.7849 169.32 58.0403 151.754 58.0403C118.087 58.0403 92.6532 64.6274 75.4535 77.8016C58.6198 90.6099 50.2029 107.261 50.2029 127.754C50.2029 143.124 54.7773 155.566 63.9261 165.081C73.4408 174.23 85.1512 181.366 99.0574 186.489C113.329 191.246 132.359 196.553 156.146 202.408C184.324 209.361 207.013 216.314 224.213 223.267C241.778 229.854 256.599 240.101 268.676 254.007C280.752 267.547 286.79 286.028 286.79 309.449C286.79 328.844 281.484 346.593 270.871 362.694C260.625 378.43 244.706 391.056 223.115 400.57C201.524 409.719 174.992 414.294 143.52 414.294ZM604.327 122.265L459.959 445.582C448.249 472.663 434.709 491.875 419.339 503.22C403.969 514.564 385.488 520.236 363.897 520.236C349.991 520.236 337 518.041 324.923 513.649C312.847 509.258 302.417 502.671 293.635 493.888L311.749 464.795C326.387 479.433 343.953 486.752 364.446 486.752C377.62 486.752 388.782 483.092 397.931 475.773C407.445 468.454 416.228 456.012 424.279 438.446L436.904 410.451L307.907 122.265H348.527L457.215 367.635L565.902 122.265H604.327ZM733.398 413.745C709.977 413.745 687.471 410.451 665.88 403.864C644.655 396.911 628.004 388.311 615.927 378.064L633.493 347.325C645.569 356.839 660.756 364.707 679.054 370.928C697.351 376.784 716.381 379.711 736.142 379.711C762.491 379.711 781.886 375.686 794.328 367.635C807.137 359.218 813.541 347.508 813.541 332.504C813.541 321.891 810.064 313.657 803.111 307.802C796.158 301.581 787.375 297.006 776.763 294.079C766.15 290.785 752.061 287.675 734.495 284.747C711.075 280.355 692.228 275.964 677.956 271.573C663.684 266.815 651.425 258.947 641.178 247.969C631.297 236.99 626.357 221.803 626.357 202.408C626.357 178.255 636.421 158.494 656.548 143.124C676.675 127.754 704.67 120.069 740.534 120.069C759.197 120.069 777.861 122.631 796.524 127.754C815.188 132.511 830.558 138.915 842.634 146.966L825.617 178.255C801.83 161.787 773.469 153.553 740.534 153.553C715.649 153.553 696.803 157.945 683.994 166.728C671.552 175.511 665.331 187.038 665.331 201.31C665.331 212.289 668.807 221.071 675.76 227.659C683.079 234.246 692.045 239.186 702.658 242.48C713.27 245.407 727.908 248.518 746.572 251.811C769.627 256.203 788.107 260.594 802.013 264.986C815.92 269.377 827.813 276.879 837.694 287.492C847.574 298.104 852.515 312.742 852.515 331.406C852.515 356.656 841.902 376.784 820.677 391.788C799.818 406.426 770.725 413.745 733.398 413.745ZM1076.62 393.434C1069.3 400.021 1060.15 405.145 1049.17 408.804C1038.56 412.098 1027.4 413.745 1015.69 413.745C988.607 413.745 967.748 406.426 953.11 391.788C938.472 377.15 931.153 356.473 931.153 329.759V155.2H879.554V122.265H931.153V59.1381H970.126V122.265H1057.95V155.2H970.126V327.563C970.126 344.763 974.335 357.937 982.752 367.086C991.535 375.869 1003.98 380.26 1020.08 380.26C1028.13 380.26 1035.81 378.979 1043.13 376.418C1050.82 373.856 1057.41 370.196 1062.9 365.439L1076.62 393.434ZM1388.79 278.709H1147.26C1149.46 308.717 1160.99 333.052 1181.84 351.716C1202.7 370.013 1229.05 379.162 1260.89 379.162C1278.82 379.162 1295.29 376.052 1310.29 369.831C1325.3 363.243 1338.29 353.729 1349.27 341.286L1371.22 366.537C1358.42 381.907 1342.31 393.617 1322.92 401.668C1303.89 409.719 1282.85 413.745 1259.79 413.745C1230.15 413.745 1203.8 407.523 1180.75 395.081C1158.06 382.273 1140.31 364.707 1127.5 342.384C1114.69 320.061 1108.29 294.811 1108.29 266.632C1108.29 238.454 1114.33 213.203 1126.4 190.88C1138.85 168.557 1155.68 151.175 1176.9 138.732C1198.5 126.29 1222.65 120.069 1249.36 120.069C1276.08 120.069 1300.05 126.29 1321.27 138.732C1342.5 151.175 1359.15 168.557 1371.22 190.88C1383.3 212.838 1389.34 238.088 1389.34 266.632L1388.79 278.709ZM1249.36 153.553C1221.55 153.553 1198.13 162.519 1179.1 180.451C1160.44 198.017 1149.82 221.071 1147.26 249.616H1352.01C1349.45 221.071 1338.65 198.017 1319.63 180.451C1300.96 162.519 1277.54 153.553 1249.36 153.553ZM1828.76 120.069C1864.99 120.069 1893.35 130.499 1913.85 151.358C1934.71 172.217 1945.14 202.957 1945.14 243.577V411H1906.16V247.42C1906.16 217.412 1898.84 194.54 1884.2 178.804C1869.93 163.068 1849.62 155.2 1823.27 155.2C1793.27 155.2 1769.66 164.532 1752.46 183.196C1735.26 201.493 1726.66 226.927 1726.66 259.496V411H1687.69V247.42C1687.69 217.412 1680.37 194.54 1665.73 178.804C1651.46 163.068 1630.97 155.2 1604.25 155.2C1574.61 155.2 1551.01 164.532 1533.44 183.196C1516.24 201.493 1507.64 226.927 1507.64 259.496V411H1468.67V122.265H1505.99V174.962C1516.24 157.396 1530.51 143.856 1548.81 134.341C1567.11 124.826 1588.15 120.069 1611.94 120.069C1636.09 120.069 1656.95 125.192 1674.51 135.439C1692.45 145.686 1705.8 160.872 1714.59 181C1725.2 161.97 1740.39 147.149 1760.15 136.537C1780.27 125.558 1803.15 120.069 1828.76 120.069ZM2054.67 413.745C2046.62 413.745 2039.67 410.817 2033.81 404.962C2028.32 399.107 2025.58 391.971 2025.58 383.554C2025.58 375.137 2028.32 368.184 2033.81 362.694C2039.67 356.839 2046.62 353.912 2054.67 353.912C2062.72 353.912 2069.68 356.839 2075.53 362.694C2081.39 368.184 2084.31 375.137 2084.31 383.554C2084.31 391.971 2081.39 399.107 2075.53 404.962C2069.68 410.817 2062.72 413.745 2054.67 413.745ZM2277.13 413.745C2249.32 413.745 2224.25 407.523 2201.93 395.081C2179.61 382.273 2162.04 364.707 2149.23 342.384C2136.43 320.061 2130.02 294.811 2130.02 266.632C2130.02 238.454 2136.43 213.203 2149.23 190.88C2162.04 168.557 2179.61 151.175 2201.93 138.732C2224.25 126.29 2249.32 120.069 2277.13 120.069C2304.95 120.069 2330.01 126.29 2352.34 138.732C2374.66 151.175 2392.04 168.557 2404.48 190.88C2417.29 213.203 2423.7 238.454 2423.7 266.632C2423.7 294.811 2417.29 320.061 2404.48 342.384C2392.04 364.707 2374.66 382.273 2352.34 395.081C2330.01 407.523 2304.95 413.745 2277.13 413.745ZM2277.13 379.162C2297.63 379.162 2315.92 374.588 2332.03 365.439C2348.49 355.924 2361.3 342.567 2370.45 325.367C2379.6 308.168 2384.17 288.589 2384.17 266.632C2384.17 244.675 2379.6 225.097 2370.45 207.897C2361.3 190.698 2348.49 177.523 2332.03 168.374C2315.92 158.86 2297.63 154.102 2277.13 154.102C2256.64 154.102 2238.16 158.86 2221.69 168.374C2205.59 177.523 2192.78 190.698 2183.27 207.897C2174.12 225.097 2169.54 244.675 2169.54 266.632C2169.54 288.589 2174.12 308.168 2183.27 325.367C2192.78 342.567 2205.59 355.924 2221.69 365.439C2238.16 374.588 2256.64 379.162 2277.13 379.162ZM2763.46 122.265V411H2726.13V358.303C2715.88 375.869 2701.79 389.592 2683.86 399.473C2665.93 408.987 2645.44 413.745 2622.38 413.745C2584.69 413.745 2554.86 403.315 2532.91 382.456C2511.32 361.231 2500.52 330.308 2500.52 289.687V122.265H2539.49V285.845C2539.49 316.219 2547 339.274 2562 355.009C2577 370.745 2598.41 378.613 2626.22 378.613C2656.6 378.613 2680.57 369.465 2698.13 351.167C2715.7 332.504 2724.48 306.704 2724.48 273.768V122.265H2763.46ZM3024.66 393.434C3017.34 400.021 3008.2 405.145 2997.22 408.804C2986.61 412.098 2975.44 413.745 2963.73 413.745C2936.65 413.745 2915.79 406.426 2901.16 391.788C2886.52 377.15 2879.2 356.473 2879.2 329.759V155.2H2827.6V122.265H2879.2V59.1381H2918.17V122.265H3006V155.2H2918.17V327.563C2918.17 344.763 2922.38 357.937 2930.8 367.086C2939.58 375.869 2952.02 380.26 2968.12 380.26C2976.18 380.26 2983.86 378.979 2991.18 376.418C2998.86 373.856 3005.45 370.196 3010.94 365.439L3024.66 393.434ZM3104.82 413.745C3096.76 413.745 3089.81 410.817 3083.96 404.962C3078.47 399.107 3075.72 391.971 3075.72 383.554C3075.72 375.137 3078.47 368.184 3083.96 362.694C3089.81 356.839 3096.76 353.912 3104.82 353.912C3112.87 353.912 3119.82 356.839 3125.67 362.694C3131.53 368.184 3134.46 375.137 3134.46 383.554C3134.46 391.971 3131.53 399.107 3125.67 404.962C3119.82 410.817 3112.87 413.745 3104.82 413.745ZM3369.35 26.7515C3418.39 26.7515 3456.81 38.4619 3484.63 61.8828C3512.44 85.3036 3526.34 117.507 3526.34 158.494C3526.34 199.48 3512.44 231.684 3484.63 255.105C3456.81 278.16 3418.39 289.687 3369.35 289.687H3266.15V411H3225.53V26.7515H3369.35ZM3368.25 254.007C3406.31 254.007 3435.41 245.773 3455.53 229.305C3475.66 212.472 3485.72 188.868 3485.72 158.494C3485.72 127.388 3475.66 103.601 3455.53 87.1334C3435.41 70.2996 3406.31 61.8828 3368.25 61.8828H3266.15V254.007H3368.25ZM3635.76 178.804C3644.91 159.409 3658.45 144.771 3676.39 134.89C3694.68 125.009 3717.19 120.069 3743.9 120.069V157.945L3734.57 157.396C3704.2 157.396 3680.41 166.728 3663.21 185.391C3646.01 204.055 3637.41 230.22 3637.41 263.888V411H3598.44V122.265H3635.76V178.804ZM3814.47 122.265H3853.44V411H3814.47V122.265ZM3834.23 59.1381C3826.18 59.1381 3819.41 56.3935 3813.92 50.9042C3808.43 45.415 3805.69 38.8279 3805.69 31.1429C3805.69 23.8239 3808.43 17.4197 3813.92 11.9304C3819.41 6.44118 3826.18 3.69655 3834.23 3.69655C3842.28 3.69655 3849.05 6.44118 3854.54 11.9304C3860.03 17.0538 3862.78 23.2749 3862.78 30.594C3862.78 38.6449 3860.03 45.415 3854.54 50.9042C3849.05 56.3935 3842.28 59.1381 3834.23 59.1381ZM4109 120.069C4145.23 120.069 4173.96 130.682 4195.18 151.907C4216.77 172.766 4227.57 203.323 4227.57 243.577V411H4188.59V247.42C4188.59 217.412 4181.09 194.54 4166.09 178.804C4151.08 163.068 4129.68 155.2 4101.86 155.2C4070.76 155.2 4046.06 164.532 4027.76 183.196C4009.83 201.493 4000.86 226.927 4000.86 259.496V411H3961.89V122.265H3999.21V175.511C4009.83 157.945 4024.46 144.405 4043.13 134.89C4062.16 125.009 4084.11 120.069 4109 120.069ZM4485.43 393.434C4478.11 400.021 4468.96 405.145 4457.98 408.804C4447.37 412.098 4436.21 413.745 4424.5 413.745C4397.42 413.745 4376.56 406.426 4361.92 391.788C4347.28 377.15 4339.96 356.473 4339.96 329.759V155.2H4288.37V122.265H4339.96V59.1381H4378.94V122.265H4466.77V155.2H4378.94V327.563C4378.94 344.763 4383.15 357.937 4391.56 367.086C4400.35 375.869 4412.79 380.26 4428.89 380.26C4436.94 380.26 4444.63 378.979 4451.95 376.418C4459.63 373.856 4466.22 370.196 4471.71 365.439L4485.43 393.434ZM4556.38 3.69655H4595.35V411H4556.38V3.69655ZM4850.91 120.069C4887.14 120.069 4915.86 130.682 4937.09 151.907C4958.68 172.766 4969.48 203.323 4969.48 243.577V411H4930.5V247.42C4930.5 217.412 4923 194.54 4908 178.804C4892.99 163.068 4871.58 155.2 4843.77 155.2C4812.67 155.2 4787.96 164.532 4769.67 183.196C4751.73 201.493 4742.77 226.927 4742.77 259.496V411H4703.8V122.265H4741.12V175.511C4751.73 157.945 4766.37 144.405 4785.04 134.89C4804.07 125.009 4826.02 120.069 4850.91 120.069ZM5141.71 517.492C5121.21 483.824 5105.48 445.216 5094.5 401.668C5083.52 357.754 5078.03 310.729 5078.03 260.594C5078.03 210.459 5083.52 163.434 5094.5 119.52C5105.48 75.24 5121.21 36.6321 5141.71 3.69655H5179.03C5157.44 40.6576 5141.52 80.3633 5131.28 122.814C5121.4 165.264 5116.46 211.191 5116.46 260.594C5116.46 309.998 5121.4 355.924 5131.28 398.375C5141.52 440.825 5157.44 480.531 5179.03 517.492H5141.71ZM5268.56 82.742C5274.78 84.5717 5279.54 88.0482 5282.84 93.1716C5286.5 97.9289 5288.33 103.784 5288.33 110.737C5288.33 119.52 5285.58 126.656 5280.09 132.145C5274.6 137.635 5267.83 140.379 5259.78 140.379C5251 140.379 5243.86 137.635 5238.37 132.145C5233.25 126.29 5230.69 119.154 5230.69 110.737C5230.69 106.346 5231.05 102.137 5231.79 98.1119C5232.88 93.7205 5234.9 87.4993 5237.82 79.4484L5260.88 3.69655H5287.23L5268.56 82.742ZM5361.88 82.742C5368.1 84.5717 5372.86 88.0482 5376.15 93.1716C5379.81 97.9289 5381.64 103.784 5381.64 110.737C5381.64 119.52 5378.9 126.656 5373.41 132.145C5367.92 137.635 5361.15 140.379 5353.1 140.379C5344.32 140.379 5337.18 137.635 5331.69 132.145C5326.57 126.29 5324.01 119.154 5324.01 110.737C5324.01 106.346 5324.37 102.137 5325.1 98.1119C5326.2 93.7205 5328.21 87.4993 5331.14 79.4484L5354.2 3.69655H5380.54L5361.88 82.742ZM5473.77 26.7515H5630.22C5670.84 26.7515 5706.7 34.9854 5737.81 51.4532C5768.91 67.555 5793.06 90.244 5810.26 119.52C5827.46 148.43 5836.06 181.549 5836.06 218.876C5836.06 256.203 5827.46 289.504 5810.26 318.78C5793.06 347.69 5768.91 370.379 5737.81 386.847C5706.7 402.949 5670.84 411 5630.22 411H5473.77V26.7515ZM5628.02 375.869C5661.69 375.869 5691.15 369.282 5716.4 356.107C5741.65 342.567 5761.23 324.087 5775.13 300.666C5789.04 276.879 5795.99 249.616 5795.99 218.876C5795.99 188.136 5789.04 161.055 5775.13 137.635C5761.23 113.848 5741.65 95.3673 5716.4 82.193C5691.15 68.6528 5661.69 61.8828 5628.02 61.8828H5514.39V375.869H5628.02ZM6170.45 278.709H5928.93C5931.12 308.717 5942.65 333.052 5963.51 351.716C5984.37 370.013 6010.72 379.162 6042.55 379.162C6060.49 379.162 6076.95 376.052 6091.96 369.831C6106.96 363.243 6119.95 353.729 6130.93 341.286L6152.89 366.537C6140.08 381.907 6123.98 393.617 6104.58 401.668C6085.55 409.719 6064.51 413.745 6041.46 413.745C6011.81 413.745 5985.47 407.523 5962.41 395.081C5939.72 382.273 5921.97 364.707 5909.17 342.384C5896.36 320.061 5889.95 294.811 5889.95 266.632C5889.95 238.454 5895.99 213.203 5908.07 190.88C5920.51 168.557 5937.34 151.175 5958.57 138.732C5980.16 126.29 6004.31 120.069 6031.03 120.069C6057.74 120.069 6081.71 126.29 6102.94 138.732C6124.16 151.175 6140.81 168.557 6152.89 190.88C6164.96 212.838 6171 238.088 6171 266.632L6170.45 278.709ZM6031.03 153.553C6003.21 153.553 5979.79 162.519 5960.76 180.451C5942.1 198.017 5931.49 221.071 5928.93 249.616H6133.68C6131.11 221.071 6120.32 198.017 6101.29 180.451C6082.63 162.519 6059.21 153.553 6031.03 153.553ZM6487.6 122.265L6359.15 411H6319.08L6191.18 122.265H6231.8L6339.94 368.184L6449.17 122.265H6487.6ZM6556.53 0.951919C6564.94 0.951919 6571.9 3.87953 6577.38 9.73476C6582.87 15.224 6585.62 22.1771 6585.62 30.594C6585.62 34.9854 6584.89 39.7427 6583.42 44.866C6582.32 49.6234 6580.68 55.2956 6578.48 61.8828L6554.88 137.635H6528.53L6547.74 58.5892C6541.52 56.7595 6536.58 53.4659 6532.92 48.7085C6529.26 43.5852 6527.43 37.547 6527.43 30.594C6527.43 21.8111 6530.18 14.6751 6535.67 9.18581C6541.16 3.69655 6548.11 0.951919 6556.53 0.951919ZM6649.84 0.951919C6658.26 0.951919 6665.21 3.87953 6670.7 9.73476C6676.19 15.224 6678.94 22.1771 6678.94 30.594C6678.94 34.9854 6678.2 39.7427 6676.74 44.866C6675.64 49.6234 6674 55.2956 6671.8 61.8828L6648.2 137.635H6621.85L6641.06 58.5892C6634.84 56.7595 6629.9 53.4659 6626.24 48.7085C6622.58 43.5852 6620.75 37.547 6620.75 30.594C6620.75 21.8111 6623.49 14.6751 6628.98 9.18581C6634.47 3.69655 6641.43 0.951919 6649.84 0.951919ZM6729.35 517.492C6750.94 480.531 6766.86 441.008 6777.1 398.924C6787.35 356.473 6792.47 310.363 6792.47 260.594C6792.47 210.825 6787.35 164.898 6777.1 122.814C6766.86 80.3633 6750.94 40.6576 6729.35 3.69655H6766.67C6787.17 36.6321 6802.9 75.24 6813.88 119.52C6825.23 163.434 6830.9 210.459 6830.9 260.594C6830.9 310.729 6825.41 357.754 6814.43 401.668C6803.45 445.582 6787.53 484.19 6766.67 517.492H6729.35ZM6946.23 179.902C6938.18 179.902 6931.22 176.974 6925.37 171.119C6919.88 165.264 6917.14 158.128 6917.14 149.711C6917.14 141.294 6919.88 134.341 6925.37 128.852C6931.22 122.997 6938.18 120.069 6946.23 120.069C6954.28 120.069 6961.23 122.997 6967.09 128.852C6972.94 134.341 6975.87 141.294 6975.87 149.711C6975.87 158.128 6972.94 165.264 6967.09 171.119C6961.23 176.974 6954.28 179.902 6946.23 179.902ZM6946.78 353.912C6955.19 353.912 6962.15 356.839 6967.64 362.694C6973.13 368.184 6975.87 375.137 6975.87 383.554C6975.87 387.945 6975.14 392.702 6973.68 397.826C6972.58 402.949 6970.75 408.804 6968.19 415.391L6945.13 491.143H6918.78L6937.45 411.549C6931.59 409.719 6926.83 406.426 6923.17 401.668C6919.51 396.545 6917.68 390.507 6917.68 383.554C6917.68 375.137 6920.43 368.184 6925.92 362.694C6931.41 356.839 6938.36 353.912 6946.78 353.912Z" fill="#fff"/>
</svg>
