<svg width="5012" height="521" viewBox="0 0 5012 521" fill="none" xmlns="http://www.w3.org/2000/svg">
<path d="M201.451 414.294C163.392 414.294 128.993 405.877 98.2531 389.043C67.8792 372.209 43.9094 348.971 26.3437 319.329C9.14402 289.321 0.544176 255.837 0.544176 218.876C0.544176 181.915 9.14402 148.613 26.3437 118.971C43.9094 88.9631 68.0621 65.5423 98.802 48.7085C129.542 31.8748 163.941 23.4579 202 23.4579C230.544 23.4579 256.893 28.2153 281.046 37.73C305.198 47.2447 325.692 61.1509 342.525 79.4484L316.726 105.248C286.718 74.874 248.842 59.687 203.098 59.687C172.724 59.687 145.095 66.6401 120.21 80.5462C95.3255 94.4524 75.7471 113.482 61.475 137.635C47.5689 161.787 40.6158 188.868 40.6158 218.876C40.6158 248.884 47.5689 275.964 61.475 300.117C75.7471 324.27 95.3255 343.299 120.21 357.205C145.095 371.111 172.724 378.064 203.098 378.064C249.208 378.064 287.084 362.694 316.726 331.955L342.525 357.754C325.692 376.052 305.015 390.141 280.497 400.021C256.344 409.536 229.995 414.294 201.451 414.294ZM526.038 413.745C498.226 413.745 473.158 407.523 450.835 395.081C428.512 382.273 410.947 364.707 398.138 342.384C385.33 320.061 378.926 294.811 378.926 266.632C378.926 238.454 385.33 213.203 398.138 190.88C410.947 168.557 428.512 151.175 450.835 138.732C473.158 126.29 498.226 120.069 526.038 120.069C553.851 120.069 578.918 126.29 601.241 138.732C623.564 151.175 640.947 168.557 653.389 190.88C666.198 213.203 672.602 238.454 672.602 266.632C672.602 294.811 666.198 320.061 653.389 342.384C640.947 364.707 623.564 382.273 601.241 395.081C578.918 407.523 553.851 413.745 526.038 413.745ZM526.038 379.162C546.532 379.162 564.829 374.588 580.931 365.439C597.399 355.924 610.207 342.567 619.356 325.367C628.505 308.168 633.079 288.589 633.079 266.632C633.079 244.675 628.505 225.097 619.356 207.897C610.207 190.698 597.399 177.523 580.931 168.374C564.829 158.86 546.532 154.102 526.038 154.102C505.545 154.102 487.065 158.86 470.597 168.374C454.495 177.523 441.687 190.698 432.172 207.897C423.023 225.097 418.449 244.675 418.449 266.632C418.449 288.589 423.023 308.168 432.172 325.367C441.687 342.567 454.495 355.924 470.597 365.439C487.065 374.588 505.545 379.162 526.038 379.162ZM899.283 120.069C935.512 120.069 964.239 130.682 985.464 151.907C1007.06 172.766 1017.85 203.323 1017.85 243.577V411H978.877V247.42C978.877 217.412 971.375 194.54 956.371 178.804C941.367 163.068 919.959 155.2 892.147 155.2C861.041 155.2 836.339 164.532 818.041 183.196C800.11 201.493 791.144 226.927 791.144 259.496V411H752.17V122.265H789.497V175.511C800.11 157.945 814.748 144.405 833.411 134.89C852.441 125.009 874.398 120.069 899.283 120.069ZM1201.06 413.745C1177.64 413.745 1155.13 410.451 1133.54 403.864C1112.32 396.911 1095.67 388.311 1083.59 378.064L1101.15 347.325C1113.23 356.839 1128.42 364.707 1146.72 370.928C1165.01 376.784 1184.04 379.711 1203.8 379.711C1230.15 379.711 1249.55 375.686 1261.99 367.635C1274.8 359.218 1281.2 347.508 1281.2 332.504C1281.2 321.891 1277.73 313.657 1270.77 307.802C1263.82 301.581 1255.04 297.006 1244.42 294.079C1233.81 290.785 1219.72 287.675 1202.16 284.747C1178.74 280.355 1159.89 275.964 1145.62 271.573C1131.35 266.815 1119.09 258.947 1108.84 247.969C1098.96 236.99 1094.02 221.803 1094.02 202.408C1094.02 178.255 1104.08 158.494 1124.21 143.124C1144.34 127.754 1172.33 120.069 1208.2 120.069C1226.86 120.069 1245.52 122.631 1264.19 127.754C1282.85 132.511 1298.22 138.915 1310.3 146.966L1293.28 178.255C1269.49 161.787 1241.13 153.553 1208.2 153.553C1183.31 153.553 1164.46 157.945 1151.66 166.728C1139.21 175.511 1132.99 187.038 1132.99 201.31C1132.99 212.289 1136.47 221.071 1143.42 227.659C1150.74 234.246 1159.71 239.186 1170.32 242.48C1180.93 245.407 1195.57 248.518 1214.23 251.811C1237.29 256.203 1255.77 260.594 1269.68 264.986C1283.58 269.377 1295.47 276.879 1305.36 287.492C1315.24 298.104 1320.18 312.742 1320.18 331.406C1320.18 356.656 1309.56 376.784 1288.34 391.788C1267.48 406.426 1238.39 413.745 1201.06 413.745ZM1510.25 413.745C1482.43 413.745 1457.37 407.523 1435.04 395.081C1412.72 382.273 1395.15 364.707 1382.35 342.384C1369.54 320.061 1363.13 294.811 1363.13 266.632C1363.13 238.454 1369.54 213.203 1382.35 190.88C1395.15 168.557 1412.72 151.175 1435.04 138.732C1457.37 126.29 1482.43 120.069 1510.25 120.069C1538.06 120.069 1563.13 126.29 1585.45 138.732C1607.77 151.175 1625.15 168.557 1637.6 190.88C1650.41 213.203 1656.81 238.454 1656.81 266.632C1656.81 294.811 1650.41 320.061 1637.6 342.384C1625.15 364.707 1607.77 382.273 1585.45 395.081C1563.13 407.523 1538.06 413.745 1510.25 413.745ZM1510.25 379.162C1530.74 379.162 1549.04 374.588 1565.14 365.439C1581.61 355.924 1594.42 342.567 1603.56 325.367C1612.71 308.168 1617.29 288.589 1617.29 266.632C1617.29 244.675 1612.71 225.097 1603.56 207.897C1594.42 190.698 1581.61 177.523 1565.14 168.374C1549.04 158.86 1530.74 154.102 1510.25 154.102C1489.75 154.102 1471.27 158.86 1454.8 168.374C1438.7 177.523 1425.89 190.698 1416.38 207.897C1407.23 225.097 1402.66 244.675 1402.66 266.632C1402.66 288.589 1407.23 308.168 1416.38 325.367C1425.89 342.567 1438.7 355.924 1454.8 365.439C1471.27 374.588 1489.75 379.162 1510.25 379.162ZM1736.38 3.69655H1775.35V411H1736.38V3.69655ZM2135.2 278.709H1893.68C1895.87 308.717 1907.4 333.052 1928.26 351.716C1949.12 370.013 1975.47 379.162 2007.3 379.162C2025.24 379.162 2041.7 376.052 2056.71 369.831C2071.71 363.243 2084.7 353.729 2095.68 341.286L2117.64 366.537C2104.83 381.907 2088.73 393.617 2069.33 401.668C2050.3 409.719 2029.26 413.745 2006.21 413.745C1976.56 413.745 1950.22 407.523 1927.16 395.081C1904.47 382.273 1886.72 364.707 1873.91 342.384C1861.11 320.061 1854.7 294.811 1854.7 266.632C1854.7 238.454 1860.74 213.203 1872.82 190.88C1885.26 168.557 1902.09 151.175 1923.32 138.732C1944.91 126.29 1969.06 120.069 1995.78 120.069C2022.49 120.069 2046.46 126.29 2067.69 138.732C2088.91 151.175 2105.56 168.557 2117.64 190.88C2129.71 212.838 2135.75 238.088 2135.75 266.632L2135.2 278.709ZM1995.78 153.553C1967.96 153.553 1944.54 162.519 1925.51 180.451C1906.85 198.017 1896.24 221.071 1893.68 249.616H2098.43C2095.86 221.071 2085.07 198.017 2066.04 180.451C2047.38 162.519 2023.95 153.553 1995.78 153.553ZM2218.92 413.745C2210.87 413.745 2203.92 410.817 2198.06 404.962C2192.57 399.107 2189.83 391.971 2189.83 383.554C2189.83 375.137 2192.57 368.184 2198.06 362.694C2203.92 356.839 2210.87 353.912 2218.92 353.912C2226.97 353.912 2233.93 356.839 2239.78 362.694C2245.64 368.184 2248.57 375.137 2248.57 383.554C2248.57 391.971 2245.64 399.107 2239.78 404.962C2233.93 410.817 2226.97 413.745 2218.92 413.745ZM2331.41 3.69655H2370.38V411H2331.41V3.69655ZM2596.84 413.745C2569.03 413.745 2543.96 407.523 2521.64 395.081C2499.32 382.273 2481.75 364.707 2468.94 342.384C2456.13 320.061 2449.73 294.811 2449.73 266.632C2449.73 238.454 2456.13 213.203 2468.94 190.88C2481.75 168.557 2499.32 151.175 2521.64 138.732C2543.96 126.29 2569.03 120.069 2596.84 120.069C2624.65 120.069 2649.72 126.29 2672.04 138.732C2694.37 151.175 2711.75 168.557 2724.19 190.88C2737 213.203 2743.41 238.454 2743.41 266.632C2743.41 294.811 2737 320.061 2724.19 342.384C2711.75 364.707 2694.37 382.273 2672.04 395.081C2649.72 407.523 2624.65 413.745 2596.84 413.745ZM2596.84 379.162C2617.34 379.162 2635.63 374.588 2651.73 365.439C2668.2 355.924 2681.01 342.567 2690.16 325.367C2699.31 308.168 2703.88 288.589 2703.88 266.632C2703.88 244.675 2699.31 225.097 2690.16 207.897C2681.01 190.698 2668.2 177.523 2651.73 168.374C2635.63 158.86 2617.34 154.102 2596.84 154.102C2576.35 154.102 2557.87 158.86 2541.4 168.374C2525.3 177.523 2512.49 190.698 2502.98 207.897C2493.83 225.097 2489.25 244.675 2489.25 266.632C2489.25 288.589 2493.83 308.168 2502.98 325.367C2512.49 342.567 2525.3 355.924 2541.4 365.439C2557.87 374.588 2576.35 379.162 2596.84 379.162ZM3090.3 122.265V375.869C3090.3 424.906 3078.22 461.135 3054.07 484.556C3030.29 508.343 2994.24 520.236 2945.93 520.236C2919.22 520.236 2893.79 516.211 2869.63 508.16C2845.85 500.475 2826.45 489.679 2811.45 475.773L2831.21 446.131C2845.11 458.574 2861.95 468.271 2881.71 475.224C2901.84 482.177 2922.88 485.654 2944.84 485.654C2981.43 485.654 3008.33 477.054 3025.53 459.854C3042.73 443.021 3051.33 416.672 3051.33 380.809V344.031C3039.25 362.329 3023.33 376.235 3003.57 385.749C2984.18 395.264 2962.58 400.021 2938.8 400.021C2911.72 400.021 2887.02 394.166 2864.69 382.456C2842.74 370.379 2825.35 353.729 2812.54 332.504C2800.1 310.912 2793.88 286.577 2793.88 259.496C2793.88 232.416 2800.1 208.263 2812.54 187.038C2825.35 165.813 2842.74 149.345 2864.69 137.635C2886.65 125.924 2911.35 120.069 2938.8 120.069C2963.32 120.069 2985.46 125.009 3005.22 134.89C3024.98 144.771 3040.9 159.043 3052.97 177.706V122.265H3090.3ZM2942.64 365.439C2963.5 365.439 2982.35 361.048 2999.18 352.265C3016.01 343.116 3029 330.491 3038.15 314.389C3047.67 298.287 3052.43 279.99 3052.43 259.496C3052.43 239.003 3047.67 220.888 3038.15 205.153C3029 189.051 3016.01 176.608 2999.18 167.826C2982.71 158.677 2963.86 154.102 2942.64 154.102C2921.78 154.102 2902.93 158.494 2886.1 167.277C2869.63 176.059 2856.64 188.502 2847.13 204.604C2837.98 220.705 2833.4 239.003 2833.4 259.496C2833.4 279.99 2837.98 298.287 2847.13 314.389C2856.64 330.491 2869.63 343.116 2886.1 352.265C2902.93 361.048 2921.78 365.439 2942.64 365.439ZM3265.71 517.492C3245.22 483.824 3229.48 445.216 3218.5 401.668C3207.52 357.754 3202.03 310.729 3202.03 260.594C3202.03 210.459 3207.52 163.434 3218.5 119.52C3229.48 75.24 3245.22 36.6321 3265.71 3.69655H3303.04C3281.44 40.6576 3265.53 80.3633 3255.28 122.814C3245.4 165.264 3240.46 211.191 3240.46 260.594C3240.46 309.998 3245.4 355.924 3255.28 398.375C3265.53 440.825 3281.44 480.531 3303.04 517.492H3265.71ZM3392.57 82.742C3398.79 84.5717 3403.55 88.0482 3406.84 93.1716C3410.5 97.9289 3412.33 103.784 3412.33 110.737C3412.33 119.52 3409.58 126.656 3404.09 132.145C3398.6 137.635 3391.83 140.379 3383.78 140.379C3375 140.379 3367.86 137.635 3362.38 132.145C3357.25 126.29 3354.69 119.154 3354.69 110.737C3354.69 106.346 3355.06 102.137 3355.79 98.1119C3356.89 93.7205 3358.9 87.4993 3361.83 79.4484L3384.88 3.69655H3411.23L3392.57 82.742ZM3485.88 82.742C3492.11 84.5717 3496.86 88.0482 3500.16 93.1716C3503.82 97.9289 3505.65 103.784 3505.65 110.737C3505.65 119.52 3502.9 126.656 3497.41 132.145C3491.92 137.635 3485.15 140.379 3477.1 140.379C3468.32 140.379 3461.18 137.635 3455.69 132.145C3450.57 126.29 3448.01 119.154 3448.01 110.737C3448.01 106.346 3448.37 102.137 3449.11 98.1119C3450.2 93.7205 3452.22 87.4993 3455.14 79.4484L3478.2 3.69655H3504.55L3485.88 82.742ZM3846.06 3.69655V411H3808.73V353.912C3797.02 373.307 3781.47 388.128 3762.07 398.375C3743.04 408.621 3721.45 413.745 3697.3 413.745C3670.22 413.745 3645.7 407.523 3623.74 395.081C3601.78 382.639 3584.58 365.256 3572.14 342.933C3559.7 320.61 3553.48 295.177 3553.48 266.632C3553.48 238.088 3559.7 212.655 3572.14 190.332C3584.58 168.009 3601.78 150.809 3623.74 138.732C3645.7 126.29 3670.22 120.069 3697.3 120.069C3720.72 120.069 3741.76 125.009 3760.42 134.89C3779.45 144.405 3795.01 158.494 3807.08 177.157V3.69655H3846.06ZM3700.59 379.162C3720.72 379.162 3738.83 374.588 3754.94 365.439C3771.4 355.924 3784.21 342.567 3793.36 325.367C3802.87 308.168 3807.63 288.589 3807.63 266.632C3807.63 244.675 3802.87 225.097 3793.36 207.897C3784.21 190.698 3771.4 177.523 3754.94 168.374C3738.83 158.86 3720.72 154.102 3700.59 154.102C3680.1 154.102 3661.62 158.86 3645.15 168.374C3629.05 177.523 3616.24 190.698 3606.73 207.897C3597.58 225.097 3593 244.675 3593 266.632C3593 288.589 3597.58 308.168 3606.73 325.367C3616.24 342.567 3629.05 355.924 3645.15 365.439C3661.62 374.588 3680.1 379.162 3700.59 379.162ZM4206.01 278.709H3964.48C3966.67 308.717 3978.2 333.052 3999.06 351.716C4019.92 370.013 4046.27 379.162 4078.11 379.162C4096.04 379.162 4112.51 376.052 4127.51 369.831C4142.51 363.243 4155.51 353.729 4166.48 341.286L4188.44 366.537C4175.63 381.907 4159.53 393.617 4140.14 401.668C4121.11 409.719 4100.06 413.745 4077.01 413.745C4047.37 413.745 4021.02 407.523 3997.96 395.081C3975.27 382.273 3957.53 364.707 3944.72 342.384C3931.91 320.061 3925.51 294.811 3925.51 266.632C3925.51 238.454 3931.54 213.203 3943.62 190.88C3956.06 168.557 3972.9 151.175 3994.12 138.732C4015.71 126.29 4039.87 120.069 4066.58 120.069C4093.29 120.069 4117.26 126.29 4138.49 138.732C4159.71 151.175 4176.36 168.557 4188.44 190.88C4200.52 212.838 4206.56 238.088 4206.56 266.632L4206.01 278.709ZM4066.58 153.553C4038.77 153.553 4015.35 162.519 3996.32 180.451C3977.65 198.017 3967.04 221.071 3964.48 249.616H4169.23C4166.67 221.071 4155.87 198.017 4136.84 180.451C4118.18 162.519 4094.76 153.553 4066.58 153.553ZM4523.15 122.265L4394.7 411H4354.63L4226.73 122.265H4267.35L4375.49 368.184L4484.72 122.265H4523.15ZM4592.08 0.951919C4600.49 0.951919 4607.45 3.87953 4612.94 9.73476C4618.43 15.224 4621.17 22.1771 4621.17 30.594C4621.17 34.9854 4620.44 39.7427 4618.98 44.866C4617.88 49.6234 4616.23 55.2956 4614.03 61.8828L4590.43 137.635H4564.08L4583.3 58.5892C4577.07 56.7595 4572.13 53.4659 4568.47 48.7085C4564.81 43.5852 4562.98 37.547 4562.98 30.594C4562.98 21.8111 4565.73 14.6751 4571.22 9.18581C4576.71 3.69655 4583.66 0.951919 4592.08 0.951919ZM4685.4 0.951919C4693.81 0.951919 4700.77 3.87953 4706.25 9.73476C4711.74 15.224 4714.49 22.1771 4714.49 30.594C4714.49 34.9854 4713.76 39.7427 4712.29 44.866C4711.19 49.6234 4709.55 55.2956 4707.35 61.8828L4683.75 137.635H4657.4L4676.61 58.5892C4670.39 56.7595 4665.45 53.4659 4661.79 48.7085C4658.13 43.5852 4656.3 37.547 4656.3 30.594C4656.3 21.8111 4659.05 14.6751 4664.54 9.18581C4670.03 3.69655 4676.98 0.951919 4685.4 0.951919ZM4764.9 517.492C4786.49 480.531 4802.41 441.008 4812.66 398.924C4822.9 356.473 4828.03 310.363 4828.03 260.594C4828.03 210.825 4822.9 164.898 4812.66 122.814C4802.41 80.3633 4786.49 40.6576 4764.9 3.69655H4802.23C4822.72 36.6321 4838.46 75.24 4849.43 119.52C4860.78 163.434 4866.45 210.459 4866.45 260.594C4866.45 310.729 4860.96 357.754 4849.98 401.668C4839.01 445.582 4823.09 484.19 4802.23 517.492H4764.9ZM4981.78 179.902C4973.73 179.902 4966.78 176.974 4960.92 171.119C4955.43 165.264 4952.69 158.128 4952.69 149.711C4952.69 141.294 4955.43 134.341 4960.92 128.852C4966.78 122.997 4973.73 120.069 4981.78 120.069C4989.83 120.069 4996.79 122.997 5002.64 128.852C5008.5 134.341 5011.42 141.294 5011.42 149.711C5011.42 158.128 5008.5 165.264 5002.64 171.119C4996.79 176.974 4989.83 179.902 4981.78 179.902ZM4982.33 353.912C4990.75 353.912 4997.7 356.839 5003.19 362.694C5008.68 368.184 5011.42 375.137 5011.42 383.554C5011.42 387.945 5010.69 392.702 5009.23 397.826C5008.13 402.949 5006.3 408.804 5003.74 415.391L4980.68 491.143H4954.34L4973 411.549C4967.14 409.719 4962.39 406.426 4958.73 401.668C4955.07 396.545 4953.24 390.507 4953.24 383.554C4953.24 375.137 4955.98 368.184 4961.47 362.694C4966.96 356.839 4973.91 353.912 4982.33 353.912Z" fill="#fff"/>
</svg>
