<svg viewBox="0 0 350 92.21007794874619" preserveAspectRatio="xMidYMid meet" class="css-g5ufxp" id="hdccffdd"><defs id="SvgjsDefs1816"></defs><g id="SvgjsG1817" featurekey="nameFeature-0" transform="matrix(2.2827475691767773,0,0,2.2827475691767773,-0.000004353995455125384,-24.10581528838577)" fill="#111"><path d="M24.2 34.4 c1.08 2.56 2.16 5.4 4.68 5.4 l0 0.2 l-11.84 0 l0 -0.2 c1.96 0 2.24 -0.76 1.12 -3.68 c-0.4 -1.12 -1.44 -3.84 -2.56 -6.8 l-7.72 0 c-0.6 1.52 -1 2.56 -1.12 2.84 c-1.24 3.36 -0.92 7.64 1.76 7.64 l0 0.2 l-8.52 0 l0 -0.2 c2.56 -0.48 4.44 -2.24 6 -6.2 c1.36 -3.48 8.44 -21.6 8.44 -21.6 l0.88 0 s7.84 19.84 8.88 22.4 z M7.92 29.16 l7.6 0 c-1.68 -4.36 -3.48 -9.12 -3.76 -9.8 c-1.32 3.36 -2.8 7.2 -3.84 9.8 z M49.494 35.4 l0 0.04 c0 3.24 0.4 4.36 2.52 4.36 l0 0.2 l-11.04 0 l0 -0.2 c2.12 0 2.48 -1.16 2.52 -4.4 l0 -8.96 c0 -2.72 0.16 -6.2 -2.72 -6.2 c-1.6 0 -3.36 1.16 -4.28 2.96 c-0.08 0.88 -0.08 1.92 -0.08 3.24 l0 8.96 c0 3.24 0.36 4.4 2.52 4.4 l0 0.2 l-11.08 0 l0 -0.2 c2.16 0 2.52 -1.16 2.52 -4.4 l0 -10.6 c0 -3.28 -0.36 -4.36 -2.52 -4.36 l0 -0.2 l9.24 0 l0 0.2 c-0.24 0.12 -0.48 0.84 -0.6 2.36 c1.24 -1.84 2.76 -2.96 5.92 -2.96 c4.28 0 7.08 2.24 7.08 7.36 l0 8.2 z M61.748 40.08 c0.8 0 1.48 -0.28 1.76 -0.4 l0 0.2 c-0.6 0.32 -1.36 0.52 -2.52 0.52 c-2.72 0 -7.36 -0.4 -7.36 -6.32 l0 -13.64 l-1.84 0 l0 -0.2 l1.84 0 l0 -1.48 c2.12 0 5.04 -0.88 5.8 -3.4 l0.08 0 l0.12 0 l0 4.88 l3.56 0 l0 0.2 l-3.56 0 l0 14.44 c0 2.68 0.2 5.2 2.12 5.2 z M84.68199999999999 35.4 l0 0.04 c0.04 3.24 0.4 4.36 2.52 4.36 l0 0.2 l-11.04 0 l0 -0.2 c2.12 0 2.52 -1.16 2.52 -4.4 l0 -8.96 c0 -2.72 0.2 -6.2 -2.72 -6.2 c-1.64 0 -3.44 1.24 -4.36 3.16 l0 12 c0 3.24 0.4 4.4 2.52 4.4 l0 0.2 l-11.04 0 l0 -0.2 c2.12 0 2.48 -1.16 2.52 -4.4 l0 -20.28 c-0.04 -2.92 -0.24 -4.36 -2.52 -4.36 l0 -0.2 l9.2 0 l0 0.2 c-0.4 0.2 -0.68 1.96 -0.68 6 l0 6.24 c1.28 -1.96 2.76 -3.16 6.04 -3.16 c4.24 0 7.04 2.24 7.04 7.36 l0 8.2 z M110.21599999999998 29.119999999999997 c0.36 6.64 -4.8 10.88 -10.16 11.24 c-5.36 0.4 -12.08 -2.2 -12.64 -9.28 c-0.52 -6.8 4.44 -10.56 10.08 -11.2 c5.68 -0.6 12.36 2.52 12.72 9.24 z M100.05599999999998 40.2 c3.36 -0.32 4.32 -5.44 3.84 -10.76 c-0.52 -5.68 -3.04 -9.68 -6.36 -9.4 c-3.32 0.32 -4.4 5.52 -3.84 10.8 c0.6 5.52 3 9.68 6.36 9.36 z M132.07 35.4 l0 0.04 c0 3.24 0.4 4.36 2.52 4.36 l0 0.2 l-11.04 0 l0 -0.2 c2.12 0 2.48 -1.16 2.52 -4.4 l0 -8.96 c0 -2.72 0.16 -6.2 -2.72 -6.2 c-1.6 0 -3.36 1.16 -4.28 2.96 c-0.08 0.88 -0.08 1.92 -0.08 3.24 l0 8.96 c0 3.24 0.36 4.4 2.52 4.4 l0 0.2 l-11.08 0 l0 -0.2 c2.16 0 2.52 -1.16 2.52 -4.4 l0 -10.6 c0 -3.28 -0.36 -4.36 -2.52 -4.36 l0 -0.2 l9.24 0 l0 0.2 c-0.24 0.12 -0.48 0.84 -0.6 2.36 c1.24 -1.84 2.76 -2.96 5.92 -2.96 c4.28 0 7.08 2.24 7.08 7.36 l0 8.2 z M147.324 20.24 l6 0 l0 0.2 c-1.8 0.36 -3.16 1.88 -4.12 4.32 c-0.56 1.52 -4.88 13.68 -5.48 15.24 c-1.96 5.32 -4.36 8.52 -6.92 8.68 c-1.36 0.08 -2.84 -0.64 -3.08 -2.2 c-0.16 -1.44 1.68 -2.44 2.92 -1.44 c0.96 0.76 0.76 3.84 2.52 2.44 c1.44 -1.2 3.2 -4.08 4.36 -7.48 l-0.64 0 s-6.32 -13.88 -7.2 -15.8 c-0.8 -1.8 -1.52 -3.76 -3.32 -3.76 l0 -0.2 l9.24 0 l0 0.2 c-1.36 0 -1.48 0.64 -0.64 2.68 c0.76 1.88 4.2 9.76 4.68 10.96 c1.72 -4.72 2.84 -7.76 3.04 -8.28 c0.76 -2.08 0.52 -5.36 -1.36 -5.36 l0 -0.2 z"></path></g><g id="SvgjsG1818" featurekey="sloganFeature-0" transform="matrix(1.016429781860995,0,0,1.016429781860995,-0.19850908264676387,66.91805465272027)" fill="#111"><path d="M7.1191 7.246 c-0.92773 0 -2.1582 -0.039063 -2.1582 1.6406 l0 1.0742 l2.1582 0 l0 2.1582 l-2.1582 0 l0 7.8809 l-2.8027 0 l0 -7.8809 l-1.9629 0 l0 -2.1582 l1.9629 0 l0 -1.084 c0 -3.3887 2.0508 -3.877 4.9609 -3.877 l0 2.2461 z M9.963388281250001 11.5527 c0.50781 -0.88867 1.8262 -1.709 3.2813 -1.709 l0 2.5098 c-2.1289 0 -3.1445 0.625 -3.1445 2.7539 l0 4.8926 l-2.832 0 l0 -10.039 l2.6953 0 l0 1.5918 z M18.1298703125 20.19531 c-3.1934 0 -5.498 -1.9434 -5.498 -5.2246 c0 -3.2617 2.2852 -5.2051 5.498 -5.2051 c3.2324 0 5.5078 1.9434 5.5078 5.2051 c0 3.2813 -2.2852 5.2246 -5.5078 5.2246 z M18.1005703125 17.959 c1.6309 0 2.7441 -1.1914 2.7441 -2.9883 s-1.1133 -2.9883 -2.7441 -2.9883 c-1.5723 0 -2.6758 1.1914 -2.6758 2.9883 s1.1035 2.9883 2.6758 2.9883 z M30.21238984375 9.766 c2.4121 0 3.7402 1.25 3.7402 3.4766 l0 6.7578 l-2.8223 0 l0 -6.1523 c0 -1.3379 -0.83008 -1.8262 -1.7969 -1.8262 c-1.1621 0 -2.2168 0.58594 -2.2363 2.4414 l0 5.5371 l-2.8125 0 l0 -10.039 l2.8125 0 l0 1.1133 c0.70313 -0.83008 1.7871 -1.3086 3.1152 -1.3086 z M38.974596875 20 c-1.9531 0 -3.0664 -1.1328 -3.0664 -3.1348 l0 -4.7461 l-1.9727 0 l0 -2.1582 l0.63477 0 c1.0645 0 1.6504 -0.41016 1.6504 -1.9141 l0 -1.3281 l2.5391 0 l0 3.2422 l2.0703 0 l0 2.1582 l-2.0703 0 l0 4.4434 c0 0.89844 0.43945 1.2988 1.1621 1.2988 l0.9082 0 l0 2.1387 l-1.8555 0 z M51.007863281249996 14.834 l-0.029297 0.67383 l-7.4414 0 c0.11719 1.6699 1.2305 2.4707 2.5684 2.4707 c1.0059 0 1.7871 -0.46875 2.168 -1.3574 l2.5781 0.38086 c-0.66406 2.0313 -2.4707 3.1934 -4.7266 3.1934 c-3.2422 0 -5.3613 -1.9141 -5.3613 -5.2148 s2.1777 -5.2344 5.2734 -5.2344 c2.8418 0 4.9609 1.5723 4.9707 5.0879 z M46.05716328125 11.7383 c-1.2793 0 -2.168 0.5957 -2.4414 1.9336 l4.6094 0 c-0.14648 -1.2793 -1.0156 -1.9336 -2.168 -1.9336 z M57.6318234375 9.766 c2.4121 0 3.7402 1.25 3.7402 3.4766 l0 6.7578 l-2.8223 0 l0 -6.1523 c0 -1.3379 -0.83008 -1.8262 -1.7969 -1.8262 c-1.1621 0 -2.2168 0.58594 -2.2363 2.4414 l0 5.5371 l-2.8125 0 l0 -10.039 l2.8125 0 l0 1.1133 c0.70313 -0.83008 1.7871 -1.3086 3.1152 -1.3086 z M69.77293046875 5 l2.8125 0 l0 15 l-2.666 0 l-0.068359 -1.3086 c-0.57617 0.98633 -1.7871 1.543 -3.1543 1.543 c-2.6465 0 -4.834 -1.9531 -4.834 -5.2344 s2.1973 -5.2344 4.834 -5.2344 c1.3184 0 2.4805 0.49805 3.0762 1.4063 l0 -6.1719 z M67.34133046875 17.9004 c1.4941 0 2.6563 -1.1426 2.6563 -2.9004 s-1.1719 -2.9102 -2.6563 -2.9102 c-1.4941 0 -2.666 1.1035 -2.666 2.9102 c0 1.7969 1.1719 2.9004 2.666 2.9004 z M90.44209765625 9.961 l2.9102 0 l-3.5156 10.049 l-2.6074 0 l-2.3242 -6.6309 l-2.3438 6.6309 l-2.6465 0 l-3.4473 -10.049 l2.9004 0 l2.0703 6.5332 l2.373 -6.5332 l2.1582 0 l2.3633 6.5137 z M102.9146015625 14.834 l-0.029297 0.67383 l-7.4414 0 c0.11719 1.6699 1.2305 2.4707 2.5684 2.4707 c1.0059 0 1.7871 -0.46875 2.168 -1.3574 l2.5781 0.38086 c-0.66406 2.0313 -2.4707 3.1934 -4.7266 3.1934 c-3.2422 0 -5.3613 -1.9141 -5.3613 -5.2148 s2.1777 -5.2344 5.2734 -5.2344 c2.8418 0 4.9609 1.5723 4.9707 5.0879 z M97.9639015625 11.7383 c-1.2793 0 -2.168 0.5957 -2.4414 1.9336 l4.6094 0 c-0.14648 -1.2793 -1.0156 -1.9336 -2.168 -1.9336 z M109.50926171875 9.766 c2.6367 0 4.8242 1.9531 4.8242 5.2344 s-2.1875 5.2344 -4.8242 5.2344 c-1.3867 0 -2.5977 -0.55664 -3.1641 -1.543 l-0.068359 1.3086 l-2.666 0 l0 -15 l2.8125 0 l0 6.1816 c0.58594 -0.9082 1.7578 -1.416 3.0859 -1.416 z M108.85496171875 17.9004 c1.4941 0 2.666 -1.1035 2.666 -2.9004 c0 -1.8066 -1.1719 -2.9102 -2.666 -2.9102 c-1.4844 0 -2.6563 1.1523 -2.6563 2.9102 s1.1621 2.9004 2.6563 2.9004 z M122.1288875 5 l2.8125 0 l0 15 l-2.666 0 l-0.068359 -1.3086 c-0.57617 0.98633 -1.7871 1.543 -3.1543 1.543 c-2.6465 0 -4.834 -1.9531 -4.834 -5.2344 s2.1973 -5.2344 4.834 -5.2344 c1.3184 0 2.4805 0.49805 3.0762 1.4063 l0 -6.1719 z M119.6972875 17.9004 c1.4941 0 2.6563 -1.1426 2.6563 -2.9004 s-1.1719 -2.9102 -2.6563 -2.9102 c-1.4941 0 -2.666 1.1035 -2.666 2.9102 c0 1.7969 1.1719 2.9004 2.666 2.9004 z M135.85161328125 14.834 l-0.029297 0.67383 l-7.4414 0 c0.11719 1.6699 1.2305 2.4707 2.5684 2.4707 c1.0059 0 1.7871 -0.46875 2.168 -1.3574 l2.5781 0.38086 c-0.66406 2.0313 -2.4707 3.1934 -4.7266 3.1934 c-3.2422 0 -5.3613 -1.9141 -5.3613 -5.2148 s2.1777 -5.2344 5.2734 -5.2344 c2.8418 0 4.9609 1.5723 4.9707 5.0879 z M130.90091328125 11.7383 c-1.2793 0 -2.168 0.5957 -2.4414 1.9336 l4.6094 0 c-0.14648 -1.2793 -1.0156 -1.9336 -2.168 -1.9336 z M143.0810734375 9.961 l2.9785 0 l-4.2773 10.039 l-2.4414 0 l-4.2285 -10.039 l2.959 0 l2.5 6.8652 z M155.53423046875 14.834 l-0.029297 0.67383 l-7.4414 0 c0.11719 1.6699 1.2305 2.4707 2.5684 2.4707 c1.0059 0 1.7871 -0.46875 2.168 -1.3574 l2.5781 0.38086 c-0.66406 2.0313 -2.4707 3.1934 -4.7266 3.1934 c-3.2422 0 -5.3613 -1.9141 -5.3613 -5.2148 s2.1777 -5.2344 5.2734 -5.2344 c2.8418 0 4.9609 1.5723 4.9707 5.0879 z M150.58353046875 11.7383 c-1.2793 0 -2.168 0.5957 -2.4414 1.9336 l4.6094 0 c-0.14648 -1.2793 -1.0156 -1.9336 -2.168 -1.9336 z M156.230490625 20 l0 -15 l2.8418 0 l0 15 l-2.8418 0 z M169.98247265625 14.834 l-0.029297 0.67383 l-7.4414 0 c0.11719 1.6699 1.2305 2.4707 2.5684 2.4707 c1.0059 0 1.7871 -0.46875 2.168 -1.3574 l2.5781 0.38086 c-0.66406 2.0313 -2.4707 3.1934 -4.7266 3.1934 c-3.2422 0 -5.3613 -1.9141 -5.3613 -5.2148 s2.1777 -5.2344 5.2734 -5.2344 c2.8418 0 4.9609 1.5723 4.9707 5.0879 z M165.03177265625 11.7383 c-1.2793 0 -2.168 0.5957 -2.4414 1.9336 l4.6094 0 c-0.14648 -1.2793 -1.0156 -1.9336 -2.168 -1.9336 z M175.3564328125 20.19531 c-3.1934 0 -5.498 -1.9434 -5.498 -5.2246 c0 -3.2617 2.2852 -5.2051 5.498 -5.2051 c3.2324 0 5.5078 1.9434 5.5078 5.2051 c0 3.2813 -2.2852 5.2246 -5.5078 5.2246 z M175.3271328125 17.959 c1.6309 0 2.7441 -1.1914 2.7441 -2.9883 s-1.1133 -2.9883 -2.7441 -2.9883 c-1.5723 0 -2.6758 1.1914 -2.6758 2.9883 s1.1035 2.9883 2.6758 2.9883 z M193.40615234375 9.766 c2.1484 0 3.5352 1.0938 3.5352 3.1543 l0 7.0801 l-2.8125 0 l0 -6.2793 c0 -1.1816 -0.74219 -1.6992 -1.582 -1.6992 c-1.0059 0 -1.8945 0.57617 -1.8945 2.3145 l0 5.6641 l-2.8418 0 l0 -6.25 c0 -1.2012 -0.72266 -1.7285 -1.6113 -1.7285 c-0.97656 0 -1.8848 0.57617 -1.8848 2.4609 l0 5.5176 l-2.8027 0 l0 -10.039 l2.8027 0 l0 1.1816 c0.66406 -0.88867 1.6797 -1.377 2.9102 -1.377 c1.4551 0 2.5488 0.52734 3.0762 1.5039 c0.70313 -1.0059 1.7773 -1.5039 3.1055 -1.5039 z M204.12114375 9.766 c2.6465 0 4.834 1.9434 4.834 5.2344 s-2.1875 5.2344 -4.834 5.2344 c-1.3086 0 -2.4805 -0.50781 -3.0762 -1.4258 l0 6.0742 l-2.8125 0 l0 -14.922 l2.666 0 l0.078125 1.3477 c0.55664 -0.99609 1.7773 -1.543 3.1445 -1.543 z M203.48634375 17.9004 c1.4746 0 2.6563 -1.0742 2.6563 -2.9004 s-1.1816 -2.9004 -2.6563 -2.9004 c-1.5039 0 -2.6758 1.1426 -2.6758 2.9004 s1.1719 2.9004 2.6758 2.9004 z M219.07426953125 14.834 l-0.029297 0.67383 l-7.4414 0 c0.11719 1.6699 1.2305 2.4707 2.5684 2.4707 c1.0059 0 1.7871 -0.46875 2.168 -1.3574 l2.5781 0.38086 c-0.66406 2.0313 -2.4707 3.1934 -4.7266 3.1934 c-3.2422 0 -5.3613 -1.9141 -5.3613 -5.2148 s2.1777 -5.2344 5.2734 -5.2344 c2.8418 0 4.9609 1.5723 4.9707 5.0879 z M214.12356953125 11.7383 c-1.2793 0 -2.168 0.5957 -2.4414 1.9336 l4.6094 0 c-0.14648 -1.2793 -1.0156 -1.9336 -2.168 -1.9336 z M225.6982296875 9.766 c2.4121 0 3.7402 1.25 3.7402 3.4766 l0 6.7578 l-2.8223 0 l0 -6.1523 c0 -1.3379 -0.83008 -1.8262 -1.7969 -1.8262 c-1.1621 0 -2.2168 0.58594 -2.2363 2.4414 l0 5.5371 l-2.8125 0 l0 -10.039 l2.8125 0 l0 1.1133 c0.70313 -0.83008 1.7871 -1.3086 3.1152 -1.3086 z M234.46043671875 20 c-1.9531 0 -3.0664 -1.1328 -3.0664 -3.1348 l0 -4.7461 l-1.9727 0 l0 -2.1582 l0.63477 0 c1.0645 0 1.6504 -0.41016 1.6504 -1.9141 l0 -1.3281 l2.5391 0 l0 3.2422 l2.0703 0 l0 2.1582 l-2.0703 0 l0 4.4434 c0 0.89844 0.43945 1.2988 1.1621 1.2988 l0.9082 0 l0 2.1387 l-1.8555 0 z"></path></g></svg>