<svg width="2972" height="492" viewBox="0 0 2972 492" fill="none" xmlns="http://www.w3.org/2000/svg">
<path d="M272.296 375.869V411H0.57762V26.7515H264.062V61.8828H41.1982V198.565H239.91V233.148H41.1982V375.869H272.296ZM474.923 413.745C446.379 413.745 420.762 407.523 398.073 395.081C375.75 382.639 358.185 365.256 345.376 342.933C332.568 320.244 326.164 294.811 326.164 266.632C326.164 238.454 332.568 213.203 345.376 190.88C358.185 168.557 375.75 151.175 398.073 138.732C420.762 126.29 446.379 120.069 474.923 120.069C499.808 120.069 521.948 125.009 541.343 134.89C561.104 144.405 576.657 158.494 588.002 177.157L558.909 196.919C549.394 182.647 537.318 172.034 522.68 165.081C508.042 157.762 492.123 154.102 474.923 154.102C454.064 154.102 435.217 158.86 418.384 168.374C401.916 177.523 388.925 190.698 379.41 207.897C370.261 225.097 365.687 244.675 365.687 266.632C365.687 288.955 370.261 308.717 379.41 325.916C388.925 342.75 401.916 355.924 418.384 365.439C435.217 374.588 454.064 379.162 474.923 379.162C492.123 379.162 508.042 375.686 522.68 368.733C537.318 361.78 549.394 351.167 558.909 336.895L588.002 356.656C576.657 375.32 561.104 389.592 541.343 399.473C521.582 408.987 499.442 413.745 474.923 413.745ZM807.388 120.069C843.617 120.069 872.344 130.682 893.569 151.907C915.161 172.766 925.956 203.323 925.956 243.577V411H886.982V247.42C886.982 217.412 879.48 194.54 864.476 178.804C849.472 163.068 828.064 155.2 800.252 155.2C769.146 155.2 744.444 164.532 726.147 183.196C708.215 201.493 699.25 226.927 699.25 259.496V411H660.276V3.69655H699.25V172.766C709.862 155.932 724.5 142.941 743.164 133.792C761.827 124.643 783.235 120.069 807.388 120.069ZM1150.86 413.745C1123.05 413.745 1097.98 407.523 1075.65 395.081C1053.33 382.273 1035.77 364.707 1022.96 342.384C1010.15 320.061 1003.75 294.811 1003.75 266.632C1003.75 238.454 1010.15 213.203 1022.96 190.88C1035.77 168.557 1053.33 151.175 1075.65 138.732C1097.98 126.29 1123.05 120.069 1150.86 120.069C1178.67 120.069 1203.74 126.29 1226.06 138.732C1248.38 151.175 1265.77 168.557 1278.21 190.88C1291.02 213.203 1297.42 238.454 1297.42 266.632C1297.42 294.811 1291.02 320.061 1278.21 342.384C1265.77 364.707 1248.38 382.273 1226.06 395.081C1203.74 407.523 1178.67 413.745 1150.86 413.745ZM1150.86 379.162C1171.35 379.162 1189.65 374.588 1205.75 365.439C1222.22 355.924 1235.03 342.567 1244.17 325.367C1253.32 308.168 1257.9 288.589 1257.9 266.632C1257.9 244.675 1253.32 225.097 1244.17 207.897C1235.03 190.698 1222.22 177.523 1205.75 168.374C1189.65 158.86 1171.35 154.102 1150.86 154.102C1130.36 154.102 1111.88 158.86 1095.42 168.374C1079.31 177.523 1066.51 190.698 1056.99 207.897C1047.84 225.097 1043.27 244.675 1043.27 266.632C1043.27 288.589 1047.84 308.168 1056.99 325.367C1066.51 342.567 1079.31 355.924 1095.42 365.439C1111.88 374.588 1130.36 379.162 1150.86 379.162ZM1533.28 82.742C1539.5 84.5717 1544.26 88.0482 1547.55 93.1716C1551.21 97.9289 1553.04 103.784 1553.04 110.737C1553.04 119.52 1550.3 126.656 1544.81 132.145C1539.32 137.635 1532.55 140.379 1524.5 140.379C1515.71 140.379 1508.58 137.635 1503.09 132.145C1497.96 126.29 1495.4 119.154 1495.4 110.737C1495.4 106.346 1495.77 102.137 1496.5 98.1119C1497.6 93.7205 1499.61 87.4993 1502.54 79.4484L1525.59 3.69655H1551.94L1533.28 82.742ZM1626.6 82.742C1632.82 84.5717 1637.57 88.0482 1640.87 93.1716C1644.53 97.9289 1646.36 103.784 1646.36 110.737C1646.36 119.52 1643.61 126.656 1638.12 132.145C1632.63 137.635 1625.86 140.379 1617.81 140.379C1609.03 140.379 1601.89 137.635 1596.41 132.145C1591.28 126.29 1588.72 119.154 1588.72 110.737C1588.72 106.346 1589.09 102.137 1589.82 98.1119C1590.92 93.7205 1592.93 87.4993 1595.86 79.4484L1618.91 3.69655H1645.26L1626.6 82.742ZM1986.77 3.69655V411H1949.44V353.912C1937.73 373.307 1922.18 388.128 1902.78 398.375C1883.75 408.621 1862.16 413.745 1838.01 413.745C1810.93 413.745 1786.41 407.523 1764.45 395.081C1742.5 382.639 1725.3 365.256 1712.86 342.933C1700.41 320.61 1694.19 295.177 1694.19 266.632C1694.19 238.088 1700.41 212.655 1712.86 190.332C1725.3 168.009 1742.5 150.809 1764.45 138.732C1786.41 126.29 1810.93 120.069 1838.01 120.069C1861.43 120.069 1882.47 125.009 1901.14 134.89C1920.17 144.405 1935.72 158.494 1947.8 177.157V3.69655H1986.77ZM1841.3 379.162C1861.43 379.162 1879.55 374.588 1895.65 365.439C1912.12 355.924 1924.92 342.567 1934.07 325.367C1943.59 308.168 1948.34 288.589 1948.34 266.632C1948.34 244.675 1943.59 225.097 1934.07 207.897C1924.92 190.698 1912.12 177.523 1895.65 168.374C1879.55 158.86 1861.43 154.102 1841.3 154.102C1820.81 154.102 1802.33 158.86 1785.86 168.374C1769.76 177.523 1756.95 190.698 1747.44 207.897C1738.29 225.097 1733.71 244.675 1733.71 266.632C1733.71 288.589 1738.29 308.168 1747.44 325.367C1756.95 342.567 1769.76 355.924 1785.86 365.439C1802.33 374.588 1820.81 379.162 1841.3 379.162ZM2346.72 278.709H2105.19C2107.39 308.717 2118.91 333.052 2139.77 351.716C2160.63 370.013 2186.98 379.162 2218.82 379.162C2236.75 379.162 2253.22 376.052 2268.22 369.831C2283.23 363.243 2296.22 353.729 2307.2 341.286L2329.15 366.537C2316.35 381.907 2300.24 393.617 2280.85 401.668C2261.82 409.719 2240.78 413.745 2217.72 413.745C2188.08 413.745 2161.73 407.523 2138.68 395.081C2115.99 382.273 2098.24 364.707 2085.43 342.384C2072.62 320.061 2066.22 294.811 2066.22 266.632C2066.22 238.454 2072.26 213.203 2084.33 190.88C2096.77 168.557 2113.61 151.175 2134.83 138.732C2156.42 126.29 2180.58 120.069 2207.29 120.069C2234.01 120.069 2257.98 126.29 2279.2 138.732C2300.43 151.175 2317.08 168.557 2329.15 190.88C2341.23 212.838 2347.27 238.088 2347.27 266.632L2346.72 278.709ZM2207.29 153.553C2179.48 153.553 2156.06 162.519 2137.03 180.451C2118.37 198.017 2107.75 221.071 2105.19 249.616H2309.94C2307.38 221.071 2296.58 198.017 2277.55 180.451C2258.89 162.519 2235.47 153.553 2207.29 153.553ZM2663.86 122.265L2535.41 411H2495.34L2367.44 122.265H2408.06L2516.2 368.184L2625.44 122.265H2663.86ZM2732.79 0.951919C2741.21 0.951919 2748.16 3.87953 2753.65 9.73476C2759.14 15.224 2761.88 22.1771 2761.88 30.594C2761.88 34.9854 2761.15 39.7427 2759.69 44.866C2758.59 49.6234 2756.94 55.2956 2754.75 61.8828L2731.14 137.635H2704.8L2724.01 58.5892C2717.79 56.7595 2712.85 53.4659 2709.19 48.7085C2705.53 43.5852 2703.7 37.547 2703.7 30.594C2703.7 21.8111 2706.44 14.6751 2711.93 9.18581C2717.42 3.69655 2724.37 0.951919 2732.79 0.951919ZM2826.11 0.951919C2834.52 0.951919 2841.48 3.87953 2846.97 9.73476C2852.46 15.224 2855.2 22.1771 2855.2 30.594C2855.2 34.9854 2854.47 39.7427 2853.01 44.866C2851.91 49.6234 2850.26 55.2956 2848.06 61.8828L2824.46 137.635H2798.11L2817.32 58.5892C2811.1 56.7595 2806.16 53.4659 2802.5 48.7085C2798.84 43.5852 2797.01 37.547 2797.01 30.594C2797.01 21.8111 2799.76 14.6751 2805.25 9.18581C2810.74 3.69655 2817.69 0.951919 2826.11 0.951919ZM2941.84 179.902C2933.79 179.902 2926.84 176.974 2920.98 171.119C2915.49 165.264 2912.75 158.128 2912.75 149.711C2912.75 141.294 2915.49 134.341 2920.98 128.852C2926.84 122.997 2933.79 120.069 2941.84 120.069C2949.89 120.069 2956.85 122.997 2962.7 128.852C2968.56 134.341 2971.48 141.294 2971.48 149.711C2971.48 158.128 2968.56 165.264 2962.7 171.119C2956.85 176.974 2949.89 179.902 2941.84 179.902ZM2942.39 353.912C2950.81 353.912 2957.76 356.839 2963.25 362.694C2968.74 368.184 2971.48 375.137 2971.48 383.554C2971.48 387.945 2970.75 392.702 2969.29 397.826C2968.19 402.949 2966.36 408.804 2963.8 415.391L2940.74 491.143H2914.4L2933.06 411.549C2927.2 409.719 2922.45 406.426 2918.79 401.668C2915.13 396.545 2913.3 390.507 2913.3 383.554C2913.3 375.137 2916.04 368.184 2921.53 362.694C2927.02 356.839 2933.97 353.912 2942.39 353.912Z" fill="#fff"/>
</svg>
