<svg width="950" height="951" viewBox="0 0 950 951" fill="none" xmlns="http://www.w3.org/2000/svg">
<g id="projects">
<rect id="Rectangle 385" y="0.998047" width="950" height="950" fill="#43ACF2"/>
<path id="P" d="M557.148 563.136L557.243 563.101L557.337 563.066C590.442 550.77 619.372 532.369 643.857 507.885C663.884 487.858 679.331 464.315 690.198 437.493C701.45 410.14 706.96 380.777 706.96 349.659C706.96 309.863 699.792 274.904 683.899 246.113C668.814 218.276 647.398 195.197 620.137 176.917L620.11 176.898L620.083 176.88C596.959 161.464 570.765 150.427 541.785 143.559C512.803 136.405 478.391 133.04 438.965 133.04H266H242.04V157V794.488V818.448H266H308.385H350.77H374.73V794.488V580.835H435.54C482.886 580.835 523.698 575.241 557.148 563.136ZM495.685 259.129L495.905 259.18L496.127 259.226C511.232 262.393 524.114 267.632 535.079 274.702C547.217 282.662 555.866 292.598 561.592 304.687C567.482 317.121 570.845 332.602 570.845 351.8C570.845 368.217 568.36 382.271 563.825 394.288L563.755 394.475L563.688 394.662C559.644 405.942 552.364 417.461 540.957 429.133C530.878 439.18 517.262 447.164 499.15 452.497C480.669 457.65 455.292 460.561 422.268 460.561H374.73V253.742H434.684C460.513 253.742 480.672 255.683 495.685 259.129Z" fill="white" stroke="white" stroke-width="47.9197"/>
</g>
</svg>
