<svg width="2532" height="1900" viewBox="0 0 2532 1900" fill="none" xmlns="http://www.w3.org/2000/svg">
<g id="UK">
<path id="blue" d="M0 0.75H2532V1899.75H0V0.75Z" fill="#41479B"/>
<path id="whiteX" d="M2532 1652.49L1595.69 950.252L2532 248.016V0.75H2202.31L1266 702.986L329.687 0.75H0V248.016L936.313 950.252L0 1652.49V1899.75H329.692L1266 1197.52L2202.31 1899.75H2532V1652.49Z" fill="white"/>
<path id="redP" fill-rule="evenodd" clip-rule="evenodd" d="M0 99.6622V0.75H131.867L1265.99 851.346L2400.12 0.75H2531.99L2532 0.759509V99.6525L1397.87 950.253L2532 1800.85V1899.75H2400.11L1265.99 1049.16L131.874 1899.75H0V1800.84L1134.12 950.253L0 99.6622Z" fill="#DC251C"/>
<path id="whiteP" fill-rule="evenodd" clip-rule="evenodd" d="M949.5 633.75V0.75H1582.5V633.75H2532V1266.75H1582.5V1899.75H949.5V1266.75H0V633.75H949.5Z" fill="white"/>
<path id="redX" fill-rule="evenodd" clip-rule="evenodd" d="M1107.75 792V0.75H1424.25V792H2532V1108.5H1424.25V1899.75H1107.75V1108.5H0V792H1107.75Z" fill="#DC251C"/>
</g>
</svg>
