<svg width="1010" height="1154" viewBox="0 0 1010 1154" fill="none" xmlns="http://www.w3.org/2000/svg">
<g id="user">
<path id="userBottom" d="M706.825 649.125H669.185C619.148 672.115 563.477 685.188 504.875 685.188C446.273 685.188 390.827 672.115 340.565 649.125H302.925C135.685 649.125 0 784.81 0 952.05V1045.81C0 1105.54 48.459 1154 108.188 1154H901.562C961.291 1154 1009.75 1105.54 1009.75 1045.81V952.05C1009.75 784.81 874.065 649.125 706.825 649.125Z" fill="#43ACF2"/>
<path id="userTop" d="M504.375 577C663.726 577 792.875 447.851 792.875 288.5C792.875 129.149 663.726 0 504.375 0C345.024 0 215.875 129.149 215.875 288.5C215.875 447.851 345.024 577 504.375 577Z" fill="#43ACF2"/>
</g>
</svg>
