<svg width="500" height="500" viewBox="0 0 500 500" fill="none" xmlns="http://www.w3.org/2000/svg">
<path d="M490.513 227.719L272.201 9.43752C269.212 6.44695 265.663 4.07461 261.756 2.45604C257.85 0.837476 253.663 0.00439453 249.435 0.00439453C245.207 0.00439453 241.02 0.837476 237.114 2.45604C233.208 4.07461 229.659 6.44695 226.669 9.43752L181.357 54.75L238.857 112.25C245.638 109.935 252.934 109.572 259.911 111.205C266.889 112.837 273.267 116.398 278.317 121.481C283.368 126.564 286.888 132.965 288.475 139.953C290.063 146.94 289.653 154.234 287.294 161L342.701 216.438C350.898 213.551 359.834 213.543 368.037 216.413C376.24 219.283 383.22 224.861 387.83 232.228C392.44 239.595 394.403 248.313 393.397 256.945C392.391 265.577 388.475 273.609 382.294 279.719C376.038 286.014 367.789 289.941 358.959 290.831C350.128 291.72 341.262 289.515 333.876 284.594C326.49 279.672 321.042 272.339 318.462 263.846C315.882 255.354 316.331 246.229 319.732 238.031L268.076 186.344V322.375C275.928 326.262 282.21 332.722 285.876 340.679C289.542 348.636 290.371 357.61 288.223 366.103C286.075 374.597 281.081 382.098 274.073 387.356C267.066 392.614 258.467 395.312 249.712 394.999C240.956 394.687 232.573 391.382 225.958 385.638C219.343 379.893 214.897 372.055 213.36 363.43C211.824 354.804 213.29 345.913 217.515 338.238C221.739 330.562 228.467 324.567 236.576 321.25V183.969C231.897 182.052 227.644 179.228 224.063 175.659C220.481 172.091 217.641 167.849 215.706 163.178C213.771 158.506 212.78 153.498 212.79 148.442C212.8 143.386 213.81 138.382 215.763 133.719L159.107 77.0313L9.41946 226.719C6.42888 229.708 4.05655 233.257 2.43798 237.163C0.81941 241.069 -0.0136719 245.256 -0.0136719 249.484C-0.0136719 253.713 0.81941 257.899 2.43798 261.806C4.05655 265.712 6.42888 269.261 9.41946 272.25L227.732 490.563C230.721 493.553 234.27 495.925 238.176 497.544C242.082 499.163 246.269 499.996 250.498 499.996C254.726 499.996 258.913 499.163 262.819 497.544C266.725 495.925 270.274 493.553 273.263 490.563L490.544 273.281C496.577 267.24 499.965 259.053 499.965 250.516C499.965 241.979 496.577 233.791 490.544 227.75" fill="#fff"/>
</svg>
