<svg width="375" height="500" viewBox="0 0 375 500" fill="none" xmlns="http://www.w3.org/2000/svg">
<g clip-path="url(#clip0_947_696)">
<path d="M271.821 305.566C281.391 299.023 294.672 293.359 294.672 293.359C294.672 293.359 256.879 300.195 219.282 303.32C173.286 307.129 123.871 307.91 99.0667 304.59C40.3753 296.777 131.293 275.195 131.293 275.195C131.293 275.195 96.0394 272.852 52.5824 293.75C1.31284 318.555 179.535 329.883 271.821 305.566ZM188.422 274.219C169.868 232.52 107.27 195.898 188.422 131.836C289.653 51.9531 237.739 0 237.739 0C258.735 82.5195 163.911 107.52 129.633 158.789C106.293 193.848 141.059 231.445 188.422 274.219V274.219ZM300.336 102.148C300.434 102.148 129.243 144.922 210.981 239.063C235.102 266.797 204.633 291.797 204.633 291.797C204.633 291.797 265.864 260.156 237.739 220.605C211.469 183.691 191.352 165.332 300.336 102.148V102.148ZM294.379 366.309C293.846 367.239 293.189 368.093 292.426 368.848C417.719 335.938 371.625 252.734 311.762 273.828C308.529 275.016 305.735 277.163 303.754 279.98C307.25 278.715 310.842 277.736 314.496 277.051C344.77 270.703 388.227 317.578 294.379 366.309V366.309ZM340.434 427.148C340.434 427.148 354.594 438.77 324.907 447.852C268.364 464.941 89.7503 470.117 40.141 448.535C22.2699 440.82 55.766 429.98 66.3128 427.734C77.2503 425.391 83.598 425.781 83.598 425.781C63.7738 411.816 -44.6247 453.223 28.5199 465.039C227.973 497.461 392.192 450.488 340.434 427.148ZM122.114 386.719C45.2582 408.203 168.891 452.539 266.743 410.645C257.199 406.937 247.987 402.429 239.203 397.168C195.551 405.469 175.336 406.055 135.688 401.563C102.973 397.852 122.114 386.719 122.114 386.719V386.719ZM297.7 481.641C220.844 496.094 126.02 494.434 69.8675 485.156C69.8675 485.059 81.391 494.629 140.571 498.437C230.61 504.199 368.891 495.215 372.114 452.637C372.114 452.637 365.864 468.75 297.7 481.641V481.641ZM255.121 344.727C197.309 355.859 163.813 355.566 121.528 351.172C88.8128 347.754 110.2 331.934 110.2 331.934C25.4339 360.059 157.27 391.895 275.727 357.227C268.071 354.523 261.056 350.268 255.121 344.727Z" fill="#fff"/>
</g>
<defs>
<clipPath id="clip0_947_696">
<rect width="375" height="500" fill="white"/>
</clipPath>
</defs>
</svg>
