<svg width="438" height="438" viewBox="0 0 438 438" fill="none" xmlns="http://www.w3.org/2000/svg">
<path d="M0 0V437.5H437.5V0H0ZM238.086 341.211C238.086 383.789 213.086 403.223 176.66 403.223C143.75 403.223 124.707 386.23 114.941 365.625L148.438 345.41C154.883 356.836 160.742 366.504 174.902 366.504C188.379 366.504 196.973 361.23 196.973 340.625V200.879H238.086V341.211V341.211ZM335.352 403.223C297.168 403.223 272.461 385.059 260.449 361.23L293.945 341.895C302.734 356.25 314.258 366.895 334.473 366.895C351.465 366.895 362.402 358.398 362.402 346.582C362.402 332.52 351.27 327.539 332.422 319.238L322.168 314.844C292.48 302.246 272.852 286.328 272.852 252.832C272.852 221.973 296.387 198.535 333.008 198.535C359.18 198.535 377.93 207.617 391.406 231.445L359.375 251.953C352.344 239.355 344.727 234.375 332.91 234.375C320.898 234.375 313.281 241.992 313.281 251.953C313.281 264.258 320.898 269.238 338.574 276.953L348.828 281.348C383.789 296.289 403.418 311.621 403.418 345.996C403.418 382.91 374.316 403.223 335.352 403.223V403.223Z" fill="#fff"/>
</svg>
