<svg width="459" height="500" viewBox="0 0 459 500" fill="none" xmlns="http://www.w3.org/2000/svg">
<path d="M229.667 499.083C222.542 499.083 215.917 497.229 209.729 494.021L146.625 457.812C137.146 452.771 141.896 450.937 144.75 450.021C157.542 445.896 159.917 444.979 173.208 437.625C174.625 436.708 176.542 437.167 177.958 438.083L226.354 466.062C228.229 466.979 230.625 466.979 232.042 466.062L421.354 360.146C423.229 359.229 424.188 357.396 424.188 355.104V143.729C424.188 141.437 423.25 139.604 421.354 138.687L232.042 33.2499C230.146 32.3333 227.771 32.3333 226.354 33.2499L37.0417 138.687C35.1458 139.604 34.1875 141.896 34.1875 143.729V355.104C34.1875 356.937 35.1458 359.229 37.0417 360.146L88.75 389.042C116.75 402.792 134.292 386.75 134.292 370.708V162.083C134.292 159.333 136.667 156.583 140 156.583H164.188C167.042 156.583 169.875 158.875 169.875 162.083V370.687C169.875 406.917 149.479 428 113.896 428C102.979 428 94.4375 428 70.25 416.542L20.4375 389.042C14.4351 385.741 9.42257 380.898 5.91765 375.012C2.41272 369.127 0.542456 362.412 0.5 355.562V144.187C0.5 130.437 8.08333 117.604 20.4375 110.729L209.75 4.79161C215.913 1.6309 222.74 -0.0175781 229.667 -0.0175781C236.593 -0.0175781 243.42 1.6309 249.583 4.79161L438.917 110.708C451.25 117.583 458.833 130.417 458.833 144.167V355.542C458.833 369.292 451.25 382.125 438.917 389.021L249.583 494.917C243.297 497.642 236.518 499.046 229.667 499.042V499.083ZM288.021 353.729C205 353.729 187.917 317.062 187.917 285.875C187.917 283.125 190.292 280.375 193.604 280.375H218.271C221.125 280.375 223.479 282.208 223.479 284.958C227.292 309.25 238.208 321.167 288.5 321.167C328.354 321.167 345.437 312.458 345.437 291.833C345.437 279.917 340.688 271.208 278.542 265.25C226.813 260.187 194.562 249.208 194.562 209.312C194.562 172.167 226.813 150.146 280.917 150.146C341.646 150.146 371.542 170.333 375.333 214.354C375.291 215.844 374.789 217.285 373.896 218.479C372.958 219.396 371.542 220.312 370.104 220.312H345.437C344.239 220.283 343.083 219.865 342.143 219.121C341.204 218.377 340.532 217.347 340.229 216.187C334.521 190.979 319.813 182.708 280.917 182.708C237.25 182.708 232.042 197.375 232.042 208.375C232.042 221.687 238.208 225.812 297.042 233.146C355.396 240.479 382.917 251.021 382.917 290.437C382.438 330.812 348.292 353.729 288.021 353.729V353.729Z" fill="#fff"/>
</svg>
