<svg width="500" height="500" viewBox="0 0 500 500" fill="none" xmlns="http://www.w3.org/2000/svg">
<path d="M250 114.583C109.813 114.583 0 174.062 0 250C0 325.937 109.813 385.416 250 385.416C390.188 385.416 500 325.937 500 250C500 174.062 390.188 114.583 250 114.583ZM224.042 156.25H251.333L242.667 197.916H267.042C282.5 197.916 292.875 200.083 298.792 205.479C304.563 210.812 306.313 219.562 304 231.479L293.167 281.25H265.417L275.396 235.229C276.604 228.916 276.125 224.521 274 222.208C271.896 219.896 267.25 218.75 260.292 218.75H238.438L225.25 281.25H197.917L224.042 156.25V156.25ZM104.167 197.916H159.708C186.188 197.916 202.229 215.666 195.958 242.146C188.667 272.916 169.167 281.25 133.25 281.25H116.083L110.646 312.5H83.0417L104.167 197.916ZM322.917 197.916H378.458C404.938 197.916 420.979 215.666 414.708 242.146C407.417 272.916 387.896 281.25 352 281.25H334.833L329.396 312.5H301.792L322.917 197.916ZM127.813 218.75L119.958 260.416H137.771C153.188 260.416 167.521 258.666 169.917 235.666C170.813 226.771 167.104 218.75 149.292 218.75H127.813ZM346.563 218.75L338.708 260.416H356.521C371.938 260.416 386.271 258.666 388.667 235.666C389.563 226.771 385.875 218.75 368.042 218.75H346.563V218.75Z" fill="#fff"/>
</svg>
