<svg width="500" height="447" viewBox="0 0 500 447" fill="none" xmlns="http://www.w3.org/2000/svg">
<path d="M-1.52588e-05 223.521C-1.52588e-05 190.396 41.4792 159 105.083 139.541C90.3958 74.7288 96.9166 23.1455 125.667 6.62467C132.633 2.72302 140.517 0.759093 148.5 0.937174V23.6455C143.812 23.6455 140.042 24.583 136.875 26.3122C123.021 34.2705 117 64.5205 121.687 103.458C122.812 113.041 124.646 123.125 126.896 133.416C148.195 128.284 169.812 124.574 191.604 122.312C204.586 104.402 218.75 87.3776 234 71.3538C200.771 40.4788 169.583 23.5622 148.375 23.5622V0.833008C176.417 0.833008 213.104 20.8122 250.208 55.458C287.292 21.0413 324 1.24967 352.021 1.24967V23.958C330.917 23.958 299.625 40.7913 266.396 71.458C280.667 86.458 294.937 103.458 308.5 122.312C330.337 124.549 351.993 128.294 373.312 133.521C375.566 123.766 377.339 113.907 378.625 103.979C383.417 65.0205 377.5 34.7705 363.729 26.7288C360.687 24.8955 356.708 24.0622 352.021 24.0622V1.35384C360.562 1.35384 368.333 3.18717 375.042 7.04134C403.687 23.5622 410.104 75.0205 395.333 139.646C458.729 159.229 500 190.5 500 223.521C500 256.646 458.521 288.041 394.917 307.479C409.604 372.312 403.083 423.896 374.333 440.396C367.708 444.271 359.958 446.104 351.417 446.104C323.375 446.104 286.687 426.125 249.583 391.479C212.5 425.916 175.812 445.687 147.771 445.687C139.727 445.857 131.783 443.887 124.75 439.979C96.1042 423.479 89.6875 372.021 104.458 307.396C41.2708 287.937 -1.52588e-05 256.541 -1.52588e-05 223.521ZM132.708 155.541C136.667 169.163 141.255 182.594 146.458 195.791C154.976 179.224 164.328 163.099 174.479 147.479C160 149.625 146.042 152.271 132.687 155.541H132.708ZM179.375 264.083C187.006 277.405 195.201 290.396 203.937 303.021C234.516 305.716 265.27 305.75 295.854 303.125C313.397 278.066 328.739 251.536 341.708 223.833C328.759 196.064 313.482 169.442 296.042 144.25C265.471 141.549 234.724 141.507 204.146 144.125C195.687 156.25 187.417 169.208 179.479 182.875C171.729 196.208 164.687 209.75 158.271 223.416C164.759 237.249 171.799 250.815 179.375 264.083V264.083ZM146.458 250.833C140.958 264.479 136.25 278.146 132.396 291.396C145.729 294.666 159.812 297.416 174.375 299.541C164.266 283.779 154.949 267.523 146.458 250.833V250.833ZM249.792 359.583C259.271 349.791 268.75 338.896 278.125 326.958C268.958 327.375 259.583 327.687 250.104 327.687C240.521 327.687 231.042 327.479 221.771 326.958C230.938 338.896 240.417 349.791 249.792 359.583ZM325.625 299.541C339.672 297.506 353.617 294.823 367.417 291.5C363.646 278.354 358.958 264.791 353.667 251.25C349.479 259.375 345.083 267.541 340.292 275.708C335.5 283.854 330.625 291.812 325.625 299.541ZM250.312 87.458C240.833 97.2497 231.354 108.146 221.979 120.083C231.146 119.666 240.521 119.354 250 119.354C259.583 119.354 269.062 119.562 278.333 120.083C269.167 108.146 259.687 97.2497 250.312 87.458ZM325.729 147.5C335.836 163.227 345.153 179.449 353.646 196.104C358.996 182.822 363.689 169.285 367.708 155.541C354.375 152.375 340.292 149.625 325.729 147.5ZM417.958 275.083C454.042 259.708 477.375 239.521 477.375 223.521C477.375 207.521 454.042 187.229 417.958 171.958C409.208 168.187 399.625 164.812 389.729 161.666C383.917 181.625 376.271 202.416 366.812 223.729C375.742 243.774 383.295 264.406 389.417 285.479C399.095 282.482 408.62 279.013 417.958 275.083V275.083ZM363.125 420.708C376.979 412.791 383 382.5 378.312 343.583C377.187 334 375.354 323.896 373.104 313.604C353.146 318.5 331.333 322.271 308.396 324.729C295.413 342.639 281.25 359.663 266 375.687C299.229 406.562 330.417 423.479 351.625 423.479C355.626 423.523 359.576 422.578 363.125 420.729V420.708ZM121.375 343.062C116.583 382 122.5 412.271 136.271 420.312C139.312 422.146 143.292 422.958 147.979 422.958C169.083 422.958 200.375 406.146 233.604 375.458C218.418 359.501 204.35 342.516 191.5 324.625C169.663 322.388 148.007 318.643 126.687 313.416C124.333 323.708 122.521 333.583 121.375 343.062V343.062ZM82.1458 275.083C90.8958 278.854 100.479 282.229 110.375 285.375C116.605 264.194 124.261 243.459 133.292 223.312C123.917 202.125 116.396 181.437 110.687 161.562C100.979 164.569 91.4191 168.038 82.0416 171.958C45.9583 187.333 22.625 207.521 22.625 223.521C22.7292 239.521 46.0625 259.812 82.1458 275.083V275.083Z" fill="#fff"/>
<path d="M250.104 270.104C237.749 270.104 225.901 265.196 217.165 256.46C208.429 247.724 203.521 235.876 203.521 223.521C203.521 211.166 208.429 199.318 217.165 190.581C225.901 181.845 237.749 176.938 250.104 176.938C262.459 176.938 274.307 181.845 283.044 190.581C291.78 199.318 296.687 211.166 296.688 223.521C296.688 235.876 291.78 247.724 283.044 256.46C274.307 265.196 262.459 270.104 250.104 270.104V270.104Z" fill="#fff"/>
</svg>
