<svg width="500" height="500" viewBox="0 0 500 500" fill="none" xmlns="http://www.w3.org/2000/svg">
<path d="M341.781 118.25C339.344 118.25 337.719 118.578 336.078 118.984V119.234H336.328C337.469 121.344 339.344 122.984 340.797 124.938C341.938 127.141 342.906 129.406 343.969 131.61L344.297 131.281C346.25 129.891 347.234 127.703 347.234 124.36C346.422 123.375 346.25 122.328 345.531 121.422C344.719 120.031 342.922 119.313 341.781 118.25ZM120.187 393.141H100.906C100.322 362.451 98.4509 331.799 95.2969 301.266H95.1406L65.7656 393.141H51.0313L21.8906 301.266H21.6406C19.376 331.844 18.0213 362.482 17.5781 393.141H0C0.951815 354.612 3.80424 316.154 8.54687 277.906H32.4688L60.2969 362.547H60.4531L88.5312 277.906H111.313C116.359 319.906 119.375 358.313 120.266 393.141H120.187ZM203.844 308.11C196.031 350.75 185.609 381.766 172.844 401.047C162.75 415.938 151.766 423.422 139.797 423.422C136.625 423.422 132.719 422.438 128 420.484V410.234C130.359 410.563 133.047 410.797 136.062 410.797C141.672 410.797 146.156 409.172 149.578 406.156C153.641 402.406 155.687 398.188 155.687 393.547C155.687 390.297 154.141 383.781 150.891 373.859L129.812 308.11H148.781L163.922 357.266C167.344 368.5 168.812 376.234 168.156 380.703C176.531 358.563 182.312 334.313 185.578 308.11H203.844ZM460.672 393.141H405.828V277.906H424.297V378.984H460.672V393.141ZM391.5 395.922L370.344 385.5C372.219 383.953 374 382.25 375.641 380.297C384.672 369.797 389.156 354.094 389.156 333.422C389.156 295.25 374.188 276.219 344.234 276.219C329.578 276.219 318.109 281.016 309.891 290.703C300.938 301.281 296.375 316.906 296.375 337.5C296.375 357.766 300.359 372.578 308.344 382.094C315.672 390.563 326.656 394.875 341.391 394.875C346.844 394.875 351.891 394.219 356.453 392.844L384.047 408.953L391.609 395.938L391.5 395.922ZM322.906 370.031C318.188 362.547 315.906 350.5 315.906 333.891C315.906 304.844 324.703 290.36 342.359 290.36C351.563 290.36 358.391 293.86 362.703 300.781C367.344 308.344 369.703 320.235 369.703 336.672C369.703 365.891 360.828 380.625 343.25 380.625C333.969 380.625 327.219 377.125 322.828 370.203L322.906 370.031ZM288.391 361.25C288.391 371.016 284.812 379.078 277.562 385.25C270.406 391.516 260.875 394.688 248.75 394.688C237.437 394.688 226.609 391.109 215.953 383.938L220.922 374.016C230.031 378.578 238.25 380.859 245.75 380.859C252.672 380.859 258.125 379.313 262.031 376.297C265.938 373.203 268.297 368.891 268.297 363.438C268.297 356.594 263.5 350.734 254.781 345.859C246.719 341.391 230.531 332.188 230.531 332.188C221.734 325.766 217.422 318.922 217.422 307.61C217.422 298.25 220.672 290.766 227.187 285.063C233.781 279.203 242.156 276.36 252.578 276.36C262.947 276.269 273.111 279.243 281.797 284.906L277.328 294.828C270.347 291.754 262.816 290.122 255.188 290.031C249.25 290.031 244.687 291.5 241.516 294.344C238.344 297.188 236.391 300.766 236.391 305.25C236.391 312.094 241.281 317.953 250.219 322.984C258.437 327.453 274.953 336.906 274.953 336.906C283.984 343.25 288.469 350.094 288.469 361.234L288.391 361.25ZM483.797 239.266C472.641 239.016 464.016 240.156 456.781 243.25C454.75 244.063 451.406 244.063 451.078 246.672C452.219 247.813 452.375 249.61 453.359 251.141C455.063 253.906 457.922 257.656 460.609 259.61C463.547 261.891 466.469 264.172 469.484 266.125C474.938 269.469 481.047 271.422 486.406 274.75C489.422 276.703 492.516 279.219 495.516 281.266C497.063 282.328 498.031 284.203 499.984 284.844V284.438C499 283.219 498.766 281.422 497.781 279.969C496.391 278.578 495.016 277.36 493.625 275.985C489.55 270.574 484.664 265.826 479.141 261.906C474.672 258.891 464.906 254.656 463.109 249.531L462.859 249.203C465.875 248.953 469.453 247.813 472.375 247C477.094 245.781 481.484 246.016 486.375 244.797C488.619 244.215 490.844 243.563 493.047 242.844V241.625C490.531 239.11 488.656 235.688 486.047 233.328C478.857 227.037 471.182 221.321 463.094 216.235C458.703 213.391 453.172 211.594 448.531 209.235C446.906 208.422 444.063 208.016 443.156 206.625C440.641 203.531 439.172 199.547 437.375 195.875C433.288 187.931 429.488 179.843 425.984 171.625C423.469 166.172 422 160.797 418.906 155.75C404.578 132.063 388.953 117.75 365.031 103.672C359.906 100.735 353.719 99.5157 347.203 97.9689C343.703 97.8126 340.281 97.5626 336.781 97.4064C334.5 96.422 332.312 93.8282 330.359 92.5157C322.391 87.4689 301.875 76.6407 296.094 90.9689C292.344 100.078 301.625 108.953 304.891 113.516C307.25 116.766 310.266 120.36 311.969 123.938C312.953 126.375 313.188 128.906 314.172 131.422C316.375 137.531 318.484 144.359 321.422 150.063C322.969 153 324.594 156.078 326.547 158.688C327.688 160.235 329.641 160.891 330.047 163.406C328.094 166.25 327.938 170.406 326.875 173.828C321.828 189.609 323.781 209.063 330.859 220.703C333.141 224.203 338.422 231.86 345.516 228.922C351.781 226.406 350.406 218.5 352.188 211.5C352.594 209.797 352.344 208.735 353.172 207.594V207.922C355.203 211.828 357.156 215.578 358.953 219.485C363.188 226.328 370.75 233.406 377.016 238.125C380.359 240.641 382.953 244.969 387.109 246.5V246.094H386.781C385.891 244.875 384.75 244.297 383.609 243.328C380.971 240.714 378.522 237.916 376.281 234.953C370.5 227.141 365.297 218.516 360.734 209.641C358.536 205.256 356.529 200.778 354.719 196.219C353.906 194.594 353.906 192.063 352.516 191.25C350.406 194.266 347.313 196.859 345.844 200.688C343.156 206.625 342.906 214.031 341.859 221.688C341.375 221.844 341.609 221.688 341.375 222.016C336.906 220.875 335.359 216.313 333.719 212.406C329.484 202.485 328.828 186.609 332.422 175.219C333.406 172.281 337.547 163.094 335.922 160.328C335.031 157.641 332.266 156.094 330.797 153.984C328.922 151.375 327.047 148.047 325.75 145.109C322.406 137.297 320.781 128.672 317.125 120.86C315.5 117.281 312.563 113.531 310.203 110.203C307.516 106.453 304.594 103.781 302.547 99.3751C301.813 97.8283 300.844 95.3126 301.984 93.672C302.234 92.5314 302.797 92.1251 303.937 91.797C305.734 90.2501 310.938 92.2033 312.734 93.0939C317.859 95.1251 322.172 97.0782 326.484 100.016C328.438 101.406 330.547 104 333.078 104.734H336.016C340.484 105.719 345.453 104.984 349.609 106.281C357.016 108.641 363.688 112.063 369.703 115.797C388.1 127.606 403.06 144.054 413.078 163.485C414.781 166.656 415.516 169.594 417.063 172.922C419.906 179.844 423.578 186.75 426.5 193.344C429.422 199.938 432.203 206.609 436.422 212.063C438.531 215 446.844 216.531 450.656 218C453.422 219.297 457.734 220.438 460.172 221.906C464.969 224.844 469.688 228.172 474.172 231.422C476.453 232.969 483.375 236.469 483.781 239.235L483.797 239.266Z" fill="#fff"/>
</svg>
