<svg width="87" height="205" viewBox="0 0 87 205" fill="none" xmlns="http://www.w3.org/2000/svg">
<path d="M45.4127 12.1124C51.222 14.6334 54.5663 19.5997 57.4127 25.1124C59.4798 30.8092 59.7477 36.0072 59.7252 41.9874C59.7413 42.8343 59.7574 43.6812 59.774 44.5538C59.7805 53.0375 57.9934 60.4013 52.0728 66.671C47.4862 70.6532 42.4466 71.6903 36.5494 71.46C31.6978 70.6706 28.9379 67.6614 25.6627 64.2374C20.6147 57.2263 21.0466 50.0529 21.0377 41.7374C21.0132 40.5437 20.9887 39.35 20.9635 38.1202C20.9345 29.409 21.9928 23.9597 27.9127 17.2999C29.1502 16.2171 29.1502 16.2171 30.4127 15.1124C31.3137 14.3157 31.3137 14.3157 32.233 13.503C36.2734 10.9252 40.7989 11.5348 45.4127 12.1124Z" fill="#050505"/>
<path d="M67.4126 123.114C71.02 127.773 73.2345 132.88 75.4751 138.302C75.8251 139.144 76.175 139.987 76.5356 140.856C82.5037 155.471 83.8163 164.824 77.9875 179.668C77.2291 181.604 76.4942 183.547 75.7622 185.493C73.2176 192.154 70.4736 198.234 66.4126 204.114C61.6626 203.364 61.6626 203.364 59.4126 201.114C58.6448 194.776 60.7216 190.234 63.2876 184.614C69.7348 170.193 70.9028 161.131 65.1875 146.031C63.5266 141.923 61.5646 137.961 59.5493 134.016C58.3057 130.841 58.1967 128.493 58.4126 125.114C61.519 123.273 63.8146 122.394 67.4126 123.114Z" fill="#050505"/>
<path d="M68.0371 0.988281C69.7077 1.05016 69.7077 1.05016 71.4121 1.11328C75.1813 8.15972 77.8811 15.4834 80.5996 22.9883C81.488 25.4235 82.3773 27.8584 83.2676 30.293C83.6558 31.3627 84.0441 32.4325 84.4441 33.5347C85.3378 36.0516 85.3378 36.0516 86.4121 38.1133C86.1689 46.4511 83.266 53.4466 80.1621 61.1133C79.6839 62.3327 79.2056 63.5522 78.7129 64.8086C72.5605 80.2479 72.5605 80.2479 69.4121 84.1133C67.4033 84.9336 67.4033 84.9336 65.4121 85.1133C63.1621 83.6758 63.1621 83.6758 61.4121 82.1133C61.8657 74.4408 64.5658 67.9474 67.4121 60.8633C68.3307 58.5463 69.2475 56.2287 70.1621 53.9102C70.5695 52.8928 70.9768 51.8754 71.3965 50.8271C75.4499 39.996 72.4126 32.7276 67.9121 22.4883C66.8711 20.1045 65.8395 17.7166 64.8184 15.3242C64.1271 13.751 64.1271 13.751 63.4219 12.146C62.3423 8.90358 62.0707 6.50625 62.4121 3.11328C64.4121 1.11328 64.4121 1.11328 68.0371 0.988281Z" fill="#050505"/>
<path d="M5.47406 105.926C8.41156 106.113 8.41156 106.113 9.41156 107.113C9.51217 110.091 9.54771 113.045 9.54095 116.023C9.5427 116.958 9.54446 117.893 9.54626 118.856C9.55068 121.963 9.54774 125.069 9.54437 128.176C9.54504 130.324 9.54601 132.473 9.54727 134.621C9.54875 139.131 9.54659 143.64 9.54193 148.149C9.53623 153.944 9.53951 159.738 9.5455 165.532C9.5491 169.971 9.54797 174.409 9.54537 178.848C9.5447 180.985 9.54553 183.122 9.54785 185.259C9.55038 188.241 9.54654 191.222 9.54095 194.203C9.54298 195.096 9.545 195.988 9.54708 196.908C9.52582 202.999 9.52582 202.999 8.41156 204.113C5.47406 204.363 5.47406 204.363 2.41156 204.113C-0.210763 200.18 0.131175 196.831 0.152767 192.267C0.149262 191.363 0.145758 190.459 0.142147 189.527C0.133334 186.534 0.139177 183.54 0.145931 180.547C0.144584 178.471 0.142644 176.395 0.140133 174.319C0.137182 169.967 0.141478 165.615 0.150814 161.263C0.162215 155.675 0.155644 150.087 0.143669 144.499C0.136455 140.212 0.138736 135.926 0.143925 131.639C0.145262 129.578 0.14361 127.517 0.138965 125.456C0.133907 122.581 0.141601 119.705 0.152767 116.83C0.148719 115.972 0.14467 115.114 0.140499 114.231C0.198142 106.249 0.198142 106.249 5.47406 105.926Z" fill="#050505"/>
<path d="M39.4746 124.364C42.4121 125.114 42.4121 125.114 44.4121 127.114C44.6526 129.328 44.6526 129.328 44.6392 132.114C44.639 133.155 44.6389 134.196 44.6387 135.268C44.6284 136.395 44.6181 137.523 44.6074 138.684C44.6046 139.835 44.6018 140.987 44.5988 142.173C44.5876 145.862 44.5625 149.55 44.5371 153.239C44.5271 155.735 44.518 158.231 44.5098 160.727C44.4877 166.856 44.4542 172.985 44.4121 179.114C45.1959 179.072 45.9796 179.031 46.7871 178.989C49.4121 179.114 49.4121 179.114 51.4121 181.114C50.8566 185.669 50.8566 185.669 49.4121 187.114C46.2739 187.363 43.1216 187.299 39.9746 187.301C39.0897 187.313 38.2047 187.326 37.293 187.338C36.4467 187.34 35.6004 187.342 34.7285 187.344C33.9494 187.348 33.1702 187.352 32.3674 187.356C30.4121 187.114 30.4121 187.114 28.4121 185.114C28.2246 182.551 28.2246 182.551 28.4121 180.114C28.9071 179.619 28.9071 179.619 29.4121 179.114C31.0621 179.114 32.7121 179.114 34.4121 179.114C34.0821 167.234 33.7521 155.354 33.4121 143.114C33.0821 143.444 32.7521 143.774 32.4121 144.114C28.9121 144.239 28.9121 144.239 25.4121 144.114C24.4121 143.114 24.4121 143.114 24.3496 140.176C25.214 134.469 29.5883 130.183 33.4121 126.114C36.4121 124.114 36.4121 124.114 39.4746 124.364Z" fill="#050505"/>
<path d="M8.41127 0.114057C10.1427 1.84547 9.53104 4.07156 9.53569 6.37884C9.53209 7.13266 9.5285 7.88647 9.52479 8.66313C9.52494 9.45331 9.52508 10.2435 9.52524 11.0576C9.52454 13.6819 9.51674 16.3062 9.50892 18.9305C9.50706 20.7451 9.50564 22.5597 9.50464 24.3743C9.50081 29.16 9.49098 33.9456 9.47993 38.7312C9.46972 43.6108 9.46514 48.4904 9.4601 53.3699C9.44936 62.9513 9.43228 72.5327 9.41127 82.1141C4.01817 83.4324 4.01817 83.4324 1.56053 82.1434C-0.17329 79.0819 -0.00598533 76.0697 0.0230838 72.6451C0.0178268 71.8871 0.0125699 71.1291 0.00715361 70.3481C-0.00605521 67.8415 0.00269363 65.3355 0.0128299 62.8289C0.0108096 61.0892 0.00789855 59.3495 0.00413237 57.6098C-0.000291986 53.9639 0.00614439 50.3183 0.0201541 46.6724C0.0372588 41.9923 0.0273975 37.3128 0.00943671 32.6327C-0.00138733 29.0408 0.00203862 25.4491 0.00982009 21.8572C0.0118253 20.1312 0.00935173 18.4051 0.00238143 16.6791C-0.00521194 14.2703 0.00633996 11.8624 0.0230838 9.45366C0.0170111 8.7362 0.0109384 8.01875 0.00468169 7.27955C0.0303165 5.29556 0.0303164 5.29556 0.411267 2.11406C3.6334 -0.034035 4.68902 -0.179805 8.41127 0.114057Z" fill="#050505"/>
<path d="M38.5991 21.7383C42.4222 22.1143 44.3921 22.7827 47.189 25.4453C51.8788 31.8432 51.1435 42.222 50.0288 49.6719C48.1322 58.8388 48.1322 58.8388 44.7241 61.3633C41.3967 62.4425 38.8858 62.5475 35.4116 62.1133C31.6955 58.5927 30.5793 55.5401 30.2346 50.5513C30.1683 47.4468 30.1268 44.3433 30.0991 41.2383C30.0701 40.1619 30.0411 39.0855 30.0113 37.9766C29.9609 31.6908 30.1786 27.8886 34.4116 23.1133C35.4116 22.1133 35.4116 22.1133 38.5991 21.7383Z" fill="white"/>
<path d="M42.4121 126.113C43.0721 126.443 43.7321 126.773 44.4121 127.113C44.4121 144.273 44.4121 161.433 44.4121 179.113C46.0621 179.113 47.7121 179.113 49.4121 179.113C50.0721 179.773 50.7321 180.433 51.4121 181.113C50.8566 185.669 50.8566 185.669 49.4121 187.113C48.0694 187.2 46.7224 187.22 45.377 187.211C44.5681 187.208 43.7592 187.204 42.9258 187.201C42.0756 187.193 41.2255 187.184 40.3496 187.176C39.4956 187.171 38.6416 187.167 37.7617 187.162C35.6452 187.15 33.5286 187.132 31.4121 187.113C31.4121 186.453 31.4121 185.793 31.4121 185.113C32.2668 185.064 33.1214 185.015 34.002 184.965C35.1067 184.89 36.2114 184.815 37.3496 184.738C39.0028 184.634 39.0028 184.634 40.6895 184.527C41.5879 184.391 42.4864 184.254 43.4121 184.113C43.7421 183.453 44.0721 182.793 44.4121 182.113C43.7521 181.123 43.0921 180.133 42.4121 179.113C42.1716 176.74 42.1716 176.74 42.1851 173.907C42.1853 172.316 42.1853 172.316 42.1855 170.693C42.1958 169.549 42.2062 168.405 42.2168 167.227C42.2196 166.054 42.2225 164.882 42.2254 163.675C42.2366 159.925 42.2617 156.175 42.2871 152.426C42.2971 149.886 42.3063 147.346 42.3145 144.807C42.3365 138.575 42.37 132.344 42.4121 126.113Z" fill="#050505"/>
<path d="M30.4117 29.1133C31.4017 29.1133 32.3917 29.1133 33.4117 29.1133C33.4698 33.0299 33.5053 36.9464 33.5367 40.8633C33.5534 41.9745 33.5702 43.0856 33.5874 44.2305C33.5939 45.3004 33.6003 46.3703 33.607 47.4727C33.6174 48.4572 33.6279 49.4417 33.6387 50.4561C33.4066 53.173 32.802 54.7944 31.4117 57.1133C30.4295 53.837 30.2959 50.8854 30.314 47.4727C30.3172 46.4027 30.3204 45.3328 30.3238 44.2305C30.3321 43.1193 30.3405 42.0081 30.3492 40.8633C30.3537 39.7366 30.3582 38.61 30.3628 37.4492C30.3746 34.6705 30.3911 31.8919 30.4117 29.1133Z" fill="white"/>
<path d="M23.4121 62.1133C24.0721 62.1133 24.7321 62.1133 25.4121 62.1133C26.658 63.5887 27.9002 65.0678 29.1035 66.5781C30.6719 68.4181 32.4049 69.7751 34.4121 71.1133C33.4221 71.6083 33.4221 71.6083 32.4121 72.1133C30.3738 70.8393 28.3736 69.5027 26.4121 68.1133C26.4121 67.4533 26.4121 66.7933 26.4121 66.1133C25.7521 66.1133 25.0921 66.1133 24.4121 66.1133C24.0821 64.7933 23.7521 63.4733 23.4121 62.1133Z" fill="white"/>
<path d="M29.4112 50.1133C31.5541 53.3276 32.892 56.5685 34.4112 60.1133C35.4012 61.5983 35.4012 61.5983 36.4112 63.1133C34.5987 62.9883 34.5987 62.9883 32.4112 62.1133C29.7484 58.024 29.0655 54.9529 29.4112 50.1133Z" fill="#050505"/>
<path d="M30.412 46.1133C31.897 47.1033 31.897 47.1033 33.412 48.1133C33.082 51.0833 32.752 54.0533 32.412 57.1133C30.3039 52.897 30.235 50.7154 30.412 46.1133Z" fill="white"/>
<path d="M69.4121 52.1133C70.5359 55.4176 70.3077 57.164 68.9746 60.3633C68.6871 61.0697 68.3997 61.7761 68.1035 62.5039C67.8754 63.035 67.6472 63.5661 67.4121 64.1133C67.0821 64.1133 66.7521 64.1133 66.4121 64.1133C66.4121 61.8033 66.4121 59.4933 66.4121 57.1133C67.0721 57.1133 67.7321 57.1133 68.4121 57.1133C68.7421 55.4633 69.0721 53.8133 69.4121 52.1133Z" fill="white"/>
<path d="M67.4121 150.113C68.0721 150.113 68.7321 150.113 69.4121 150.113C71.0316 152.685 71.4562 153.79 71.0371 156.863C70.8309 157.606 70.6246 158.348 70.4121 159.113C68.287 155.926 67.9101 153.848 67.4121 150.113Z" fill="#050505"/>
<path d="M33.4121 124.113C34.4021 124.443 35.3921 124.773 36.4121 125.113C33.8343 127.761 31.4956 130.058 28.4121 132.113C28.7494 128.994 29.0331 127.492 31.2871 125.238C31.9884 124.867 32.6896 124.496 33.4121 124.113Z" fill="white"/>
<path d="M39.4121 124.113C39.0821 125.103 38.7521 126.093 38.4121 127.113C35.9746 128.238 35.9746 128.238 33.4121 129.113C32.4221 129.608 32.4221 129.608 31.4121 130.113C33.1713 126.054 34.698 124.113 39.4121 124.113Z" fill="#050505"/>
<path d="M61.4121 77.1133C61.474 77.732 61.5359 78.3508 61.5996 78.9883C62.2295 81.3845 62.2295 81.3845 64.9121 82.2383C66.1496 82.6714 66.1496 82.6714 67.4121 83.1133C67.7421 83.7733 68.0721 84.4333 68.4121 85.1133C63.6621 84.3633 63.6621 84.3633 61.4121 82.1133C61.2871 79.4883 61.2871 79.4883 61.4121 77.1133Z" fill="#050505"/>
<path d="M65.4121 66.1133C66.0721 66.4433 66.7321 66.7733 67.4121 67.1133C65.7871 73.8633 65.7871 73.8633 62.4121 76.1133C63.4021 72.8133 64.3921 69.5133 65.4121 66.1133Z" fill="#050505"/>
</svg>
