<svg width="264" height="302" viewBox="0 0 264 302" fill="none" xmlns="http://www.w3.org/2000/svg">
<path d="M65.328 178C72.821 177.881 80.2817 178.013 87.7655 178.375C88.9003 178.421 88.9003 178.421 90.058 178.468C90.7852 178.507 91.5124 178.546 92.2616 178.586C92.9016 178.617 93.5415 178.648 94.2009 178.681C97.0367 179.106 99.6195 180.074 102.328 181C102.461 190.487 102.592 199.973 102.719 209.46C102.779 213.869 102.839 218.279 102.901 222.688C103.216 245.127 103.406 267.558 103.328 290C106.958 290 110.588 290 114.328 290C114.22 287.447 114.22 287.447 114.109 284.843C113.533 270.252 113.201 255.67 113.151 241.068C113.144 239.275 113.134 237.481 113.12 235.688C113.102 233.154 113.098 230.62 113.098 228.086C113.09 227.326 113.083 226.567 113.076 225.785C113.092 222.034 113.229 219.182 115.328 216C122.92 216.389 130.385 217.195 137.891 218.375C138.664 218.489 139.437 218.602 140.234 218.72C147.942 219.989 147.942 219.989 150.328 223C151.004 226.081 151.364 228.811 151.578 231.937C151.654 232.891 151.73 233.844 151.808 234.826C153.028 253.159 152.487 271.639 152.328 290C156.618 290 160.908 290 165.328 290C165.018 285.687 164.705 281.375 164.391 277.062C164.26 275.244 164.26 275.244 164.127 273.388C163.573 265.803 163.573 265.803 162.773 258.242C162.22 253.514 162.144 248.818 162.141 244.062C162.128 243.213 162.116 242.364 162.103 241.49C162.102 240.68 162.1 239.87 162.098 239.035C162.093 238.307 162.089 237.578 162.085 236.828C162.328 235 162.328 235 164.328 233C172.603 232.124 180.897 233.016 189.078 234.312C189.852 234.43 190.626 234.547 191.424 234.668C194.427 235.19 196.822 235.616 199.281 237.48C201.282 240.384 201.451 242.235 201.442 245.725C201.441 246.706 201.441 247.686 201.441 248.697C201.436 249.759 201.431 250.82 201.426 251.914C201.424 253.541 201.424 253.541 201.421 255.201C201.416 258.676 201.403 262.15 201.391 265.625C201.386 267.976 201.381 270.328 201.377 272.679C201.366 278.453 201.349 284.226 201.328 290C205.288 290 209.248 290 213.328 290C213.303 289.09 213.278 288.18 213.252 287.242C213.014 278.58 212.779 269.919 212.546 261.257C212.426 256.806 212.305 252.355 212.183 247.904C212.064 243.592 211.947 239.28 211.832 234.968C211.789 233.34 211.744 231.712 211.698 230.083C211.571 225.504 211.46 220.925 211.375 216.345C211.343 214.723 211.304 213.101 211.261 211.48C211.197 208.935 211.153 206.39 211.113 203.845C211.09 203.077 211.066 202.309 211.042 201.518C210.987 196.034 212.11 192.025 214.328 187C215.978 185.349 217.87 185.828 220.141 185.812C225.358 185.853 230.266 186.541 235.387 187.496C239.037 188.121 242.674 188.417 246.367 188.656C248.328 189 248.328 189 250.328 191C250.59 192.792 250.59 192.792 250.607 194.999C250.618 195.834 250.629 196.67 250.64 197.531C250.643 198.45 250.645 199.368 250.647 200.315C250.662 201.763 250.662 201.763 250.677 203.242C250.708 206.445 250.725 209.648 250.742 212.851C250.761 215.068 250.78 217.285 250.801 219.501C250.852 225.344 250.892 231.187 250.929 237.03C250.969 242.988 251.02 248.947 251.07 254.906C251.167 266.604 251.252 278.302 251.328 290C252.027 289.988 252.725 289.976 253.445 289.965C254.355 289.955 255.265 289.946 256.203 289.937C257.108 289.926 258.013 289.914 258.945 289.902C261.328 290 261.328 290 263.328 291C263.523 297.054 263.523 297.054 263.328 299C260.908 301.42 260.351 301.25 257.043 301.251C256.138 301.257 255.233 301.262 254.3 301.267C252.8 301.26 252.8 301.26 251.268 301.254C250.21 301.257 249.152 301.26 248.062 301.263C244.494 301.271 240.926 301.265 237.357 301.258C234.809 301.261 232.26 301.265 229.711 301.269C223.493 301.277 217.275 301.276 211.057 301.27C206.005 301.266 200.953 301.265 195.901 301.267C195.183 301.268 194.465 301.268 193.725 301.268C192.267 301.269 190.809 301.27 189.35 301.27C175.663 301.276 161.976 301.269 148.288 301.259C136.534 301.25 124.78 301.251 113.026 301.26C99.3887 301.271 85.7516 301.275 72.1144 301.269C70.6613 301.269 69.2082 301.268 67.7551 301.267C66.6825 301.267 66.6825 301.267 65.5883 301.266C60.5402 301.265 55.4922 301.268 50.4441 301.272C43.6546 301.278 36.8652 301.274 30.0756 301.262C27.577 301.26 25.0784 301.261 22.5798 301.265C19.1823 301.27 15.7852 301.264 12.3877 301.254C11.3872 301.258 10.3866 301.263 9.35572 301.267C8.45077 301.262 7.54582 301.257 6.61345 301.251C5.82852 301.251 5.04358 301.251 4.23486 301.25C2.32805 301 2.32805 301 0.328046 299C-0.227241 293.78 -0.227241 293.78 1.52336 291.32C3.95543 289.541 5.53634 289.696 8.51555 289.812C9.4166 289.839 10.3177 289.866 11.246 289.894C12.2766 289.946 12.2766 289.946 13.328 290C13.3176 289.144 13.3071 288.288 13.2963 287.406C13.108 269.385 13.3289 251.437 14.2655 233.437C14.3309 232.144 14.3309 232.144 14.3976 230.824C14.5231 228.381 14.6561 225.938 14.7929 223.496C14.8315 222.764 14.8701 222.032 14.9098 221.278C15.2112 216.233 15.2112 216.233 16.328 214C23.8898 214.576 31.3026 215.533 38.7655 216.875C39.7317 217.036 40.6978 217.197 41.6933 217.363C43.0884 217.612 43.0884 217.612 44.5116 217.867C45.3424 218.012 46.1731 218.158 47.029 218.308C49.8138 219.146 51.2554 219.939 53.328 222C53.7711 224.942 53.7711 224.942 53.6903 228.582C53.6812 229.246 53.672 229.91 53.6626 230.594C53.6275 232.786 53.5638 234.976 53.4999 237.168C53.47 238.688 53.4419 240.208 53.4155 241.729C53.3412 245.729 53.2427 249.728 53.1391 253.728C53.0377 257.81 52.9592 261.892 52.8788 265.974C52.7177 273.983 52.5288 281.991 52.328 290C56.618 290 60.908 290 65.328 290C65.2219 287.13 65.2219 287.13 65.1137 284.203C64.3885 263.372 64.1695 242.564 64.1977 221.722C64.2035 217.339 64.2 212.956 64.1941 208.573C64.1905 205.156 64.1916 201.739 64.1942 198.322C64.1949 196.702 64.1941 195.083 64.1917 193.463C64.1892 191.232 64.1931 189.002 64.1987 186.771C64.1994 185.507 64.2002 184.244 64.2011 182.941C64.328 180 64.328 180 65.328 178Z" fill="#050505"/>
<path d="M155.952 0.822595C156.715 0.816024 157.478 0.809453 158.264 0.802683C160.787 0.782996 163.31 0.771294 165.832 0.761316C166.698 0.75724 167.563 0.753165 168.454 0.748966C173.038 0.72812 177.622 0.713815 182.206 0.704431C186.917 0.693399 191.629 0.659031 196.34 0.61926C199.982 0.592983 203.624 0.584729 207.266 0.58115C209.001 0.576309 210.737 0.564766 212.472 0.546112C225.024 0.419616 236.024 0.900703 245.61 10.0738C252.434 17.7198 254.634 25.4143 254.77 35.4996C254.784 36.4123 254.797 37.3251 254.812 38.2655C254.835 40.1952 254.852 42.125 254.864 44.0548C254.891 46.9637 254.966 49.8689 255.041 52.7769C255.223 65.6933 253.873 75.5748 245.034 85.6031C239.479 91.1674 232.782 94.1579 224.857 94.2415C223.302 94.2025 221.746 94.1514 220.192 94.0894C218.462 94.0678 216.732 94.0491 215.002 94.0328C212.326 93.9939 209.655 93.9376 206.98 93.8319C196.782 93.4615 189.276 93.6279 181.453 100.738C179.87 102.281 178.336 103.854 176.823 105.467C171.784 110.634 165.71 116.484 158.203 116.687C154.328 116 154.328 116 152.328 114C152.101 112.028 152.101 112.028 152.133 109.648C152.14 108.797 152.146 107.946 152.153 107.07C152.169 106.18 152.186 105.291 152.203 104.375C152.212 103.477 152.221 102.58 152.231 101.656C152.254 99.4368 152.287 97.2183 152.328 94.9996C151.739 95.0235 151.149 95.0475 150.542 95.0721C142.894 95.2526 137.397 93.5106 131.504 88.4254C123.778 80.0762 122.182 70.402 122.09 59.4566C122.078 58.0712 122.078 58.0712 122.066 56.6577C122.052 54.7052 122.041 52.7527 122.033 50.8001C122.022 48.817 122.001 46.8339 121.972 44.8509C121.929 41.9693 121.913 39.0885 121.903 36.2066C121.885 35.3334 121.868 34.4601 121.85 33.5603C121.883 23.8024 125.376 16.0306 132.039 8.98007C139.177 2.80501 146.751 0.85713 155.952 0.822595Z" fill="white"/>
<path d="M89.7656 93.6883C94.125 96.2074 96.7267 99.1963 98.3281 104.001C98.4491 106.29 98.5035 108.583 98.5156 110.876C98.5298 112.09 98.544 113.304 98.5586 114.555C98.3386 117.844 97.7453 120.054 96.3281 123.001C97.059 123.257 97.7899 123.514 98.543 123.778C101.463 125.06 103.452 126.521 105.891 128.563C109.593 131.607 113.347 134.53 117.203 137.376C120.411 139.752 123.554 142.159 126.582 144.759C127.115 145.216 127.648 145.673 128.198 146.144C129.685 147.431 131.161 148.731 132.637 150.032C136.011 152.5 138.366 153.3 142.504 152.669C143.209 152.51 143.914 152.352 144.641 152.188C148.584 151.669 150.436 152.276 153.641 154.626C155.945 156.573 157.539 158.291 159.328 160.751C162.172 163.95 165.29 164.262 169.328 165.001C182.142 167.595 182.142 167.595 186.391 170.251C189.04 172.216 189.04 172.216 191.273 171.833C193.848 170.79 195.218 169.439 197.141 167.438C197.835 166.718 198.53 165.997 199.246 165.255C201.778 162.514 204.236 159.722 206.648 156.876C208.277 155.058 210.002 153.491 211.828 151.876C214.689 149.235 214.689 149.235 214.266 145.813C213.956 144.885 213.647 143.957 213.328 143.001C211.687 138.076 211.914 134.221 213.578 129.313C215.989 124.75 218.53 121.933 223.328 120.001C229.946 119.342 236.786 118.88 242.328 123.001C247.182 128.124 248.818 132.833 248.645 139.794C247.841 145.397 243.367 149.376 239.328 153.001C236.049 154.094 233.525 154.07 230.078 154.126C225.51 154.455 222.727 154.767 219.453 158.063C218.381 159.351 217.339 160.664 216.328 162.001C211.82 167.33 207.131 172.498 202.328 177.563C201.747 178.208 201.165 178.852 200.566 179.517C196.284 183.953 196.284 183.953 192.23 184.157C190.917 183.816 189.618 183.422 188.328 183.001C187.342 182.718 186.356 182.435 185.34 182.143C181.842 181.119 178.366 180.036 174.891 178.938C173.682 178.561 172.474 178.184 171.229 177.796C168.26 176.869 165.293 175.937 162.328 175.001C161.949 176.615 161.949 176.615 161.562 178.262C159.812 183.562 156.816 185.885 152.328 189.001C146.926 191.536 141.849 191.908 136.203 189.876C132.441 187.422 129.208 184.57 127.703 180.177C126.553 173.502 126.554 166.243 129.328 160.001C128.74 159.722 128.153 159.444 127.547 159.157C125.466 158.073 123.697 156.903 121.824 155.497C121.171 155.008 120.518 154.519 119.845 154.015C119.159 153.495 118.473 152.974 117.766 152.438C117.055 151.902 116.345 151.367 115.614 150.815C111.441 147.651 107.324 144.434 103.266 141.126C102.392 140.417 101.518 139.708 100.617 138.977C98.3281 137.001 98.3281 137.001 96.6641 135.149C92.6991 130.859 88.823 130.452 83.1406 130.188C81.7514 130.155 80.3621 130.128 78.9727 130.106C76.1561 130.025 73.9767 129.856 71.3281 129.001C64.5554 136.336 58.4171 144.1 52.3281 152.001C51.7574 152.741 51.1867 153.482 50.5986 154.244C48.8184 156.557 47.0411 158.872 45.2656 161.188C44.7053 161.919 44.1449 162.65 43.5676 163.403C43.0439 164.089 42.5201 164.775 41.9805 165.481C41.2843 166.392 41.2843 166.392 40.574 167.322C39.4428 168.846 38.3811 170.421 37.3281 172.001C34.1298 172.506 32.7495 172.274 30.0156 170.501C29.4588 170.006 28.9019 169.511 28.3281 169.001C28.7613 163.731 29.6519 160.905 33.1406 156.938C33.954 155.995 34.7674 155.051 35.6055 154.079C36.0462 153.581 36.4869 153.082 36.9409 152.569C39.3901 149.8 41.7936 146.992 44.2031 144.188C44.7034 143.609 45.2038 143.03 45.7192 142.433C50.4052 136.982 54.8426 131.35 59.2461 125.669C61.3281 123.001 61.3281 123.001 62.3281 122.001C62.2669 119.989 62.2011 117.978 62.1099 115.968C61.5967 102.535 61.5967 102.535 66.6367 96.5711C72.982 90.68 81.96 90.0991 89.7656 93.6883Z" fill="#050505"/>
<path d="M155.952 0.822595C156.715 0.816024 157.478 0.809453 158.264 0.802683C160.787 0.782996 163.31 0.771294 165.832 0.761316C166.698 0.75724 167.563 0.753165 168.454 0.748966C173.038 0.72812 177.622 0.713815 182.206 0.704431C186.917 0.693399 191.629 0.659031 196.34 0.61926C199.982 0.592983 203.624 0.584729 207.266 0.58115C209.001 0.576309 210.737 0.564766 212.472 0.546112C225.024 0.419616 236.024 0.900703 245.61 10.0738C252.434 17.7198 254.634 25.4143 254.77 35.4996C254.784 36.4123 254.797 37.3251 254.812 38.2655C254.835 40.1952 254.852 42.125 254.864 44.0548C254.891 46.9637 254.966 49.8689 255.041 52.7769C255.223 65.6933 253.873 75.5748 245.034 85.6031C239.479 91.1674 232.782 94.1579 224.857 94.2415C223.302 94.2025 221.746 94.1514 220.192 94.0894C218.462 94.0678 216.732 94.0491 215.002 94.0328C212.326 93.9939 209.655 93.9376 206.98 93.8319C196.782 93.4615 189.276 93.6279 181.453 100.738C179.87 102.281 178.336 103.854 176.823 105.467C171.784 110.634 165.71 116.484 158.203 116.687C154.328 116 154.328 116 152.328 114C152.101 112.028 152.101 112.028 152.133 109.648C152.14 108.797 152.146 107.946 152.153 107.07C152.169 106.18 152.186 105.291 152.203 104.375C152.212 103.477 152.221 102.58 152.231 101.656C152.254 99.4368 152.287 97.2183 152.328 94.9996C151.739 95.0235 151.149 95.0475 150.542 95.0721C142.894 95.2526 137.397 93.5106 131.504 88.4254C123.778 80.0762 122.182 70.402 122.09 59.4566C122.078 58.0712 122.078 58.0712 122.066 56.6577C122.052 54.7052 122.041 52.7527 122.033 50.8001C122.022 48.817 122.001 46.8339 121.972 44.8509C121.929 41.9693 121.913 39.0885 121.903 36.2066C121.885 35.3334 121.868 34.4601 121.85 33.5603C121.883 23.8024 125.376 16.0306 132.039 8.98007C139.177 2.80501 146.751 0.85713 155.952 0.822595ZM139.453 16.8746C138.653 17.5823 138.653 17.5823 137.836 18.3043C133.048 23.6885 132.873 28.1074 132.895 35.0504C132.89 36.0232 132.884 36.9959 132.879 37.9982C132.873 40.0532 132.874 42.1084 132.882 44.1634C132.891 47.2911 132.862 50.417 132.83 53.5445C132.829 55.5465 132.829 57.5484 132.832 59.5504C132.821 60.4777 132.81 61.4051 132.798 62.3605C132.862 68.3971 133.911 72.9544 137.328 77.9996C144.771 85.2467 152.376 85.5301 162.328 85.9996C162.823 93.9196 162.823 93.9196 163.328 102C166.782 99.9275 169.023 98.5534 171.774 95.898C172.677 95.0395 172.677 95.0395 173.598 94.1637C174.843 92.9633 176.088 91.7628 177.332 90.5621C178.231 89.7074 178.231 89.7074 179.149 88.8355C179.957 88.0551 179.957 88.0551 180.782 87.2589C184.601 84.149 189.368 84.8472 194.02 84.8238C195.787 84.8006 197.555 84.7765 199.323 84.7515C202.098 84.7166 204.873 84.6872 207.649 84.6737C223.218 85.0833 223.218 85.0833 236.912 78.6593C242.772 72.2862 243.79 65.5854 243.762 57.3394C243.767 56.4313 243.773 55.5232 243.778 54.5876C243.784 52.6774 243.783 50.767 243.774 48.8568C243.766 45.9421 243.795 43.0293 243.826 40.1148C243.828 38.2522 243.828 36.3896 243.825 34.5269C243.836 33.6612 243.847 32.7954 243.859 31.9034C243.796 26.4374 242.944 23.3444 239.328 18.9996C230.312 10.1879 220.739 10.5484 208.895 10.6012C207.291 10.5991 205.687 10.5962 204.084 10.5925C200.733 10.5881 197.382 10.5944 194.03 10.6085C189.756 10.6256 185.482 10.6157 181.207 10.5978C177.898 10.5869 174.589 10.5904 171.28 10.5982C169.705 10.6001 168.13 10.5977 166.555 10.5907C152.009 10.2951 152.009 10.2951 139.453 16.8746Z" fill="#050505"/>
<path d="M74.3286 190C79.6086 190 84.8886 190 90.3286 190C90.6436 199.354 90.9562 208.708 91.2661 218.062C91.289 218.754 91.3119 219.445 91.3355 220.157C92.1058 243.436 92.7874 266.715 93.3286 290C87.7186 290 82.1086 290 76.3286 290C75.568 286.197 75.1843 283.18 75.1233 279.372C75.1033 278.26 75.0834 277.148 75.0628 276.002C75.0461 274.801 75.0294 273.6 75.0122 272.363C74.9914 271.107 74.9705 269.85 74.9491 268.555C74.8944 265.171 74.844 261.788 74.7962 258.404C74.7661 256.316 74.7343 254.228 74.7019 252.14C74.3808 231.426 74.191 210.716 74.3286 190Z" fill="white"/>
<path d="M222.328 199C227.938 199.33 233.548 199.66 239.328 200C239.988 229.7 240.648 259.4 241.328 290C235.718 290 230.108 290 224.328 290C222.602 259.684 222.154 229.36 222.328 199Z" fill="white"/>
<path d="M25.3281 227C30.6081 227.66 35.8881 228.32 41.3281 229C41.3281 249.13 41.3281 269.26 41.3281 290C35.3881 290 29.4481 290 23.3281 290C23.4361 282.081 23.5482 274.162 23.6675 266.243C23.7227 262.567 23.7761 258.89 23.8254 255.213C23.8731 251.666 23.9254 248.119 23.9811 244.573C24.0015 243.218 24.0202 241.863 24.0372 240.508C24.0613 238.614 24.0919 236.721 24.1228 234.827C24.1461 233.208 24.1461 233.208 24.1699 231.556C24.3281 229 24.3281 229 25.3281 227Z" fill="white"/>
<path d="M123.328 229C127.846 228.924 131.921 228.899 136.328 230C137.034 230.177 137.741 230.354 138.469 230.536C139.082 230.689 139.696 230.842 140.328 231C141.087 238.84 141.468 246.579 141.426 254.454C141.424 255.48 141.423 256.506 141.421 257.563C141.416 260.792 141.403 264.021 141.39 267.25C141.385 269.46 141.381 271.67 141.377 273.879C141.366 279.253 141.349 284.627 141.328 290C136.048 290 130.768 290 125.328 290C123.657 269.713 123.119 249.352 123.328 229Z" fill="white"/>
<path d="M173.328 246C174.849 245.979 176.37 245.958 177.891 245.938C178.738 245.926 179.584 245.914 180.457 245.902C183.766 246.015 187.051 246.532 190.328 247C190.658 261.19 190.988 275.38 191.328 290C186.378 290 181.428 290 176.328 290C175.894 285.984 175.465 281.969 175.046 277.952C174.903 276.592 174.758 275.233 174.61 273.874C173.592 264.521 173.13 255.402 173.328 246Z" fill="white"/>
<path d="M83.3282 102C86.2419 103.984 87.9638 105.414 88.7735 108.937C88.9792 112.559 88.4653 114.726 86.8282 118C83.9668 120.289 81.9628 120.74 78.3008 120.473C74.6795 119.605 73.3308 118.066 71.3282 115C70.7659 111.913 70.6384 109.069 71.3282 106C74.7854 101.794 77.9825 101.456 83.3282 102Z" fill="white"/>
<path d="M144.39 161.438C148.327 162 148.327 162 150.05 163.262C152.413 166.477 151.83 170.19 151.327 174C149.703 177.635 148.666 178.774 145.327 181C141.866 180.911 140.58 180.232 138.015 177.875C135.861 174.205 135.738 172.201 136.327 168C138.233 163.632 139.597 161.632 144.39 161.438Z" fill="white"/>
<path d="M222.328 199C227.938 199.33 233.548 199.66 239.328 200C239.374 204.379 239.414 208.756 239.438 213.135C239.448 214.625 239.462 216.115 239.479 217.604C239.503 219.744 239.515 221.884 239.523 224.023C239.534 225.312 239.544 226.6 239.555 227.927C239.328 231 239.328 231 237.328 233C237.328 222.77 237.328 212.54 237.328 202C233.038 201.67 228.748 201.34 224.328 201C224.658 215.19 224.988 229.38 225.328 244C224.668 244 224.008 244 223.328 244C222.167 234.433 222.212 224.93 222.266 215.312C222.271 213.725 222.275 212.137 222.279 210.549C222.289 206.699 222.309 202.85 222.328 199Z" fill="white"/>
<path d="M234.328 129.999C236.703 131.499 236.703 131.499 238.328 132.999C237.846 139.381 237.846 139.381 235.703 141.937C232.364 143.43 229.94 143.459 226.328 142.999C223.69 140.787 223.382 139.327 222.828 135.937C223.328 132.999 223.328 132.999 225.453 131.124C228.733 129.841 230.837 129.553 234.328 129.999Z" fill="white"/>
<path d="M164.422 40.7344C165.613 40.7421 165.613 40.7421 166.828 40.75C167.622 40.7448 168.416 40.7397 169.234 40.7344C171.328 41 171.328 41 173.328 43C173.641 46.5 173.641 46.5 173.328 50C169.26 52.7123 167.163 52.307 162.328 52C160.328 50 160.328 50 160.078 46.5C160.343 42.7902 160.527 41.2285 164.422 40.7344Z" fill="#050505"/>
<path d="M194.328 41C196.328 43 196.328 43 196.524 44.9453C196.459 46.9636 196.393 48.9818 196.328 51C193.201 52.5636 189.749 52.3996 186.328 52C185.338 51.34 184.348 50.68 183.328 50C182.936 46.9301 182.856 44.8864 184.328 42.125C187.667 40.2468 190.538 40.6992 194.328 41Z" fill="#050505"/>
<path d="M215.328 41.001C216.318 41.661 217.308 42.321 218.328 43.001C218.737 45.713 218.461 48.2447 218.328 51.001C216.099 52.1154 214.798 52.1658 212.328 52.1885C211.276 52.2098 211.276 52.2098 210.203 52.2315C208.328 52.001 208.328 52.001 206.328 50.001C206.016 46.501 206.016 46.501 206.328 43.001C209.798 40.6877 211.253 40.6614 215.328 41.001Z" fill="#050505"/>
<path d="M231.328 81C231.988 81.33 232.648 81.66 233.328 82C232.668 82.99 232.008 83.98 231.328 85C228.602 85.4981 226.078 85.8141 223.328 86C222.621 86.0543 221.913 86.1086 221.185 86.1646C218.941 86.3222 216.699 86.4478 214.453 86.5625C213.643 86.605 212.833 86.6474 211.999 86.6912C203.441 87.1022 194.893 87.0921 186.328 87C185.998 86.01 185.668 85.02 185.328 84C187.099 83.9703 187.099 83.9703 188.905 83.9399C193.3 83.8637 197.694 83.775 202.088 83.6826C203.987 83.6444 205.886 83.6096 207.786 83.5781C210.521 83.5323 213.257 83.4743 215.992 83.4141C216.836 83.4025 217.68 83.391 218.55 83.3791C223.223 83.263 226.887 82.5929 231.328 81Z" fill="#050505"/>
<path d="M222.328 155C222.328 158 222.328 158 220.797 159.605C220.147 160.128 219.498 160.65 218.828 161.188C218.178 161.717 217.529 162.247 216.859 162.793C216.354 163.191 215.849 163.59 215.328 164C217.05 160.235 219.32 157.849 222.328 155ZM212.328 166C212.988 166.66 213.648 167.32 214.328 168C212.293 170.09 210.25 172.172 208.203 174.25C207.633 174.837 207.064 175.423 206.477 176.027C202.989 179.555 199.558 182.403 195.328 185C196.722 181.848 198.353 179.738 200.805 177.328C201.81 176.332 201.81 176.332 202.836 175.316C203.535 174.634 204.233 173.953 204.953 173.25C205.66 172.553 206.366 171.855 207.094 171.137C208.834 169.42 210.579 167.708 212.328 166Z" fill="white"/>
<path d="M145.328 84C148.141 84.1402 150.953 84.2869 153.766 84.4375C154.568 84.4768 155.371 84.5161 156.197 84.5566C162.215 84.8867 162.215 84.8867 163.328 86C163.455 88.4924 163.513 90.9447 163.516 93.4375C163.528 94.1317 163.54 94.8258 163.553 95.541C163.558 97.3622 163.45 99.1829 163.328 101C162.668 101.66 162.008 102.32 161.328 103C161.328 97.72 161.328 92.44 161.328 87C158.76 87.0619 158.76 87.0619 156.141 87.125C151.995 87.2249 149.1 86.7516 145.328 85C145.328 84.67 145.328 84.34 145.328 84Z" fill="#050505"/>
<path d="M173.329 271C174.319 271.495 174.319 271.495 175.329 272C176.705 277.818 176.423 284.064 176.329 290C181.609 289.67 186.889 289.34 192.329 289C192.329 289.66 192.329 290.32 192.329 291C189.516 291.194 186.704 291.38 183.891 291.562C183.089 291.619 182.286 291.675 181.46 291.732C179.418 291.862 177.373 291.935 175.329 292C172.468 289.139 173.355 281.155 173.266 277.27C173.266 275.18 173.294 273.09 173.329 271Z" fill="#050505"/>
<path d="M249.328 196C249.658 196 249.988 196 250.328 196C250.328 206.23 250.328 216.46 250.328 227C249.338 227.33 248.348 227.66 247.328 228C247.328 223.71 247.328 219.42 247.328 215C247.988 215 248.648 215 249.328 215C249.328 208.73 249.328 202.46 249.328 196Z" fill="#050505"/>
<path d="M50.3281 287C50.6581 287.99 50.9881 288.98 51.3281 290C56.2781 290 61.2281 290 66.3281 290C65.9981 290.99 65.6681 291.98 65.3281 293C63.2034 293.054 61.0783 293.093 58.9531 293.125C57.1781 293.16 57.1781 293.16 55.3672 293.195C52.3281 293 52.3281 293 50.3281 291C50.3281 289.68 50.3281 288.36 50.3281 287Z" fill="#050505"/>
<path d="M123.328 229C125.968 229 128.608 229 131.328 229C130.998 229.99 130.668 230.98 130.328 232C128.678 232 127.028 232 125.328 232C124.998 237.61 124.668 243.22 124.328 249C123.998 249 123.668 249 123.328 249C123.328 242.4 123.328 235.8 123.328 229Z" fill="white"/>
<path d="M236.328 189C238.286 188.946 240.245 188.907 242.203 188.875C243.839 188.84 243.839 188.84 245.508 188.805C248.328 189 248.328 189 250.328 191C250.463 193.43 250.463 193.43 250.305 196.445C250.253 197.522 250.202 198.598 250.148 199.707C250.084 200.835 250.02 201.963 249.953 203.125C249.896 204.261 249.84 205.396 249.781 206.566C249.639 209.378 249.488 212.189 249.328 215C248.998 215 248.668 215 248.328 215C248.132 211.375 247.948 207.75 247.766 204.125C247.71 203.092 247.653 202.06 247.596 200.996C247.547 200.01 247.499 199.024 247.449 198.008C247.402 197.097 247.355 196.185 247.306 195.247C247.328 193 247.328 193 248.328 191C244.368 190.67 240.408 190.34 236.328 190C236.328 189.67 236.328 189.34 236.328 189Z" fill="#050505"/>
<path d="M210.891 41.9375C212.025 41.9581 213.159 41.9787 214.328 42C213.709 42.2062 213.091 42.4125 212.453 42.625C209.482 44.5478 209.198 46.6659 208.328 50C210.638 50 212.948 50 215.328 50C215.328 50.66 215.328 51.32 215.328 52C211.953 52.125 211.953 52.125 208.328 52C206.328 50 206.328 50 206.141 46.4375C206.382 42.0166 206.382 42.0166 210.891 41.9375Z" fill="#050505"/>
<path d="M167.141 162.918C173.099 163.652 178.634 165.11 184.328 167C183.668 167.66 183.008 168.32 182.328 169C179.5 168.574 179.5 168.574 176.078 167.688C171.837 166.608 167.656 165.662 163.328 165C165.328 163 165.328 163 167.141 162.918Z" fill="white"/>
<path d="M194.329 41.0009C194.329 41.6609 194.329 42.3209 194.329 43.0009C191.689 43.3309 189.049 43.6609 186.329 44.0009C186.128 47.7169 186.177 48.773 188.329 52.0009C185.854 51.0109 185.854 51.0109 183.329 50.0009C182.973 44.6676 182.973 44.6676 184.329 42.1259C187.582 40.296 190.643 40.8196 194.329 41.0009Z" fill="#050505"/>
<path d="M52.3281 134C53.3181 134.33 54.3081 134.66 55.3281 135C53.3481 135.99 53.3481 135.99 51.3281 137C51.6581 136.01 51.9881 135.02 52.3281 134ZM50.3281 137C50.3281 137.99 50.3281 138.98 50.3281 140C48.3281 141.688 48.3281 141.688 46.3281 143C47.4799 140.532 48.376 138.952 50.3281 137ZM44.3281 144C44.6581 144.99 44.9881 145.98 45.3281 147C42.8531 148.485 42.8531 148.485 40.3281 150C41.4799 147.532 42.376 145.952 44.3281 144Z" fill="#050505"/>
<path d="M209.328 41C214.953 40.75 214.953 40.75 218.328 43C218.737 45.712 218.461 48.2437 218.328 51C217.338 51.33 216.348 51.66 215.328 52C215.658 49.36 215.988 46.72 216.328 44C215.668 44 215.008 44 214.328 44C214.328 43.34 214.328 42.68 214.328 42C212.678 42 211.028 42 209.328 42C209.328 41.67 209.328 41.34 209.328 41Z" fill="#050505"/>
<path d="M157.328 160C157.988 160 158.648 160 159.328 160C159.906 160.639 160.483 161.279 161.078 161.938C163.812 164.444 165.696 164.67 169.328 165C167.328 167 167.328 167 164.453 167.438C161.328 167 161.328 167 158.953 164.625C157.328 162 157.328 162 157.328 160Z" fill="#050505"/>
<path d="M212.328 140C214.453 143.188 214.83 145.265 215.328 149C213.678 150.32 212.028 151.64 210.328 153C210.882 151.047 211.435 149.094 211.988 147.141C212.363 144.778 211.957 143.278 211.328 141C211.658 140.67 211.988 140.34 212.328 140Z" fill="white"/>
<path d="M247.328 133C247.658 133 247.988 133 248.328 133C248.382 134.458 248.421 135.916 248.453 137.375C248.476 138.187 248.5 138.999 248.523 139.836C248.328 142 248.328 142 246.328 144C245.09 140.285 245.622 137.812 246.328 134C246.658 133.67 246.988 133.34 247.328 133Z" fill="#050505"/>
<path d="M179.328 180C180.767 180.284 182.204 180.577 183.641 180.875C184.441 181.037 185.242 181.2 186.066 181.367C188.328 182 188.328 182 191.328 184C186.339 184.293 183.366 184.059 179.328 181C179.328 180.67 179.328 180.34 179.328 180Z" fill="white"/>
<path d="M29.3281 162C29.9881 162.33 30.6481 162.66 31.3281 163C30.9981 164.32 30.6681 165.64 30.3281 167C31.3181 167.66 32.3081 168.32 33.3281 169C32.9981 169.99 32.6681 170.98 32.3281 172C31.0081 171.01 29.6881 170.02 28.3281 169C28.6581 166.69 28.9881 164.38 29.3281 162Z" fill="#050505"/>
<path d="M226.328 12C227.81 12.4491 229.289 12.9096 230.766 13.375C231.589 13.6302 232.413 13.8855 233.262 14.1484C235.328 15 235.328 15 236.328 17C232.77 16.3901 229.645 15.4216 226.328 14C226.328 13.34 226.328 12.68 226.328 12Z" fill="white"/>
<path d="M152.328 153C155.298 153.495 155.298 153.495 158.328 154C158.328 155.65 158.328 157.3 158.328 159C156.29 157.726 154.29 156.389 152.328 155C152.328 154.34 152.328 153.68 152.328 153Z" fill="white"/>
</svg>
