<svg width="354" height="290" viewBox="0 0 354 290" fill="none" xmlns="http://www.w3.org/2000/svg">
<path d="M127.108 0.104648C127.855 0.113023 128.602 0.121397 129.373 0.130025C131.691 0.159783 134.01 0.205153 136.328 0.254795C137.364 0.274424 137.364 0.274424 138.421 0.294449C143.233 0.387452 148.044 0.51928 152.855 0.657139C154.397 0.69942 155.939 0.741445 157.481 0.783237C160.729 0.871615 163.977 0.961199 167.226 1.05188C175.807 1.29135 184.388 1.52444 192.969 1.75479C194.244 1.78912 194.244 1.78912 195.546 1.82413C208.591 2.17356 221.637 2.43807 234.685 2.64588C255.244 2.98304 275.789 3.65183 296.334 4.44013C299.636 4.56674 302.939 4.68771 306.242 4.80359C310.143 4.9411 314.043 5.09205 317.942 5.253C319.386 5.3106 320.829 5.3639 322.273 5.41246C341.06 6.05354 341.06 6.05354 348.328 11.5048C356.078 22.1603 352.259 39.8928 350.961 52.3252C348.597 75.1395 346.915 98.0097 345.203 120.88C345.139 121.738 345.075 122.596 345.008 123.48C344.692 127.701 344.377 131.922 344.062 136.143C342.102 162.367 342.102 162.367 341.23 173.466C341.157 174.419 341.084 175.372 341.008 176.354C339.246 198.493 336.418 210.754 319.297 225.505C317.398 227.193 315.608 228.942 313.828 230.755C310.903 233.725 307.842 236.462 304.684 239.181C301.74 241.773 298.883 244.453 296.016 247.13C292.002 250.871 287.931 254.453 283.641 257.88C279.97 260.823 276.616 263.89 273.328 267.255C268.33 272.356 263.039 276.966 257.328 281.255C256.394 282.009 256.394 282.009 255.44 282.778C249.419 287.293 245.272 288.023 237.883 287.388C236.822 287.321 235.762 287.254 234.669 287.185C230.884 286.923 227.107 286.598 223.328 286.255C222.241 286.158 222.241 286.158 221.132 286.059C208.868 284.962 196.621 283.706 184.374 282.432C176.372 281.603 168.368 280.794 160.364 279.982C158.328 279.776 156.291 279.569 154.255 279.362C134.534 277.355 114.802 275.481 95.0635 273.66C91.1699 273.301 87.2766 272.938 83.3833 272.575C71.6654 271.485 59.9476 270.396 48.2257 269.349C44.4294 269.008 40.6342 268.655 36.8392 268.299C35.2097 268.149 33.5798 268.003 31.9494 267.864C10.3031 266.016 10.3031 266.016 3.70312 258.63C0.925682 254.953 0.153476 252.583 0.078125 247.942C0.0523438 246.997 0.0265625 246.053 0 245.079C0.487555 240.883 1.82632 238.531 5.06592 235.777C7.3072 234.072 9.5885 232.439 11.8906 230.817C13.6187 229.573 15.3452 228.327 17.0703 227.079C17.9478 226.445 18.8254 225.812 19.7295 225.159C23.7239 222.232 27.6217 219.188 31.5156 216.13C42.6199 207.439 53.8829 198.992 65.3281 190.755C68.3295 188.59 71.329 186.423 74.3281 184.255C75.0885 183.707 75.8489 183.159 76.6323 182.595C78.8506 180.991 81.0592 179.375 83.2656 177.755C83.934 177.275 84.6024 176.794 85.291 176.3C85.9104 175.841 86.5298 175.383 87.168 174.911C87.708 174.517 88.248 174.123 88.8044 173.718C93.5256 169.185 93.8548 164.626 94.1367 158.434C94.188 157.561 94.2394 156.688 94.2922 155.788C94.4027 153.897 94.5074 152.006 94.6071 150.114C94.8802 144.973 95.2007 139.835 95.5195 134.696C95.6165 133.116 95.6165 133.116 95.7155 131.504C96.3338 121.669 97.2318 111.872 98.2031 102.067C99.4466 89.5094 100.527 76.9475 101.427 64.3604C101.59 62.0942 101.753 59.8282 101.917 57.5622C102.406 50.7904 102.888 44.0184 103.342 37.2442C103.534 34.42 103.736 31.5966 103.94 28.7734C104.079 26.816 104.203 24.8576 104.328 22.8993C104.459 21.1237 104.459 21.1237 104.592 19.3122C104.662 18.2827 104.732 17.2532 104.804 16.1926C105.968 9.66536 109.035 6.06581 114.328 2.2548C118.562 0.0866566 122.45 0.00396485 127.108 0.104648Z" fill="white"/>
<path d="M127.108 0.104648C127.855 0.113023 128.602 0.121397 129.373 0.130025C131.691 0.159783 134.01 0.205153 136.328 0.254795C137.364 0.274424 137.364 0.274424 138.421 0.294449C143.233 0.387452 148.044 0.51928 152.855 0.657139C154.397 0.69942 155.939 0.741445 157.481 0.783237C160.729 0.871615 163.977 0.961199 167.226 1.05188C175.807 1.29135 184.388 1.52444 192.969 1.75479C194.244 1.78912 194.244 1.78912 195.546 1.82413C208.591 2.17356 221.637 2.43807 234.685 2.64588C255.244 2.98304 275.789 3.65183 296.334 4.44013C299.636 4.56674 302.939 4.68771 306.242 4.80359C310.143 4.9411 314.043 5.09205 317.942 5.253C319.386 5.3106 320.829 5.3639 322.273 5.41246C341.06 6.05354 341.06 6.05354 348.328 11.5048C356.078 22.1603 352.259 39.8928 350.961 52.3252C348.597 75.1395 346.915 98.0097 345.203 120.88C345.139 121.738 345.075 122.596 345.008 123.48C344.692 127.701 344.377 131.922 344.062 136.143C342.102 162.367 342.102 162.367 341.23 173.466C341.157 174.419 341.084 175.372 341.008 176.354C339.246 198.493 336.418 210.754 319.297 225.505C317.398 227.193 315.608 228.942 313.828 230.755C310.903 233.725 307.842 236.462 304.684 239.181C301.74 241.773 298.883 244.453 296.016 247.13C292.002 250.871 287.931 254.453 283.641 257.88C279.97 260.823 276.616 263.89 273.328 267.255C268.33 272.356 263.039 276.966 257.328 281.255C256.394 282.009 256.394 282.009 255.44 282.778C249.419 287.293 245.272 288.023 237.883 287.388C236.822 287.321 235.762 287.254 234.669 287.185C230.884 286.923 227.107 286.598 223.328 286.255C222.241 286.158 222.241 286.158 221.132 286.059C208.868 284.962 196.621 283.706 184.374 282.432C176.372 281.603 168.368 280.794 160.364 279.982C158.328 279.776 156.291 279.569 154.255 279.362C134.534 277.355 114.802 275.481 95.0635 273.66C91.1699 273.301 87.2766 272.938 83.3833 272.575C71.6654 271.485 59.9476 270.396 48.2257 269.349C44.4294 269.008 40.6342 268.655 36.8392 268.299C35.2097 268.149 33.5798 268.003 31.9494 267.864C10.3031 266.016 10.3031 266.016 3.70312 258.63C0.925682 254.953 0.153476 252.583 0.078125 247.942C0.0523438 246.997 0.0265625 246.053 0 245.079C0.487555 240.883 1.82632 238.531 5.06592 235.777C7.3072 234.072 9.5885 232.439 11.8906 230.817C13.6187 229.573 15.3452 228.327 17.0703 227.079C17.9478 226.445 18.8254 225.812 19.7295 225.159C23.7239 222.232 27.6217 219.188 31.5156 216.13C42.6199 207.439 53.8829 198.992 65.3281 190.755C68.3295 188.59 71.329 186.423 74.3281 184.255C75.0885 183.707 75.8489 183.159 76.6323 182.595C78.8506 180.991 81.0592 179.375 83.2656 177.755C83.934 177.275 84.6024 176.794 85.291 176.3C85.9104 175.841 86.5298 175.383 87.168 174.911C87.708 174.517 88.248 174.123 88.8044 173.718C93.5256 169.185 93.8548 164.626 94.1367 158.434C94.188 157.561 94.2394 156.688 94.2922 155.788C94.4027 153.897 94.5074 152.006 94.6071 150.114C94.8802 144.973 95.2007 139.835 95.5195 134.696C95.6165 133.116 95.6165 133.116 95.7155 131.504C96.3338 121.669 97.2318 111.872 98.2031 102.067C99.4466 89.5094 100.527 76.9475 101.427 64.3604C101.59 62.0942 101.753 59.8282 101.917 57.5622C102.406 50.7904 102.888 44.0184 103.342 37.2442C103.534 34.42 103.736 31.5966 103.94 28.7734C104.079 26.816 104.203 24.8576 104.328 22.8993C104.459 21.1237 104.459 21.1237 104.592 19.3122C104.662 18.2827 104.732 17.2532 104.804 16.1926C105.968 9.66536 109.035 6.06581 114.328 2.2548C118.562 0.0866566 122.45 0.00396485 127.108 0.104648ZM115.328 15.2548C114.636 17.5043 114.636 17.5043 114.564 19.9538C114.496 20.8723 114.428 21.7908 114.358 22.7371C114.303 23.7213 114.248 24.7056 114.191 25.7196C114.043 27.8172 113.894 29.9147 113.745 32.0121C113.676 33.0655 113.607 34.1189 113.536 35.2042C113.238 39.5832 112.836 43.9508 112.434 48.3212C110.802 66.757 109.306 85.1999 107.992 103.661C107.936 104.452 107.88 105.242 107.822 106.057C107.257 114.007 106.699 121.958 106.151 129.91C105.944 132.901 105.735 135.892 105.526 138.884C105.383 140.957 105.242 143.03 105.102 145.103C105.014 146.354 104.927 147.605 104.837 148.894C104.763 149.982 104.688 151.071 104.611 152.192C104.329 155.25 103.843 158.229 103.328 161.255C103.264 163.212 103.242 165.171 103.266 167.13C103.275 168.097 103.284 169.063 103.293 170.059C103.305 170.784 103.316 171.508 103.328 172.255C104.449 172.314 105.57 172.374 106.724 172.435C143.861 174.428 180.932 177.164 218.015 179.961C229.456 180.823 240.898 181.661 252.344 182.462C253.638 182.553 254.932 182.643 256.265 182.737C262.16 183.15 268.056 183.559 273.952 183.962C283.784 184.643 293.583 185.384 303.364 186.616C315.624 188.385 315.624 188.385 327.328 186.255C330.929 177.127 331.061 167.019 331.608 157.347C331.884 152.48 332.2 147.616 332.512 142.751C332.576 141.734 332.64 140.716 332.706 139.668C333.444 128.144 334.376 116.637 335.328 105.13C335.413 104.098 335.498 103.066 335.585 102.003C336.485 91.0549 337.42 80.1112 338.423 69.1726C339.515 57.2739 340.584 45.3726 341.266 33.4423C341.335 32.469 341.405 31.4956 341.477 30.4928C341.683 26.1641 341.757 23.96 339.457 20.1806C331.72 13.1821 312.198 15.8859 301.992 15.5712C300.1 15.5109 298.208 15.4505 296.316 15.3899C291.246 15.2284 286.177 15.0709 281.107 14.9146C277.94 14.8169 274.773 14.7183 271.607 14.6194C242.608 13.7155 213.607 12.8706 184.604 12.1319C182.114 12.0682 179.625 12.0033 177.136 11.9382C168.219 11.7062 159.303 11.4979 150.385 11.333C147.671 11.2825 144.958 11.2233 142.244 11.1571C138.444 11.0692 134.644 11.0077 130.844 10.954C129.168 10.9083 129.168 10.9083 127.458 10.8617C125.928 10.8488 125.928 10.8488 124.368 10.8356C123.485 10.8198 122.603 10.8041 121.693 10.7878C118.462 11.4258 117.308 12.6634 115.328 15.2548Z" fill="white"/>
<path d="M127.108 0.104648C127.855 0.113023 128.602 0.121397 129.373 0.130025C131.691 0.159783 134.01 0.205153 136.328 0.254795C137.364 0.274424 137.364 0.274424 138.421 0.294449C143.233 0.387452 148.044 0.51928 152.855 0.657139C154.397 0.69942 155.939 0.741445 157.481 0.783237C160.729 0.871615 163.977 0.961199 167.226 1.05188C175.807 1.29135 184.388 1.52444 192.969 1.75479C194.244 1.78912 194.244 1.78912 195.546 1.82413C208.591 2.17356 221.637 2.43807 234.685 2.64588C255.244 2.98304 275.789 3.65183 296.334 4.44013C299.636 4.56674 302.939 4.68771 306.242 4.80359C310.143 4.9411 314.043 5.09205 317.942 5.253C319.386 5.3106 320.829 5.3639 322.273 5.41246C341.06 6.05354 341.06 6.05354 348.328 11.5048C356.078 22.1603 352.259 39.8928 350.961 52.3252C348.597 75.1395 346.915 98.0097 345.203 120.88C345.139 121.738 345.075 122.596 345.008 123.48C344.692 127.701 344.377 131.922 344.062 136.143C342.102 162.367 342.102 162.367 341.23 173.466C341.157 174.419 341.084 175.372 341.008 176.354C339.246 198.493 336.418 210.754 319.297 225.505C317.398 227.193 315.608 228.942 313.828 230.755C310.903 233.725 307.842 236.462 304.684 239.181C301.74 241.773 298.883 244.453 296.016 247.13C292.002 250.871 287.931 254.453 283.641 257.88C279.97 260.823 276.616 263.89 273.328 267.255C268.33 272.356 263.039 276.966 257.328 281.255C256.394 282.009 256.394 282.009 255.44 282.778C249.419 287.293 245.272 288.023 237.883 287.388C236.822 287.321 235.762 287.254 234.669 287.185C230.884 286.923 227.107 286.598 223.328 286.255C222.241 286.158 222.241 286.158 221.132 286.059C208.868 284.962 196.621 283.706 184.374 282.432C176.372 281.603 168.368 280.794 160.364 279.982C158.328 279.776 156.291 279.569 154.255 279.362C134.534 277.355 114.802 275.481 95.0635 273.66C91.1699 273.301 87.2766 272.938 83.3833 272.575C71.6654 271.485 59.9476 270.396 48.2257 269.349C44.4294 269.008 40.6342 268.655 36.8392 268.299C35.2097 268.149 33.5798 268.003 31.9494 267.864C10.3031 266.016 10.3031 266.016 3.70312 258.63C0.925682 254.953 0.153476 252.583 0.078125 247.942C0.0523438 246.997 0.0265625 246.053 0 245.079C0.487555 240.883 1.82632 238.531 5.06592 235.777C7.3072 234.072 9.5885 232.439 11.8906 230.817C13.6187 229.573 15.3452 228.327 17.0703 227.079C17.9478 226.445 18.8254 225.812 19.7295 225.159C23.7239 222.232 27.6217 219.188 31.5156 216.13C42.6199 207.439 53.8829 198.992 65.3281 190.755C68.3295 188.59 71.329 186.423 74.3281 184.255C75.0885 183.707 75.8489 183.159 76.6323 182.595C78.8506 180.991 81.0592 179.375 83.2656 177.755C83.934 177.275 84.6024 176.794 85.291 176.3C85.9104 175.841 86.5298 175.383 87.168 174.911C87.708 174.517 88.248 174.123 88.8044 173.718C93.5256 169.185 93.8548 164.626 94.1367 158.434C94.188 157.561 94.2394 156.688 94.2922 155.788C94.4027 153.897 94.5074 152.006 94.6071 150.114C94.8802 144.973 95.2007 139.835 95.5195 134.696C95.6165 133.116 95.6165 133.116 95.7155 131.504C96.3338 121.669 97.2318 111.872 98.2031 102.067C99.4466 89.5094 100.527 76.9475 101.427 64.3604C101.59 62.0942 101.753 59.8282 101.917 57.5622C102.406 50.7904 102.888 44.0184 103.342 37.2442C103.534 34.42 103.736 31.5966 103.94 28.7734C104.079 26.816 104.203 24.8576 104.328 22.8993C104.459 21.1237 104.459 21.1237 104.592 19.3122C104.662 18.2827 104.732 17.2532 104.804 16.1926C105.968 9.66536 109.035 6.06581 114.328 2.2548C118.562 0.0866566 122.45 0.00396485 127.108 0.104648ZM115.328 15.2548C114.636 17.5043 114.636 17.5043 114.564 19.9538C114.496 20.8723 114.428 21.7908 114.358 22.7371C114.303 23.7213 114.248 24.7056 114.191 25.7196C114.043 27.8172 113.894 29.9147 113.745 32.0121C113.676 33.0655 113.607 34.1189 113.536 35.2042C113.238 39.5832 112.836 43.9508 112.434 48.3212C110.802 66.757 109.306 85.1999 107.992 103.661C107.936 104.452 107.88 105.242 107.822 106.057C107.257 114.007 106.699 121.958 106.151 129.91C105.944 132.901 105.735 135.892 105.526 138.884C105.383 140.957 105.242 143.03 105.102 145.103C105.014 146.354 104.927 147.605 104.837 148.894C104.763 149.982 104.688 151.071 104.611 152.192C104.329 155.25 103.843 158.229 103.328 161.255C103.264 163.212 103.242 165.171 103.266 167.13C103.275 168.097 103.284 169.063 103.293 170.059C103.305 170.784 103.316 171.508 103.328 172.255C104.449 172.314 105.57 172.374 106.724 172.435C143.861 174.428 180.932 177.164 218.015 179.961C229.456 180.823 240.898 181.661 252.344 182.462C253.638 182.553 254.932 182.643 256.265 182.737C262.16 183.15 268.056 183.559 273.952 183.962C283.784 184.643 293.583 185.384 303.364 186.616C315.624 188.385 315.624 188.385 327.328 186.255C330.929 177.127 331.061 167.019 331.608 157.347C331.884 152.48 332.2 147.616 332.512 142.751C332.576 141.734 332.64 140.716 332.706 139.668C333.444 128.144 334.376 116.637 335.328 105.13C335.413 104.098 335.498 103.066 335.585 102.003C336.485 91.0549 337.42 80.1112 338.423 69.1726C339.515 57.2739 340.584 45.3726 341.266 33.4423C341.335 32.469 341.405 31.4956 341.477 30.4928C341.683 26.1641 341.757 23.96 339.457 20.1806C331.72 13.1821 312.198 15.8859 301.992 15.5712C300.1 15.5109 298.208 15.4505 296.316 15.3899C291.246 15.2284 286.177 15.0709 281.107 14.9146C277.94 14.8169 274.773 14.7183 271.607 14.6194C242.608 13.7155 213.607 12.8706 184.604 12.1319C182.114 12.0682 179.625 12.0033 177.136 11.9382C168.219 11.7062 159.303 11.4979 150.385 11.333C147.671 11.2825 144.958 11.2233 142.244 11.1571C138.444 11.0692 134.644 11.0077 130.844 10.954C129.168 10.9083 129.168 10.9083 127.458 10.8617C125.928 10.8488 125.928 10.8488 124.368 10.8356C123.485 10.8198 122.603 10.8041 121.693 10.7878C118.462 11.4258 117.308 12.6634 115.328 15.2548ZM88.8906 186.942C87.3142 188.141 85.7374 189.339 84.1602 190.536C83.3617 191.154 82.5633 191.771 81.7407 192.407C77.9144 195.337 73.9953 198.135 70.0781 200.942C68.5805 202.024 67.0831 203.106 65.5859 204.188C62.3011 206.558 59.0062 208.912 55.7051 211.259C44.8621 218.97 34.3011 227.013 23.8213 235.207C19.0328 238.948 14.2036 242.628 9.32812 246.255C9.65813 247.245 9.98812 248.235 10.3281 249.255C13.0305 250.606 15.4385 250.673 18.4531 250.981C19.1132 251.05 19.7734 251.118 20.4535 251.188C22.7446 251.423 25.0363 251.652 27.3281 251.88C29.0111 252.05 30.694 252.22 32.377 252.39C72.8494 256.45 113.349 260.328 153.887 263.674C170.707 265.066 187.481 266.792 204.26 268.606C210.529 269.282 216.801 269.917 223.078 270.505C223.899 270.585 224.719 270.665 225.565 270.747C239.458 272.192 239.458 272.192 251.594 266.368C253.302 264.829 254.994 263.272 256.672 261.7C259.229 259.346 261.861 257.17 264.578 255.005C269.652 250.905 274.39 246.521 279.136 242.053C282.598 238.81 286.121 235.721 289.828 232.755C294.888 228.704 299.613 224.359 304.332 219.922C307.42 217.02 310.531 214.181 313.766 211.442C317.655 208.082 321.278 204.401 324.328 200.255C324.328 199.595 324.328 198.935 324.328 198.255C317.224 196.14 310.305 195.713 302.926 195.317C300.133 195.154 297.34 194.986 294.547 194.817C293.81 194.774 293.072 194.73 292.312 194.685C283.269 194.143 274.235 193.478 265.199 192.817C263.437 192.689 261.675 192.561 259.913 192.433C255.433 192.107 250.953 191.78 246.473 191.453C238.423 190.864 230.374 190.277 222.324 189.692C221.459 189.629 220.594 189.566 219.702 189.502C206.101 188.514 192.497 187.583 178.89 186.688C169.575 186.076 160.264 185.42 150.953 184.755C150.069 184.692 149.186 184.629 148.275 184.564C136.68 183.739 125.091 182.882 113.516 181.813C111.121 181.599 108.726 181.424 106.328 181.255C105.565 181.173 104.802 181.09 104.016 181.006C97.4096 180.551 93.944 182.907 88.8906 186.942Z" fill="#050505"/>
<path d="M124.723 10.842C126.331 10.8568 126.331 10.8568 127.973 10.8718C129.128 10.9031 130.283 10.9344 131.473 10.9666C132.679 10.9838 133.884 11.0009 135.126 11.0185C138.861 11.0767 142.595 11.163 146.329 11.2533C148.479 11.2939 150.629 11.3334 152.779 11.3716C159.191 11.4949 165.601 11.6651 172.012 11.8392C174.391 11.9013 176.77 11.9631 179.148 12.0247C185.405 12.1877 191.662 12.3554 197.918 12.5245C201.79 12.6289 205.662 12.732 209.534 12.8347C238.905 13.6145 268.276 14.4064 297.641 15.3783C298.815 15.4165 299.989 15.4548 301.198 15.4942C307.116 15.6891 313.032 15.9017 318.948 16.1557C321.199 16.2479 323.45 16.3193 325.701 16.389C326.954 16.4448 328.206 16.5005 329.497 16.558C331.038 16.6157 331.038 16.6157 332.611 16.6747C336.049 17.4065 337.799 18.8578 340.329 21.2533C341.542 23.6796 341.394 25.0547 341.287 27.7582C341.25 28.6959 341.213 29.6337 341.176 30.5999C341.128 31.625 341.081 32.6502 341.032 33.7064C340.984 34.7791 340.936 35.8518 340.887 36.9569C340.35 48.1302 339.402 59.2597 338.402 70.3995C337.831 76.7624 337.276 83.1267 336.727 89.4915C336.641 90.4909 336.641 90.4909 336.553 91.5104C335.599 102.599 334.771 113.694 333.993 124.796C333.883 126.35 333.773 127.903 333.663 129.457C333.184 136.253 332.711 143.049 332.262 149.848C332.073 152.662 331.876 155.477 331.677 158.291C331.545 160.204 331.424 162.119 331.303 164.033C330.763 171.584 329.925 179.092 327.329 186.253C319.24 190.298 304.992 186.866 296.372 185.925C283.915 184.626 271.452 183.617 258.958 182.753C258.066 182.692 257.175 182.63 256.256 182.567C250.73 182.186 245.203 181.812 239.676 181.441C232.327 180.946 224.978 180.444 217.63 179.94C215.808 179.816 213.986 179.691 212.164 179.567C199.054 178.673 185.952 177.699 172.852 176.671C157.373 175.458 141.893 174.434 126.391 173.566C124.112 173.435 121.832 173.304 119.553 173.173C114.145 172.863 108.737 172.556 103.329 172.253C103.238 165.612 103.413 159.134 104.145 152.535C105.196 142.277 105.978 132.005 106.731 121.722C106.856 120.017 106.982 118.311 107.108 116.606C107.625 109.56 108.139 102.514 108.649 95.4671C109.026 90.2601 109.407 85.0534 109.793 79.847C109.887 78.5817 109.887 78.5817 109.983 77.2908C110.904 64.9498 112.012 52.6429 113.379 40.3431C114.2 32.9281 114.702 25.5827 114.825 18.1244C115.827 12.4124 119.248 10.7425 124.723 10.842ZM132.329 32.2533C132.273 32.9957 132.217 33.7382 132.159 34.5032C131.618 41.6783 131.076 48.8534 130.534 56.0285C130.246 59.8336 129.959 63.6389 129.672 67.4441C127.413 97.4261 127.413 97.4261 126.329 110.535C126.257 111.408 126.185 112.282 126.111 113.182C125.796 117.016 125.475 120.849 125.142 124.681C124.365 133.894 124.198 143.017 124.329 152.253C134.962 154.516 145.72 154.994 156.543 155.657C163.041 156.056 169.539 156.478 176.036 156.902C177.138 156.973 177.138 156.973 178.262 157.046C193.793 158.058 209.317 159.17 224.84 160.292C226.087 160.382 227.335 160.473 228.619 160.565C241.346 161.486 254.073 162.412 266.799 163.339C271.638 163.691 276.478 164.042 281.317 164.393C284.707 164.64 288.096 164.888 291.485 165.136C293.536 165.285 295.586 165.434 297.637 165.582C299.031 165.685 299.031 165.685 300.454 165.79C301.306 165.852 302.159 165.913 303.037 165.976C304.143 166.057 304.143 166.057 305.27 166.139C307.287 166.251 309.309 166.253 311.329 166.253C311.394 165.401 311.394 165.401 311.46 164.532C312.016 157.272 312.577 150.013 313.141 142.753C313.277 141.004 313.277 141.004 313.415 139.22C314.585 124.202 315.849 109.202 317.32 94.2105C318.324 83.7864 319.051 73.3548 319.683 62.9024C320.236 53.8714 320.236 53.8714 320.883 49.5384C321.277 46.6329 321.373 43.9715 321.356 41.0479C321.35 39.7002 321.35 39.7002 321.344 38.3253C321.339 37.6415 321.334 36.9577 321.329 36.2533C251.304 34.1349 251.304 34.1349 181.266 32.5658C180.227 32.5472 179.189 32.5286 178.118 32.5094C162.855 32.2426 147.594 32.2158 132.329 32.2533Z" fill="white"/>
<path d="M112.203 190.914C113.925 190.935 113.925 190.935 115.682 190.956C127.498 191.158 139.244 192.018 151.016 193.004C154.481 193.283 157.946 193.558 161.412 193.833C163.796 194.023 166.18 194.214 168.564 194.406C176.796 195.066 185.03 195.668 193.27 196.234C216.262 197.821 239.211 199.599 262.141 201.941C263.211 202.05 264.282 202.159 265.385 202.271C268.373 202.576 271.361 202.888 274.348 203.203C275.234 203.295 276.121 203.386 277.035 203.48C283.094 204.137 283.094 204.137 285.328 205.254C284.926 210.154 282.524 212.614 279.148 215.895C278.621 216.421 278.094 216.948 277.55 217.49C276.43 218.604 275.305 219.713 274.176 220.818C272.483 222.474 270.807 224.146 269.133 225.82C263.164 231.749 257.066 237.308 250.468 242.538C248.284 244.226 248.284 244.226 246.328 246.254C236.438 247.549 225.748 245.51 215.885 244.46C210.37 243.875 204.853 243.314 199.336 242.754C198.149 242.633 196.963 242.513 195.74 242.388C180.551 240.856 165.346 239.488 150.141 238.129C149.423 238.065 148.705 238 147.965 237.934C128.66 236.205 109.353 234.53 90.0168 233.191C64.2808 231.38 64.2808 231.38 60.3281 227.254C60.3281 225.934 60.3281 224.614 60.3281 223.254C62.6445 221.133 62.6445 221.133 65.8906 218.816C71.1129 214.997 76.0396 210.971 80.8906 206.691C82.1766 205.592 83.4631 204.493 84.75 203.395C86.9832 201.475 88.988 199.564 91.0312 197.426C97.767 191.013 103.197 190.713 112.203 190.914Z" fill="#050505"/>
<path d="M127.239 21.1309C128.495 21.1331 128.495 21.1331 129.777 21.1354C131.198 21.1356 131.198 21.1356 132.647 21.1358C134.204 21.1451 134.204 21.1451 135.793 21.1546C136.871 21.1581 137.95 21.1617 139.061 21.1654C151.012 21.2266 162.956 21.5203 174.903 21.8396C177.306 21.9016 179.709 21.9633 182.112 22.0248C189.747 22.2215 197.381 22.4248 205.016 22.6287C207.632 22.6982 210.248 22.7677 212.864 22.8372C226.942 23.2116 241.021 23.5924 255.099 23.977C263.125 24.1956 271.152 24.4051 279.179 24.6085C285.776 24.7763 292.373 24.9577 298.97 25.1475C301.482 25.2178 303.994 25.2832 306.506 25.3437C309.863 25.4255 313.219 25.5244 316.575 25.6287C317.985 25.6568 317.985 25.6568 319.423 25.6855C327.97 25.9892 327.97 25.9892 331.328 29.2537C333.087 35.3007 332.081 41.5472 331.508 47.742C331.409 48.8855 331.31 50.0291 331.209 51.2073C330.993 53.6916 330.774 56.1755 330.553 58.6592C330.015 64.6727 329.497 70.6879 328.981 76.7033C328.861 78.1113 328.74 79.5193 328.618 80.9272C327.655 92.1077 326.777 103.293 325.95 114.484C325.894 115.232 325.839 115.979 325.782 116.749C325.24 124.059 324.704 131.369 324.18 138.68C324.031 140.739 323.881 142.797 323.729 144.855C323.545 147.358 323.364 149.861 323.19 152.364C321.66 172.922 321.66 172.922 318.328 176.254C310.283 177.1 301.827 175.993 293.782 175.449C292.495 175.365 291.207 175.281 289.881 175.194C286.467 174.971 283.053 174.744 279.639 174.516C276.278 174.292 272.917 174.072 269.555 173.851C265.536 173.588 261.518 173.323 257.499 173.057C250.669 172.603 243.839 172.156 237.007 171.723C223.688 170.877 210.378 169.994 197.078 168.879C185.713 167.933 174.344 167.11 162.96 166.404C160.934 166.277 158.907 166.149 156.88 166.021C156.21 165.978 155.54 165.936 154.85 165.892C153.495 165.806 152.139 165.72 150.784 165.634C147.415 165.421 144.045 165.214 140.675 165.018C136.879 164.796 133.084 164.558 129.289 164.316C128.14 164.254 126.991 164.191 125.807 164.127C124.747 164.057 123.687 163.986 122.596 163.914C121.671 163.858 120.746 163.803 119.794 163.746C116.854 163.159 115.411 162.411 113.328 160.254C112.895 158.115 112.895 158.115 113.003 155.562C113.04 154.578 113.076 153.593 113.114 152.579C113.185 151.482 113.256 150.384 113.328 149.254C113.404 148.072 113.479 146.89 113.556 145.673C113.851 141.552 114.189 137.437 114.536 133.32C114.662 131.773 114.789 130.225 114.915 128.678C115.181 125.41 115.451 122.143 115.722 118.876C116.425 110.404 117.114 101.93 117.801 93.4568C117.869 92.6218 117.937 91.7868 118.007 90.9264C119.305 74.8941 120.443 58.8542 121.39 42.7969C121.441 41.9833 121.492 41.1697 121.544 40.3315C121.635 38.8725 121.72 37.4132 121.798 35.9535C122.722 21.4212 122.722 21.4212 127.239 21.1309ZM132.328 32.2537C132.273 32.9962 132.217 33.7386 132.159 34.5036C131.618 41.6787 131.076 48.8538 130.534 56.0289C130.246 59.8341 129.959 63.6393 129.672 67.4445C127.413 97.4265 127.413 97.4265 126.328 110.535C126.257 111.409 126.185 112.282 126.111 113.183C125.796 117.017 125.475 120.85 125.142 124.682C124.365 133.894 124.197 143.017 124.328 152.254C134.962 154.516 145.72 154.995 156.543 155.658C163.041 156.057 169.538 156.479 176.036 156.902C177.137 156.974 177.137 156.974 178.262 157.047C193.793 158.058 209.317 159.171 224.84 160.293C226.087 160.383 227.334 160.473 228.619 160.566C241.346 161.486 254.073 162.412 266.799 163.339C271.638 163.691 276.478 164.043 281.317 164.394C284.706 164.64 288.096 164.888 291.485 165.136C293.536 165.285 295.586 165.434 297.637 165.583C299.031 165.686 299.031 165.686 300.453 165.79C301.306 165.852 302.159 165.913 303.037 165.977C304.143 166.058 304.143 166.058 305.27 166.14C307.287 166.251 309.309 166.254 311.328 166.254C311.394 165.402 311.394 165.402 311.46 164.533C312.016 157.273 312.577 150.013 313.141 142.754C313.277 141.005 313.277 141.005 313.415 139.221C314.585 124.203 315.849 109.202 317.319 94.211C318.324 83.7868 319.051 73.3552 319.682 62.9029C320.236 53.8718 320.236 53.8718 320.883 49.5388C321.277 46.6333 321.373 43.9719 321.356 41.0484C321.35 39.7006 321.35 39.7006 321.344 38.3257C321.339 37.6419 321.334 36.9582 321.328 36.2537C251.304 34.1354 251.304 34.1354 181.266 32.5662C180.227 32.5476 179.189 32.529 178.118 32.5098C162.855 32.243 147.594 32.2163 132.328 32.2537Z" fill="#050505"/>
<path d="M237.391 225.88C238.206 225.881 239.021 225.882 239.861 225.884C245.906 225.973 245.906 225.973 249.328 228.255C247.336 231.19 245.336 233.348 242.328 235.255C235.584 236.255 228.996 235.473 222.328 234.255C225.634 226.542 229.56 225.643 237.391 225.88Z" fill="white"/>
<path d="M259.406 210.711C261.731 211.172 264.031 211.673 266.328 212.254C262.578 217.129 262.578 217.129 260.328 218.254C252.971 218.695 245.639 218.045 238.328 217.254C242.536 207.867 250.166 209.339 259.406 210.711Z" fill="white"/>
<path d="M214.195 223.786C214.899 223.941 215.603 224.095 216.328 224.255C215.349 225.401 214.37 226.547 213.391 227.692C212.845 228.33 212.3 228.968 211.738 229.626C210.96 230.525 210.169 231.414 209.328 232.255C207.227 232.381 205.121 232.43 203.016 232.442C201.864 232.456 200.713 232.471 199.527 232.485C196.504 232.267 194.862 231.838 192.328 230.255C198.305 222.004 204.641 222.016 214.195 223.786Z" fill="white"/>
<path d="M196.078 206.004C197.267 206.031 197.267 206.031 198.48 206.058C200.43 206.105 202.379 206.177 204.328 206.254C203.349 207.4 202.37 208.546 201.391 209.691C200.845 210.329 200.3 210.967 199.738 211.625C198.96 212.524 198.169 213.413 197.328 214.254C194.632 214.327 191.961 214.346 189.266 214.316C188.128 214.309 188.128 214.309 186.967 214.302C185.087 214.291 183.208 214.273 181.328 214.254C184.597 206.627 188.325 205.669 196.078 206.004Z" fill="white"/>
<path d="M157.328 219.255C157.328 223.255 157.328 223.255 155.242 225.481C151.764 227.598 149.743 227.732 145.703 227.63C144.576 227.617 143.45 227.604 142.289 227.591C139.328 227.255 139.328 227.255 136.328 225.255C141.711 217.425 148.726 218.664 157.328 219.255Z" fill="white"/>
<path d="M229.328 208.253C229.988 208.583 230.648 208.913 231.328 209.253C230.036 213.131 228.826 214.15 225.328 216.253C222.344 216.588 219.494 216.318 216.516 216.003C215.727 215.938 214.939 215.872 214.127 215.804C212.192 215.64 210.26 215.449 208.328 215.253C213.304 206.542 220.118 207.284 229.328 208.253Z" fill="white"/>
<path d="M88.582 214.535C89.6739 214.607 90.7657 214.68 91.8906 214.754C93.5322 214.831 93.5322 214.831 95.207 214.91C97.9671 215.214 100.62 215.649 103.328 216.254C99.7248 221.939 99.7248 221.939 96.1343 222.749C93.5724 222.844 91.0748 222.778 88.5156 222.629C87.632 222.602 86.7483 222.575 85.8379 222.547C83.6669 222.476 81.4972 222.369 79.3281 222.254C84.1439 215.515 84.1439 215.515 88.582 214.535Z" fill="white"/>
<path d="M119.891 217.004C121.047 217.019 122.203 217.035 123.395 217.05C126.328 217.254 126.328 217.254 128.328 218.254C127.028 221.153 125.887 223.331 123.328 225.254C120.262 225.582 120.262 225.582 116.766 225.504C115.609 225.488 114.453 225.473 113.262 225.457C110.328 225.254 110.328 225.254 108.328 224.254C111.059 218.161 113.102 216.852 119.891 217.004Z" fill="white"/>
<path d="M160.299 204.027C161.085 204.038 161.87 204.048 162.68 204.059C163.53 204.066 164.381 204.072 165.258 204.079C166.592 204.104 166.592 204.104 167.953 204.129C169.299 204.143 169.299 204.143 170.672 204.157C172.891 204.18 175.109 204.213 177.328 204.254C172.522 210.994 172.522 210.994 168.039 211.973C166.938 211.901 165.837 211.829 164.703 211.754C163.597 211.703 162.491 211.651 161.352 211.598C158.907 211.32 156.683 210.944 154.328 210.254C157.06 204.4 157.06 204.4 160.299 204.027Z" fill="white"/>
<path d="M184.328 222.253C185.318 222.913 186.308 223.573 187.328 224.253C181.784 230.097 181.784 230.097 177.242 230.386C173.143 230.372 169.327 230.285 165.328 229.253C169.803 221.243 175.675 220.947 184.328 222.253Z" fill="white"/>
<path d="M138.953 202.192C140.013 202.199 140.013 202.199 141.094 202.206C142.839 202.218 144.583 202.235 146.328 202.255C146.328 204.255 146.328 204.255 145.035 205.798C141.661 208.726 139.464 210.199 134.902 210.423C131.678 210.158 128.518 209.79 125.328 209.255C129.553 202.635 131.346 202.101 138.953 202.192Z" fill="white"/>
<path d="M120.328 201.253C116.578 206.128 116.578 206.128 114.328 207.253C108.582 207.61 102.989 207.238 97.3281 206.253C104.545 198.846 110.526 199.585 120.328 201.253Z" fill="white"/>
<path d="M214.328 208.254C214.988 208.584 215.648 208.914 216.328 209.254C215.998 210.244 215.668 211.234 215.328 212.254C217.541 213.36 218.875 213.45 221.328 213.504C222.38 213.543 222.38 213.543 223.453 213.582C224.072 213.474 224.691 213.365 225.328 213.254C227.513 210.577 227.513 210.577 227.328 208.254C228.648 208.584 229.968 208.914 231.328 209.254C230.036 213.132 228.826 214.151 225.328 216.254C222.344 216.589 219.494 216.318 216.516 216.004C215.727 215.938 214.939 215.872 214.127 215.805C212.192 215.641 210.26 215.45 208.328 215.254C210.308 212.944 212.288 210.634 214.328 208.254Z" fill="white"/>
<path d="M347.328 105.254C347.658 105.254 347.988 105.254 348.328 105.254C348.355 106.712 348.374 108.171 348.39 109.629C348.402 110.441 348.414 111.253 348.426 112.09C348.328 114.254 348.328 114.254 347.328 116.254C347.098 118.458 346.917 120.668 346.765 122.879C346.682 124.067 346.598 125.256 346.512 126.48C346.451 127.396 346.39 128.311 346.328 129.254C345.668 129.254 345.008 129.254 344.328 129.254C344.003 110.242 344.003 110.242 347.328 105.254Z" fill="white"/>
<path d="M194.328 207.254C197.298 207.254 200.268 207.254 203.328 207.254C200.245 212.187 200.245 212.187 197.328 214.254C192.936 214.874 188.735 214.666 184.328 214.254C183.998 213.594 183.668 212.934 183.328 212.254C187.618 212.254 191.908 212.254 196.328 212.254C196.658 211.264 196.988 210.274 197.328 209.254C196.338 208.924 195.348 208.594 194.328 208.254C194.328 207.924 194.328 207.594 194.328 207.254Z" fill="white"/>
<path d="M90.3281 216.254C94.6181 216.254 98.9081 216.254 103.328 216.254C100.598 220.482 100.598 220.482 98.3281 222.254C95.2637 222.777 92.4058 222.616 89.3281 222.254C89.3281 221.924 89.3281 221.594 89.3281 221.254C90.9781 220.924 92.6281 220.594 94.3281 220.254C94.3281 219.594 94.3281 218.934 94.3281 218.254C93.0081 217.594 91.6881 216.934 90.3281 216.254Z" fill="white"/>
<path d="M128.266 0.0662835C129.045 0.0798187 129.824 0.0933539 130.627 0.107299C132.528 0.142281 134.428 0.196074 136.328 0.253784C136.328 0.583784 136.328 0.913784 136.328 1.25378C135.58 1.31437 134.833 1.37496 134.062 1.43738C133.078 1.52117 132.093 1.60496 131.078 1.69128C129.616 1.8131 129.616 1.8131 128.125 1.93738C125.757 2.2053 123.628 2.66904 121.328 3.25378C119.328 3.29224 117.328 3.29923 115.328 3.25378C115.328 3.91378 115.328 4.57378 115.328 5.25378C114.008 5.58378 112.688 5.91378 111.328 6.25378C112.328 3.25378 112.328 3.25378 115.332 1.578C119.648 -0.112972 123.687 -0.0867438 128.266 0.0662835Z" fill="#050505"/>
<path d="M85.3281 215.254C85.9881 215.584 86.6481 215.914 87.3281 216.254C86.9981 217.244 86.6681 218.234 86.3281 219.254C87.6481 219.914 88.9681 220.574 90.3281 221.254C89.3281 222.254 89.3281 222.254 87.043 222.352C85.6682 222.334 85.6682 222.334 84.2656 222.316C83.3465 222.307 82.4274 222.298 81.4805 222.289C80.7702 222.277 80.0599 222.266 79.3281 222.254C81.3081 219.944 83.2881 217.634 85.3281 215.254Z" fill="white"/>
<path d="M116.328 201.254C118.391 201.691 118.391 201.691 120.328 202.254C116.541 205.865 116.541 205.865 114.328 207.254C111.453 207.066 111.453 207.066 109.328 206.254C109.328 205.924 109.328 205.594 109.328 205.254C107.678 204.924 106.028 204.594 104.328 204.254C104.328 203.924 104.328 203.594 104.328 203.254C105.111 203.193 105.893 203.133 106.699 203.07C107.711 202.987 108.723 202.903 109.766 202.816C110.775 202.735 111.784 202.654 112.824 202.57C115.265 202.522 115.265 202.522 116.328 201.254Z" fill="white"/>
<path d="M310.328 161.254C310.658 161.254 310.988 161.254 311.328 161.254C311.328 162.904 311.328 164.554 311.328 166.254C305.388 165.924 299.448 165.594 293.328 165.254C293.328 164.924 293.328 164.594 293.328 164.254C295.432 164.086 297.536 163.919 299.641 163.754C300.812 163.661 301.984 163.568 303.191 163.473C305.233 163.33 307.281 163.254 309.328 163.254C309.658 162.594 309.988 161.934 310.328 161.254Z" fill="white"/>
<path d="M114.328 17.2539C114.658 17.2539 114.988 17.2539 115.328 17.2539C115.513 32.0352 115.513 32.0352 114.328 38.2539C113.338 37.9239 112.348 37.5939 111.328 37.2539C111.203 34.8789 111.203 34.8789 111.328 32.2539C111.988 31.5939 112.648 30.9339 113.328 30.2539C113.793 27.1319 113.793 27.1319 113.953 23.6289C114.028 22.4404 114.103 21.2519 114.18 20.0273C114.229 19.1121 114.278 18.1969 114.328 17.2539Z" fill="#050505"/>
<path d="M19.3281 238.254C19.9881 238.584 20.6481 238.914 21.3281 239.254C18.9743 243.177 16.6835 244.092 12.3281 245.254C14.6615 242.921 16.9948 240.587 19.3281 238.254ZM10.3281 245.254C10.9881 245.254 11.6481 245.254 12.3281 245.254C12.9881 246.904 13.6481 248.554 14.3281 250.254C11.8531 249.264 11.8531 249.264 9.32812 248.254C9.65813 247.264 9.98812 246.274 10.3281 245.254Z" fill="white"/>
<path d="M130.328 181.254C131.974 181.394 133.62 181.541 135.266 181.691C136.64 181.813 136.64 181.813 138.043 181.938C140.328 182.254 140.328 182.254 141.328 183.254C143.656 183.622 145.99 183.956 148.328 184.254C148.328 184.584 148.328 184.914 148.328 185.254C142.388 184.924 136.448 184.594 130.328 184.254C130.328 183.264 130.328 182.274 130.328 181.254Z" fill="#050505"/>
<path d="M332.328 211.254C332.658 212.244 332.988 213.234 333.328 214.254C331.348 216.234 329.368 218.214 327.328 220.254C326.668 219.924 326.008 219.594 325.328 219.254C327.638 216.614 329.948 213.974 332.328 211.254ZM323.328 220.254C323.988 220.254 324.648 220.254 325.328 220.254C324.578 222.191 324.578 222.191 323.328 224.254C321.203 225.004 321.203 225.004 319.328 225.254C320.609 223.546 321.946 221.88 323.328 220.254Z" fill="white"/>
<path d="M229.328 286.254C230.931 286.173 232.536 286.115 234.141 286.066C235.481 286.014 235.481 286.014 236.848 285.961C239.328 286.254 239.328 286.254 242.328 289.254C237.708 289.254 233.088 289.254 228.328 289.254C228.658 288.264 228.988 287.274 229.328 286.254Z" fill="white"/>
<path d="M178.328 222.255C177.998 222.915 177.668 223.575 177.328 224.255C176.379 224.378 175.431 224.502 174.453 224.63C171.23 224.953 171.23 224.953 169.453 227.317C169.082 227.956 168.711 228.596 168.328 229.255C167.338 228.925 166.348 228.595 165.328 228.255C169.57 223.289 171.465 221.431 178.328 222.255Z" fill="white"/>
<path d="M239.328 161.254C243.618 161.254 247.908 161.254 252.328 161.254C251.998 162.244 251.668 163.234 251.328 164.254C247.167 164.336 243.381 164.236 239.328 163.254C239.328 162.594 239.328 161.934 239.328 161.254Z" fill="#050505"/>
<path d="M302.766 175.004C303.548 174.978 304.331 174.952 305.137 174.926C307.807 175.326 308.648 176.201 310.328 178.254C308.745 178.308 307.162 178.347 305.578 178.379C304.696 178.402 303.815 178.425 302.906 178.449C300.215 178.245 298.629 177.619 296.328 176.254C298.655 175.09 300.175 175.055 302.766 175.004Z" fill="white"/>
<path d="M244.328 226.254C245.978 226.584 247.628 226.914 249.328 227.254C247.821 230.267 245.296 230.864 242.328 232.254C241.338 230.934 240.348 229.614 239.328 228.254C240.978 227.924 242.628 227.594 244.328 227.254C244.328 226.924 244.328 226.594 244.328 226.254Z" fill="white"/>
<path d="M32.3281 265.254C31.9981 265.914 31.6681 266.574 31.3281 267.254C27.0381 266.924 22.7481 266.594 18.3281 266.254C18.3281 265.924 18.3281 265.594 18.3281 265.254C23.1211 263.862 27.4795 264.567 32.3281 265.254Z" fill="#050505"/>
<path d="M341.328 159.254C342.318 159.254 343.308 159.254 344.328 159.254C344.328 162.224 344.328 165.194 344.328 168.254C343.338 168.584 342.348 168.914 341.328 169.254C341.328 165.954 341.328 162.654 341.328 159.254Z" fill="white"/>
<path d="M65.3281 253.253C65.3281 253.913 65.3281 254.573 65.3281 255.253C58.3981 254.758 58.3981 254.758 51.3281 254.253C51.3281 253.923 51.3281 253.593 51.3281 253.253C56.3511 252.123 60.3069 252.474 65.3281 253.253Z" fill="white"/>
<path d="M314.328 36.2539C316.638 36.2539 318.948 36.2539 321.328 36.2539C321.328 39.5539 321.328 42.8539 321.328 46.2539C320.998 46.2539 320.668 46.2539 320.328 46.2539C319.998 43.6139 319.668 40.9739 319.328 38.2539C317.678 37.9239 316.028 37.5939 314.328 37.2539C314.328 36.9239 314.328 36.5939 314.328 36.2539Z" fill="white"/>
<path d="M303.328 184.253C303.328 184.913 303.328 185.573 303.328 186.253C299.368 185.923 295.408 185.593 291.328 185.253C296.316 182.759 297.998 183.365 303.328 184.253Z" fill="white"/>
<path d="M347.328 105.254C347.658 105.254 347.988 105.254 348.328 105.254C348.355 106.712 348.375 108.171 348.391 109.629C348.402 110.441 348.414 111.253 348.426 112.09C348.328 114.254 348.328 114.254 347.328 116.254C346.668 116.254 346.008 116.254 345.328 116.254C345.078 108.629 345.078 108.629 347.328 105.254Z" fill="white"/>
<path d="M34.3281 226.254C34.3281 226.914 34.3281 227.574 34.3281 228.254C32.3594 229.762 32.3594 229.762 29.8281 231.379C28.9928 231.918 28.1575 232.457 27.2969 233.012C26.6472 233.422 25.9975 233.832 25.3281 234.254C27.0684 230.419 29.6911 226.254 34.3281 226.254Z" fill="#050505"/>
<path d="M300.328 241.254C298.939 244.61 297.411 246.327 294.328 248.254C293.668 248.254 293.008 248.254 292.328 248.254C292.328 247.594 292.328 246.934 292.328 246.254C297.804 241.254 297.804 241.254 300.328 241.254Z" fill="#050505"/>
<path d="M116.328 275.254C118.308 275.254 120.288 275.254 122.328 275.254C122.658 276.244 122.988 277.234 123.328 278.254C120.688 278.254 118.048 278.254 115.328 278.254C115.658 277.264 115.988 276.274 116.328 275.254Z" fill="white"/>
<path d="M227.328 208.254C228.648 208.584 229.968 208.914 231.328 209.254C230.083 212.99 228.694 213.441 225.328 215.254C225.658 214.47 225.988 213.686 226.328 212.879C227.447 210.411 227.447 210.411 227.328 208.254Z" fill="white"/>
<path d="M102.328 201.254C102.988 201.584 103.648 201.914 104.328 202.254C104.328 202.914 104.328 203.574 104.328 204.254C103.668 204.254 103.008 204.254 102.328 204.254C102.328 204.914 102.328 205.574 102.328 206.254C100.678 206.254 99.0281 206.254 97.3281 206.254C98.9781 204.604 100.628 202.954 102.328 201.254Z" fill="white"/>
</svg>
