<svg width="3316" height="3316" viewBox="0 0 3316 3316" fill="none" xmlns="http://www.w3.org/2000/svg">
<g id="logoAnthony">
<path id="a" d="M851.51 2770.17C851.605 2822.92 894.44 2865.6 947.183 2865.5C999.926 2865.4 1042.61 2822.57 1042.51 2769.83L851.51 2770.17ZM2367.84 2770L2274.68 2790.99C2285.29 2838.1 2329.41 2869.88 2377.46 2865.02C2425.51 2860.15 2462.36 2820.19 2463.32 2771.9L2367.84 2770ZM947.01 2770L1042.51 2769.83C1041.84 2398.78 1077.3 1845.39 1184.29 1390.32C1237.98 1161.97 1307.98 966.017 1395.36 830.704C1482.72 695.426 1574.98 637.977 1673.7 641.673L1677.27 546.24L1680.85 450.807C1485.83 443.505 1339.76 564.724 1234.91 727.086C1130.08 889.412 1053.97 1110.07 998.361 1346.61C886.751 1821.31 850.821 2390.8 851.51 2770.17L947.01 2770ZM1677.27 546.24L1673.7 641.673C1774.96 645.465 1868.22 710.653 1953.66 849.963C2038.94 989.009 2105.46 1185.67 2155.04 1412.25C2253.91 1864.05 2279.57 2406.38 2272.36 2768.1L2367.84 2770L2463.32 2771.9C2470.71 2401.53 2444.82 1842.98 2341.63 1371.42C2290.18 1136.33 2218.04 915.685 2116.48 750.103C2015.08 584.784 1873.33 458.014 1680.85 450.807L1677.27 546.24ZM2367.84 2770L2461.01 2749.01C2385.7 2414.72 2224.98 1949.66 1981.55 1663.38C1859.14 1519.43 1704.91 1408.11 1519.27 1397.92C1331.86 1387.64 1141.17 1481.79 950.163 1684.64L1019.69 1750.11L1089.22 1815.58C1259.19 1635.07 1398.95 1582.61 1508.8 1588.63C1620.4 1594.76 1730.24 1662.69 1836.05 1787.12C2049.06 2037.61 2201.43 2465.85 2274.68 2790.99L2367.84 2770Z" fill="#050505"/>
<rect id="rectangle" x="95.5" y="95.5" width="3125" height="3125" rx="300.5" stroke="#050505" stroke-width="191"/>
</g>
</svg>
