<svg width="261" height="426" viewBox="0 0 261 426" fill="none" xmlns="http://www.w3.org/2000/svg">
<path d="M158.5 4.00378C170.374 16.1291 170.055 37.6439 169.94 53.4007C169.772 63.378 167.793 71.115 163.5 80.0038C162.89 81.382 162.285 82.7623 161.684 84.1444C158.173 92.0614 154.747 99.406 148.062 105.129C147.321 105.771 146.58 106.413 145.816 107.074C143.5 109.004 143.5 109.004 140.927 110.649C137.748 113.734 137.592 116.392 137.355 120.609C137.296 121.358 137.236 122.106 137.175 122.877C136.988 125.314 136.836 127.752 136.688 130.191C136.57 131.874 136.451 133.556 136.331 135.238C135.106 153.245 135.087 171.009 136.5 189.004C136.681 188.25 136.861 187.496 137.047 186.719C145.797 150.409 145.797 150.409 150.5 141.004C150.413 139.232 150.305 137.461 150.188 135.691C150.071 118.226 157.805 97.7835 169.918 85.2577C177.446 78.6862 185.756 74.175 195.5 72.0038C196.117 71.8207 196.735 71.6377 197.371 71.4491C216.026 67.547 236.476 74.9301 252.5 84.0038C253.16 84.6638 253.82 85.3238 254.5 86.0038C254.412 89.3476 253.852 90.6623 251.438 93.0038C249.888 94.0589 248.328 95.104 246.707 96.0467C235.14 102.811 228.546 112.994 221.5 124.004C213.558 136.259 205 143.76 190.605 147.82C181.861 149.609 173.204 149.805 164.57 147.441C162.172 146.935 159.944 146.936 157.5 147.004C154.262 156.258 151.494 165.39 149.5 175.004C150.525 174.377 151.55 173.751 152.605 173.105C153.966 172.28 155.327 171.454 156.688 170.629C157.361 170.216 158.035 169.804 158.729 169.379C168.338 163.566 177.854 162.175 188.863 164.808C202.212 169.829 210.416 180.103 216.202 192.682C222.792 207.475 230.074 226.783 224.062 242.941C222.5 246.004 222.5 246.004 221.5 247.004C215.459 246.707 211.893 244.729 207.062 241.441C195.482 233.909 183.164 228.256 170.625 222.504C169.17 221.835 169.17 221.835 167.685 221.152C166.781 220.742 165.877 220.332 164.945 219.91C164.136 219.542 163.327 219.174 162.493 218.795C160.548 217.881 160.548 217.881 158.5 218.004C149.796 234.885 144.331 253.455 140.5 272.004C141.33 271.957 142.16 271.911 143.016 271.863C152.443 271.587 161.534 272.463 170.875 273.754C172.063 273.911 173.25 274.068 174.474 274.229C190.89 276.625 190.89 276.625 196.748 282.109C199.053 285.918 199.021 289.183 198.926 293.5C198.923 294.345 198.92 295.19 198.917 296.06C198.903 298.855 198.859 301.647 198.812 304.441C198.793 306.399 198.774 308.356 198.757 310.314C198.716 314.43 198.66 318.546 198.594 322.662C198.511 327.92 198.464 333.179 198.427 338.438C198.395 342.535 198.344 346.632 198.287 350.729C198.263 352.676 198.244 354.623 198.23 356.57C198.099 373.324 197.354 390.802 185.758 403.984C170.368 418.959 145.339 417.587 125.379 417.332C108.953 417.025 93.7046 414.964 80.9375 403.754C67.0641 388.102 68.3349 368.72 68.2617 349.062C68.2576 348.13 68.2536 347.199 68.2494 346.238C68.2287 341.326 68.2143 336.413 68.2048 331.5C68.1937 326.432 68.1591 321.365 68.1197 316.298C68.0936 312.387 68.0851 308.476 68.0815 304.565C68.0767 302.695 68.065 300.826 68.0465 298.956C68.0222 296.352 68.0231 293.75 68.03 291.146C68.0172 290.377 68.0044 289.607 67.9912 288.815C68.0251 285.346 68.2173 283.381 70.3235 280.567C73.3178 278.416 76.1006 277.772 79.6875 276.941C80.3851 276.778 81.0827 276.616 81.8015 276.448C93.2358 273.844 104.783 271.738 116.5 271.004C116.004 270.652 115.507 270.3 114.996 269.937C96.7394 256.669 86.1163 234.119 82.5 212.004C82.3874 210.11 82.3254 208.213 82.3125 206.316C82.2983 205.364 82.2841 204.411 82.2695 203.43C82.5 201.004 82.5 201.004 84.5 199.004C97.8433 198.976 110.613 209.018 120.5 217.004C117.633 191.851 117.633 191.851 104.5 171.004C98.616 172.583 93.8417 175.616 88.6875 178.754C80.3607 183.761 71.9459 188.563 63.4375 193.254C52.8301 199.136 43.0064 205.29 33.625 213.004C29.8746 216.006 27.2841 216.902 22.5 217.004C21.685 215.401 20.8731 213.796 20.0625 212.191C19.61 211.298 19.1576 210.405 18.6914 209.484C10.8074 193.07 16.9553 168.133 22.5703 151.562C28.999 133.733 40.5877 120.46 57.5 112.004C67.3971 111.115 76.185 111.98 84.2656 118.098C87.6242 121.044 90.7161 123.881 93.2812 127.555C96.2735 130.858 99.4809 132.115 103.562 133.754C104.282 134.057 105.002 134.36 105.744 134.672C108.636 135.88 111.526 137.012 114.5 138.004C114.077 137.219 114.077 137.219 113.646 136.418C103.796 118.087 103.796 118.087 101.316 110.816C100.34 108.648 99.3135 107.54 97.5 106.004C94.5588 105.424 91.7177 104.986 88.75 104.629C69.8652 101.958 50.0493 94.5484 37.4141 79.5233C31.8797 71.9008 27.2817 63.6455 22.5625 55.5038C22.2273 54.9256 21.8921 54.3474 21.5468 53.7516C13.5 39.8225 13.5 39.8225 13.5 35.4413C15.3036 31.0451 18.8382 29.7914 22.8984 27.8671C35.8585 22.6939 50.0404 24.6233 63.5625 26.2538C64.5013 26.3628 65.4402 26.4718 66.4075 26.5841C77.3194 28.0619 86.2467 31.5239 93.2734 40.1913C102.428 52.6641 111.611 70.9755 111.633 86.8827C111.634 87.8037 111.635 88.7247 111.637 89.6737C111.633 90.6282 111.629 91.5828 111.625 92.5663C111.629 93.5247 111.633 94.4831 111.637 95.4706C111.635 96.3903 111.634 97.3101 111.633 98.2577C111.632 99.0963 111.631 99.9349 111.629 100.799C111.5 103.004 111.5 103.004 110.5 106.004C111.588 108.28 112.73 110.395 114 112.566C118.761 121.038 122.162 129.896 125.5 139.004C128.905 123.456 128.905 123.456 126.109 108.875C124.92 107.636 123.704 106.422 122.463 105.236C114.738 96.4522 114.759 84.8335 114.958 73.8192C115 71.3747 114.999 68.933 114.992 66.4882C115.078 45.0526 123.017 30.5478 137.875 15.2538C150.699 2.69722 150.699 2.69722 158.5 4.00378Z" fill="#050505"/>
<path d="M79.5009 299.005C80.0419 299.094 80.5828 299.183 81.1401 299.275C96.9361 301.799 112.419 302.446 128.4 302.341C132.261 302.317 136.121 302.32 139.981 302.327C156.055 302.308 171.606 301.314 187.501 299.005C187.717 319.649 187.647 340.253 186.688 360.88C186.653 361.723 186.618 362.566 186.582 363.435C186.023 376.565 185.42 388.646 175.313 398.192C164.236 407.162 147.338 406.339 133.799 406.265C131.438 406.255 129.078 406.265 126.718 406.278C112.96 406.293 98.779 406.192 88.3642 395.891C77.9572 383.259 79.3476 368.055 79.4033 352.52C79.4051 350.968 79.4065 349.416 79.4075 347.864C79.4113 343.819 79.4211 339.775 79.4323 335.731C79.4426 331.588 79.4471 327.445 79.4521 323.302C79.4627 315.203 79.4798 307.104 79.5009 299.005Z" fill="white"/>
<path d="M252.5 84.0038C253.49 84.9938 253.49 84.9938 254.5 86.0038C254.412 89.3476 253.852 90.6623 251.438 93.0038C249.888 94.0589 248.328 95.104 246.707 96.0467C235.14 102.811 228.546 112.994 221.5 124.004C213.558 136.259 205 143.76 190.605 147.82C181.86 149.609 173.42 149.661 164.762 147.532C156.799 145.524 156.799 145.524 149.375 147.942C148.756 148.622 148.137 149.303 147.5 150.004C147.995 148.787 148.49 147.571 149 146.317C150.323 142.409 150.553 139.357 150.312 135.254C149.931 118.999 157.357 100.037 167.625 87.6293C175.309 79.683 184.741 74.4012 195.5 72.0038C196.117 71.8207 196.735 71.6377 197.371 71.4491C216.026 67.547 236.476 74.9301 252.5 84.0038Z" fill="#050505"/>
<path d="M75.6009 124.005C78.6445 125.609 80.9787 127.674 83.4994 130.005C80.5049 133 76.7605 133.923 72.8353 135.396C64.9716 139.19 60.2212 144.027 55.7494 151.443C55.2943 152.168 54.8393 152.893 54.3705 153.64C53.0559 155.748 51.7711 157.871 50.4994 160.005C49.9101 160.991 49.9101 160.991 49.3089 161.996C47.3468 165.343 45.9698 168.125 45.4994 172.005C48.9644 172.5 48.9644 172.5 52.4994 173.005C56.0326 167.485 59.3269 161.859 62.4681 156.107C65.6699 150.376 69.0648 145.317 74.9994 142.193C75.7315 141.795 76.4637 141.396 77.2181 140.986C84.1979 137.986 91.2387 138.44 98.2767 140.939C101.891 142.673 104.673 145.198 107.499 148.005C104.437 158.893 93.7273 164.822 84.4994 170.005C79.9253 172.46 75.3077 174.83 70.6886 177.198C63.1942 181.062 55.8501 185.141 48.5619 189.38C47.08 190.236 47.08 190.236 45.5682 191.11C40.4834 194.092 35.7201 197.191 31.1534 200.926C29.4994 202.005 29.4994 202.005 26.4994 202.005C25.2382 177.66 28.7515 152.258 45.1556 133.068C53.6671 124.092 63.4951 119.029 75.6009 124.005Z" fill="white"/>
<path d="M81.25 42.3797C91.8828 52.9356 101.082 71.309 101.625 86.5047C101.584 87.3297 101.543 88.1547 101.5 89.0047C100.964 88.3241 100.428 87.6434 99.875 86.9422C98.6994 85.4881 98.6994 85.4881 97.5 84.0047C96.3244 82.4578 96.3244 82.4578 95.125 80.8797C90.103 75.0399 83.6454 70.5838 77.5 66.0047C76.6673 65.3782 75.8345 64.7517 74.9766 64.1062C67.276 58.6297 58.8995 55.7141 49.5 55.0047C49.7601 57.898 49.7601 57.898 51.5 61.0047C54.63 63.0988 58.0394 64.4793 61.5 65.9422C63.4234 66.8083 65.344 67.6806 67.2617 68.5594C68.1761 68.978 69.0906 69.3966 70.0327 69.8279C81.2558 75.1807 89.5388 83.6353 94.5 95.0047C87.7129 94.4773 81.8429 93.0863 75.4375 90.8172C74.5912 90.5381 73.745 90.259 72.873 89.9715C66.8885 87.8813 62.3289 85.086 57.5 81.0047C56.9459 80.5441 56.3919 80.0835 55.821 79.6089C43.0125 68.6988 33.5746 56.2803 26.5 41.0047C26.5 40.3447 26.5 39.6847 26.5 39.0047C41.4304 33.2622 68.3967 32.123 81.25 42.3797Z" fill="white"/>
<path d="M223.562 83.318C224.397 83.5307 225.231 83.7434 226.09 83.9625C226.876 84.1791 227.663 84.3957 228.473 84.6188C229.177 84.8125 229.88 85.0063 230.606 85.2059C232.769 86.119 233.957 87.2584 235.5 89.0055C234.75 89.9375 234 90.8695 233.227 91.8297C232.192 93.1172 231.159 94.405 230.125 95.693C229.581 96.3713 229.036 97.0496 228.475 97.7484C225.448 101.532 222.462 105.341 219.536 109.204C200.809 133.909 200.809 133.909 186.5 137.006C180.505 137.449 174.501 137.241 168.5 137.006C168.5 132.962 170.459 130.78 172.75 127.631C173.195 127.016 173.639 126.401 174.097 125.767C192.431 100.942 192.431 100.942 205.75 98.3805C206.658 98.2568 207.565 98.133 208.5 98.0055C208.995 96.5205 208.995 96.5205 209.5 95.0055C199.426 93.9713 193.869 96.6519 186.145 102.916C179.082 109.079 172.551 115.856 165.967 122.523C164.483 124.022 162.993 125.515 161.5 127.006C162.873 115.527 166.568 105.492 174.5 97.0055C175.239 96.2114 175.977 95.4174 176.738 94.5993C190.266 80.5937 205.148 78.6074 223.562 83.318Z" fill="white"/>
<path d="M175.7 172.825C185.386 174.011 193.083 176.233 199.501 184.005C207.756 196.397 215.789 213.711 215.563 228.817C215.554 229.607 215.545 230.398 215.536 231.212C215.524 231.803 215.513 232.395 215.501 233.005C211.543 231.573 208.255 229.668 204.727 227.384C197.094 222.565 189.038 218.768 180.876 214.942C152.724 201.742 152.724 201.742 149.501 194.005C149.438 190.38 149.438 190.38 150.501 187.005C154.198 183.308 157.512 181.866 162.688 181.692C172.086 181.919 177.524 187.532 183.845 193.764C186.89 196.727 189.33 198.751 193.501 200.005C192.372 192.587 187.982 187.913 182.501 183.005C178.629 180.399 174.655 178.128 170.501 176.005C172.188 173.897 172.953 173.05 175.7 172.825Z" fill="white"/>
<path d="M154.501 18.0047C154.682 18.8271 154.864 19.6496 155.051 20.4969C156.247 25.807 157.459 31.0285 159.188 36.1922C164.216 52.9594 156.127 73.173 148.563 88.0047C146.093 92.3991 143.636 95.1495 139.501 98.0047C138.577 95.2337 138.372 93.5561 138.368 90.6961C138.366 89.8666 138.365 89.0371 138.364 88.1824C138.368 87.3194 138.372 86.4564 138.376 85.5672C138.372 84.708 138.368 83.8489 138.364 82.9637C138.365 82.1329 138.366 81.3021 138.368 80.4461C138.369 79.6902 138.37 78.9342 138.371 78.1553C138.501 75.9905 138.906 74.086 139.501 72.0047C137.851 72.0047 136.201 72.0047 134.501 72.0047C133.181 80.5847 131.861 89.1647 130.501 98.0047C125.493 92.9972 124.833 83.8321 124.501 77.0047C124.436 75.7221 124.372 74.4395 124.305 73.118C123.665 54.3057 130.443 39.7603 142.805 25.8446C150.246 18.0047 150.246 18.0047 154.501 18.0047Z" fill="white"/>
<path d="M92.5 212.005C99.265 213.962 104.04 217.676 109.5 222.005C110.166 222.529 110.833 223.054 111.52 223.595C120.345 231.424 125.105 244.147 125.914 255.723C125.992 257.317 126.063 258.911 126.125 260.505C126.164 261.327 126.202 262.15 126.242 262.997C126.335 264.999 126.419 267.002 126.5 269.005C111.094 253.927 95.2981 234.04 92.5 212.005Z" fill="white"/>
<path d="M114.5 65.0047C114.83 65.0047 115.16 65.0047 115.5 65.0047C115.504 65.694 115.508 66.3832 115.512 67.0933C115.073 88.7912 115.073 88.7912 125.312 107.005C128.458 110.288 128.995 112.467 129.062 117.005C128.637 124.705 127.597 132.374 126.5 140.005C123.775 138.643 123.639 137.297 122.546 134.481C122.177 133.547 121.807 132.613 121.427 131.65C121.038 130.654 120.65 129.657 120.25 128.63C117.386 121.408 114.492 114.548 110.398 107.93C109.5 106.005 109.5 106.005 110.5 103.005C110.717 100.942 110.889 98.8745 111.035 96.8055C111.122 95.597 111.209 94.3885 111.298 93.1434C111.385 91.8807 111.472 90.6181 111.562 89.3172C111.653 88.043 111.744 86.7687 111.837 85.4559C112.062 82.3057 112.282 79.1553 112.5 76.0047C112.83 76.0047 113.16 76.0047 113.5 76.0047C113.83 72.3747 114.16 68.7447 114.5 65.0047Z" fill="white"/>
<path d="M137.5 282.004C145.271 281.852 152.784 282.417 160.5 283.317C161.611 283.435 162.722 283.552 163.867 283.674C170.689 284.456 177.006 285.764 183.5 288.004C180.473 290.022 178.881 290.472 175.375 291.067C174.486 291.223 173.596 291.379 172.68 291.539C164.545 292.728 156.664 293.134 148.438 293.067C147.381 293.062 146.325 293.058 145.236 293.053C142.658 293.041 140.079 293.023 137.5 293.004C137.5 289.374 137.5 285.744 137.5 282.004Z" fill="white"/>
<path d="M124.5 282.005C125.16 285.635 125.82 289.265 126.5 293.005C116.914 293.258 107.436 292.918 97.875 292.192C96.8444 292.122 95.8138 292.052 94.752 291.98C89.3006 291.532 85.1708 290.914 80.5 288.005C87.1265 283.587 96.2238 283.58 104 282.88C104.873 282.793 105.745 282.707 106.645 282.618C112.62 282.06 118.499 281.929 124.5 282.005Z" fill="white"/>
<path d="M140.501 204.005C141.986 204.932 143.464 205.872 144.938 206.817C146.174 207.6 146.174 207.6 147.434 208.399C149.501 210.005 149.501 210.005 150.501 213.005C149.354 215.728 148.145 218.312 146.813 220.942C143.427 227.844 140.665 234.614 138.501 242.005C137.841 242.005 137.181 242.005 136.501 242.005C136.175 228.921 137.783 216.81 140.501 204.005Z" fill="white"/>
<path d="M117.5 146.005C120.226 148.731 120.697 151.736 121.562 155.38C121.739 156.118 121.915 156.856 122.097 157.616C124.087 166.655 124.309 175.781 124.5 185.005C121.409 180.989 118.878 176.742 116.312 172.38C115.849 171.604 115.386 170.828 114.908 170.028C114.471 169.286 114.033 168.543 113.582 167.778C113.182 167.102 112.782 166.426 112.37 165.729C111.5 164.005 111.5 164.005 111.5 162.005C112.304 161.448 113.109 160.891 113.938 160.317C117.282 157.299 117.268 155.422 117.5 151.005C117.535 149.338 117.55 147.671 117.5 146.005Z" fill="white"/>
<path d="M185.5 300.005C186.16 300.335 186.82 300.665 187.5 301.005C187.5 313.545 187.5 326.085 187.5 339.005C186.015 339.5 186.015 339.5 184.5 340.005C184.475 334.63 184.457 329.254 184.445 323.879C184.44 322.05 184.433 320.22 184.425 318.391C184.412 315.765 184.407 313.139 184.402 310.513C184.397 309.692 184.392 308.871 184.387 308.025C184.386 302.232 184.386 302.232 185.5 300.005Z" fill="white"/>
<path d="M114.5 65.0047C114.83 65.0047 115.16 65.0047 115.5 65.0047C115.5 72.2647 115.5 79.5247 115.5 87.0047C114.51 87.3347 113.52 87.6647 112.5 88.0047C112.643 89.5767 112.643 89.5767 112.789 91.1805C112.902 92.5593 113.014 93.9383 113.125 95.3172C113.189 96.0075 113.254 96.6978 113.32 97.409C113.618 101.261 113.708 102.693 111.5 106.005C110.84 106.005 110.18 106.005 109.5 106.005C109.83 105.015 110.16 104.025 110.5 103.005C110.717 100.942 110.889 98.8745 111.035 96.8055C111.122 95.597 111.209 94.3885 111.298 93.1434C111.385 91.8807 111.472 90.6181 111.562 89.3172C111.653 88.043 111.744 86.7687 111.837 85.4559C112.062 82.3057 112.282 79.1553 112.5 76.0047C112.83 76.0047 113.16 76.0047 113.5 76.0047C113.83 72.3747 114.16 68.7447 114.5 65.0047Z" fill="white"/>
<path d="M43.5 66.0047C46.3583 67.2971 48.361 68.6374 50.5234 70.9031C51.07 71.4652 51.6166 72.0272 52.1797 72.6063C53.3023 73.7806 54.4247 74.9551 55.5469 76.1297C58.9688 79.648 62.3123 82.4364 66.5 85.0047C66.17 85.6647 65.84 86.3247 65.5 87.0047C60.2015 83.2646 55.3459 79.1853 50.5625 74.8172C49.693 74.0327 49.693 74.0327 48.8059 73.2322C44.6201 69.365 44.6201 69.365 43.5 66.0047Z" fill="white"/>
<path d="M88.5 73.0047C92.4414 74.6722 95.2893 77.2318 98.5 80.0047C99.16 79.6747 99.82 79.3447 100.5 79.0047C100.83 82.3047 101.16 85.6047 101.5 89.0047C100.964 88.3241 100.428 87.6434 99.875 86.9422C98.0777 84.7193 96.2746 82.507 94.4375 80.3172C93.9515 79.7358 93.4655 79.1545 92.9648 78.5555C91.3832 76.7651 91.3832 76.7651 88.5 75.0047C88.5 74.3447 88.5 73.6847 88.5 73.0047Z" fill="white"/>
<path d="M135.5 167.005C135.83 167.005 136.16 167.005 136.5 167.005C136.83 170.635 137.16 174.265 137.5 178.005C137.83 178.005 138.16 178.005 138.5 178.005C138.358 179.734 138.211 181.463 138.062 183.192C137.981 184.155 137.9 185.118 137.816 186.11C137.523 188.791 137.073 191.371 136.5 194.005C136.17 194.005 135.84 194.005 135.5 194.005C135.5 185.095 135.5 176.185 135.5 167.005Z" fill="white"/>
<path d="M134.501 72.0047C136.151 72.0047 137.801 72.0047 139.501 72.0047C139.171 73.3247 138.84 74.6447 138.5 76.0047C138.17 75.3447 137.84 74.6847 137.5 74.0047C137.17 77.3047 136.84 80.6047 136.5 84.0047C135.18 83.3447 133.86 82.6847 132.5 82.0047C133.375 74.2547 133.376 74.2547 134.501 72.0047Z" fill="#050505"/>
<path d="M151.5 165.005C152.16 166.325 152.82 167.645 153.5 169.005C155.656 169.005 157.424 168.558 159.5 168.005C159.5 168.665 159.5 169.325 159.5 170.005C157.82 171.294 157.82 171.294 155.625 172.63C154.906 173.076 154.186 173.522 153.445 173.981C151.5 175.005 151.5 175.004 149.5 175.004C149.64 173.524 149.788 172.046 149.938 170.567C150.019 169.744 150.1 168.92 150.184 168.071C150.5 166.005 150.5 166.005 151.5 165.005Z" fill="white"/>
<path d="M137.5 225.005C137.83 225.005 138.16 225.005 138.5 225.005C138.5 227.645 138.5 230.285 138.5 233.005C139.16 233.005 139.82 233.005 140.5 233.005C139.84 235.975 139.181 238.945 138.501 242.005C137.841 242.005 137.181 242.005 136.501 242.005C136.474 239.546 136.454 237.088 136.438 234.63C136.429 233.931 136.421 233.232 136.412 232.513C136.387 227.231 136.387 227.231 137.5 225.005Z" fill="white"/>
<path d="M103.5 168.005C106.672 168.948 108.193 169.568 110.125 172.317C110.579 173.204 111.032 174.091 111.5 175.005C112.057 175.871 112.614 176.737 113.188 177.63C114.5 180.005 114.5 180.005 114.5 183.005C113.84 183.005 113.18 183.005 112.5 183.005C111.133 180.958 111.133 180.958 109.625 178.255C107.597 174.623 105.557 171.837 102.5 169.005C102.83 168.675 103.16 168.345 103.5 168.005Z" fill="#050505"/>
<path d="M166.5 414.005C166.5 414.665 166.5 415.325 166.5 416.005C161.779 418.523 156.728 418.607 151.5 418.005C150.51 417.345 149.52 416.685 148.5 416.005C150.937 415.669 153.375 415.336 155.812 415.005C156.503 414.909 157.193 414.814 157.904 414.716C160.796 414.324 163.578 414.005 166.5 414.005Z" fill="white"/>
<path d="M86.5 74.0047C90.6939 75.3611 92.8884 77.1164 95.75 80.4422C96.4358 81.2247 97.1216 82.0071 97.8281 82.8133C99.5 85.0047 99.5 85.0047 100.5 88.0047C99.51 88.0047 98.52 88.0047 97.5 88.0047C97.1081 87.3447 96.7163 86.6847 96.3125 86.0047C94.0742 82.2999 91.2555 79.6586 88.1445 76.6766C86.5 75.0047 86.5 75.0047 86.5 74.0047Z" fill="#050505"/>
<path d="M114.5 282.005C117.8 282.005 121.1 282.005 124.5 282.005C125.16 285.305 125.82 288.605 126.5 292.005C125.51 291.345 124.52 290.685 123.5 290.005C123.312 287.38 123.312 287.38 123.5 285.005C119.045 284.015 119.045 284.015 114.5 283.005C114.5 282.675 114.5 282.345 114.5 282.005Z" fill="white"/>
<path d="M92.5 212.005C98.25 213.755 98.25 213.755 100.5 216.005C99.8813 216.438 99.2625 216.871 98.625 217.317C96.2803 219.002 96.2803 219.002 94.5 222.005C93.84 218.705 93.18 215.405 92.5 212.005Z" fill="white"/>
<path d="M128.5 86.0047C129.49 86.3347 130.48 86.6647 131.5 87.0047C131.17 90.6347 130.841 94.2647 130.501 98.0047C128.188 95.6918 128.004 94.5257 127.375 91.3797C127.207 90.5624 127.04 89.7452 126.867 88.9031C126.746 88.2767 126.625 87.6502 126.5 87.0047C127.16 86.6747 127.82 86.3447 128.5 86.0047Z" fill="white"/>
<path d="M124.5 251.005C124.83 251.005 125.16 251.005 125.5 251.005C125.83 256.945 126.16 262.885 126.5 269.005C125.18 267.685 123.86 266.365 122.5 265.005C122.547 261.552 122.547 261.552 123.25 257.755C123.472 256.491 123.693 255.228 123.922 253.927C124.113 252.962 124.303 251.998 124.5 251.005Z" fill="white"/>
<path d="M73.5 64.0047C77.205 64.608 79.3597 66.2294 82.25 68.5672C83.4488 69.5282 83.4488 69.5282 84.6719 70.5086C85.5768 71.2492 85.5768 71.2492 86.5 72.0047C85.51 72.3347 84.52 72.6647 83.5 73.0047C83.0669 72.5303 82.6337 72.056 82.1875 71.5672C80.4769 69.7678 80.4769 69.7678 77.5 69.0047C77.5 68.3447 77.5 67.6847 77.5 67.0047C76.51 67.0047 75.52 67.0047 74.5 67.0047C74.17 66.0147 73.84 65.0247 73.5 64.0047Z" fill="#050505"/>
<path d="M41.5 205.005C41.5 205.665 41.5 206.325 41.5 207.005C39.5306 208.628 37.5665 210.14 35.5 211.63C34.6415 212.26 34.6415 212.26 33.7656 212.903C32.348 213.943 30.9245 214.975 29.5 216.005C29.5 215.015 29.5 214.025 29.5 213.005C30.16 213.005 30.82 213.005 31.5 213.005C31.5 212.345 31.5 211.685 31.5 211.005C33.1797 209.497 33.1797 209.497 35.375 207.88C36.0943 207.341 36.8136 206.802 37.5547 206.247C39.5 205.005 39.5 205.005 41.5 205.005Z" fill="#050505"/>
<path d="M162.762 179.246C163.962 179.56 163.962 179.56 165.188 179.879C165.996 180.083 166.804 180.287 167.637 180.496C168.252 180.664 168.866 180.832 169.5 181.004C169.5 181.664 169.5 182.324 169.5 183.004C165.54 183.004 161.58 183.004 157.5 183.004C157.5 182.344 157.5 181.684 157.5 181.004C160.5 179.004 160.5 179.004 162.762 179.246Z" fill="#050505"/>
<path d="M14.4992 35.0047C16.8484 37.3539 17.2306 38.9615 18.1242 42.1297C18.3846 43.0398 18.645 43.9499 18.9133 44.8875C19.2033 45.9355 19.2033 45.9355 19.4992 47.0047C18.8392 47.0047 18.1792 47.0047 17.4992 47.0047C16.7998 45.573 16.1151 44.134 15.4367 42.6922C15.0539 41.8917 14.671 41.0912 14.2766 40.2664C13.4992 38.0047 13.4992 38.0047 14.4992 35.0047Z" fill="#050505"/>
<path d="M140.5 272.004C145.78 272.004 151.06 272.005 156.5 272.005C156.5 272.335 156.5 272.665 156.5 273.005C154.588 273.423 152.67 273.813 150.75 274.192C149.683 274.413 148.615 274.633 147.516 274.86C144.5 275.005 144.5 275.004 140.5 272.004Z" fill="#050505"/>
<path d="M174.5 178.005C178.935 179.398 181.374 181.611 184.5 185.005C177.909 183.414 177.909 183.414 175.5 181.005C175.17 180.015 174.84 179.025 174.5 178.005Z" fill="#050505"/>
<path d="M118.5 96.0047C119.16 96.0047 119.82 96.0047 120.5 96.0047C121.2 97.2689 121.884 98.5414 122.562 99.8172C123.137 100.879 123.137 100.879 123.723 101.962C124.5 104.005 124.5 104.005 123.5 107.005C122.658 105.739 121.827 104.467 121 103.192C120.304 102.131 120.304 102.131 119.594 101.048C118.5 99.0047 118.5 99.0047 118.5 96.0047Z" fill="#050505"/>
<path d="M49.5 55.0047C50.16 55.0047 50.82 55.0047 51.5 55.0047C52.5678 56.9694 53.5655 58.9733 54.5 61.0047C54.17 61.6647 53.84 62.3247 53.5 63.0047C51.5 61.8172 51.5 61.8172 49.5 60.0047C49.25 57.3172 49.25 57.3172 49.5 55.0047Z" fill="#050505"/>
<path d="M214.5 224.005C214.83 224.005 215.16 224.005 215.5 224.005C215.5 226.975 215.501 229.945 215.501 233.005C210.626 231.255 210.625 231.255 209.5 229.005C211.15 229.005 212.8 229.005 214.5 229.005C214.5 227.355 214.5 225.705 214.5 224.005Z" fill="white"/>
<path d="M123.5 131.005C124.985 131.995 124.985 131.995 126.5 133.005C126.688 136.63 126.687 136.63 126.5 140.005C125.84 139.675 125.18 139.345 124.5 139.005C123.769 136.691 123.099 134.356 122.5 132.005C122.83 131.675 123.16 131.345 123.5 131.005Z" fill="white"/>
<path d="M111.5 91.0047C111.83 91.0047 112.16 91.0047 112.5 91.0047C112.722 92.9407 112.927 94.8786 113.125 96.8172C113.241 97.8962 113.357 98.9751 113.477 100.087C113.5 103.005 113.5 103.005 111.5 106.005C110.84 106.005 110.18 106.005 109.5 106.005C109.83 105.015 110.16 104.025 110.5 103.005C110.723 100.946 110.907 98.8824 111.062 96.8172C111.146 95.7305 111.23 94.6438 111.316 93.5242C111.377 92.6928 111.438 91.8613 111.5 91.0047Z" fill="white"/>
<path d="M151.5 195.005C152.842 195.93 154.173 196.871 155.5 197.817C156.614 198.6 156.614 198.6 157.75 199.399C158.327 199.929 158.905 200.459 159.5 201.005C159.5 201.995 159.5 202.985 159.5 204.005C158.345 203.269 157.201 202.515 156.062 201.755C155.105 201.128 155.105 201.128 154.129 200.489C152.201 198.732 151.885 197.544 151.5 195.005Z" fill="white"/>
<path d="M121.5 164.005C121.83 164.005 122.16 164.005 122.5 164.005C122.5 168.955 122.5 173.905 122.5 179.005C121.84 179.005 121.18 179.005 120.5 179.005C120.17 178.015 119.84 177.025 119.5 176.005C119.83 175.675 120.16 175.345 120.5 175.005C120.734 173.156 120.913 171.3 121.062 169.442C121.146 168.43 121.23 167.418 121.316 166.376C121.377 165.593 121.438 164.811 121.5 164.005Z" fill="white"/>
<path d="M43.5 66.0047C46.3844 67.2977 48.3722 68.6641 50.5 71.0047C50.17 71.9947 49.84 72.9847 49.5 74.0047C48.494 73.0526 47.4954 72.0928 46.5 71.1297C45.9431 70.596 45.3863 70.0624 44.8125 69.5125C43.5 68.0047 43.5 68.0047 43.5 66.0047Z" fill="white"/>
<path d="M132.5 21.0047C133.16 21.6647 133.82 22.3247 134.5 23.0047C132.025 24.4897 132.025 24.4897 129.5 26.0047C131.375 22.1297 131.375 22.1297 132.5 21.0047Z" fill="#050505"/>
<path d="M77.5 115.005C81.4367 116.317 83.7272 117.924 86.5 121.005C83.0167 120.36 80.4057 119.023 77.5 117.005C77.5 116.345 77.5 115.685 77.5 115.005Z" fill="#050505"/>
<path d="M137.5 94.0047C138.49 94.9947 139.48 95.9847 140.5 97.0047C141.82 96.3447 143.14 95.6847 144.5 95.0047C143.18 96.6547 141.86 98.3047 140.5 100.005C139.51 99.6747 138.52 99.3447 137.5 99.0047C137.5 97.3547 137.5 95.7047 137.5 94.0047Z" fill="#050505"/>
<path d="M130.5 80.0047C130.83 80.0047 131.16 80.0047 131.5 80.0047C131.625 83.3797 131.625 83.3797 131.5 87.0047C130.84 87.6647 130.18 88.3247 129.5 89.0047C129.17 88.3447 128.84 87.6847 128.5 87.0047C127.84 87.0047 127.18 87.0047 126.5 87.0047C126.83 86.0147 127.16 85.0247 127.5 84.0047C128.49 84.0047 129.48 84.0047 130.5 84.0047C130.5 82.6847 130.5 81.3647 130.5 80.0047Z" fill="white"/>
<path d="M164.5 110.005C165.16 110.335 165.82 110.665 166.5 111.005C165.51 113.975 164.52 116.945 163.5 120.005C162.84 119.345 162.18 118.685 161.5 118.005C161.895 115.042 163.098 112.621 164.5 110.005Z" fill="#050505"/>
<path d="M104.5 156.005C103.107 159.372 101.521 160.991 98.5 163.005C97.84 162.675 97.18 162.345 96.5 162.005C97.4521 160.999 98.4119 160 99.375 159.005C99.9087 158.448 100.442 157.891 100.992 157.317C102.5 156.005 102.5 156.005 104.5 156.005Z" fill="#050505"/>
<path d="M111.5 133.005C112.82 134.655 114.14 136.305 115.5 138.005C115.17 138.665 114.84 139.325 114.5 140.005C112.85 138.685 111.2 137.365 109.5 136.005C110.16 135.015 110.82 134.025 111.5 133.005Z" fill="white"/>
<path d="M178.5 108.005C177.107 111.372 175.521 112.991 172.5 115.005C173.128 111.36 174.353 108.005 178.5 108.005Z" fill="white"/>
<path d="M139.5 13.0047C138.107 16.3719 136.521 17.9907 133.5 20.0047C134.128 16.3601 135.353 13.0047 139.5 13.0047Z" fill="white"/>
</svg>
