<svg width="250" height="305" viewBox="0 0 250 305" fill="none" xmlns="http://www.w3.org/2000/svg">
<path d="M139.051 2.8003C141.375 4.04413 142.805 5.26397 144.625 7.14015C148.87 11.222 154.415 11.4185 160.012 12.1441C164.13 13.2665 165.235 14.4883 167.438 18.0776C169.82 23.4788 169.538 28.3918 168.438 34.0776C168.043 34.998 167.649 35.9184 167.242 36.8667C166.177 41.1182 167.193 43.3002 168.812 47.3276C171.438 53.9814 171.438 53.9814 171.438 56.0776C172.488 55.8727 173.539 55.6677 174.621 55.4566C176.039 55.1842 177.457 54.9121 178.875 54.6401C179.563 54.5054 180.25 54.3707 180.959 54.2319C199.628 50.6717 220.103 49.4178 236.992 59.4136C243.346 63.7373 247.868 68.3851 249.438 76.0776C251.623 91.7345 243.055 106.644 234.391 118.996C229.881 124.813 224.746 129.99 219.438 135.078C220.659 138.571 221.822 140.786 224.562 143.265C237.018 155.283 249.189 172.392 249.938 190.203C249.613 197.971 247.612 204.404 241.938 209.89C232.16 217.611 219.543 220.474 207.312 220.453C206.472 220.453 205.631 220.454 204.764 220.454C194.498 220.283 180.75 219.734 171.438 215.078C170.701 217.518 169.969 219.959 169.254 222.406C168.769 223.994 168.247 225.574 167.652 227.125C166.868 229.087 166.868 229.087 166.438 232.078C168.135 234.929 168.135 234.929 170.438 237.078C171.776 239.754 171.643 241.902 171.688 244.89C171.726 246.447 171.726 246.447 171.766 248.035C171.313 252.23 169.578 254.612 167.039 257.875C164.871 259.503 163.501 259.413 160.812 259.328C159.924 259.311 159.036 259.294 158.121 259.277C155.622 259.091 153.325 258.644 150.875 258.14C147.836 257.731 146.725 257.906 144.051 259.5C142.52 260.724 141.026 261.995 139.578 263.316C134.481 267.511 129.171 267.634 122.785 267.511C112.832 266.222 105.119 258.059 99.1865 250.48C90.3009 238.626 84.3056 225.617 81.4375 211.078C80.838 211.194 80.2385 211.31 79.6208 211.429C76.8726 211.959 74.1238 212.487 71.375 213.015C69.9606 213.289 69.9606 213.289 68.5176 213.568C48.8286 217.341 27.917 218.85 10.4375 207.078C3.93135 200.837 0.407313 193.739 0 184.765C0.338939 174.096 5.50211 163.263 12.8242 155.57C17.3962 150.761 19.8971 147.504 19.9106 140.848C19.8465 139.446 19.7549 138.045 19.6323 136.647C19.227 131.993 19.9504 129.948 22.4375 126.078C22.3802 122.003 19.3447 119.21 16.875 116.203C7.4063 104.254 -0.389872 91.6397 0.09375 75.9019C0.908529 69.2077 4.41424 64.2622 9.23438 59.6831C21.9889 50.3886 39.1467 50.4348 54.1641 52.6792C57.9511 53.351 61.6941 54.1956 65.4375 55.0776C67.3317 55.4814 69.2273 55.8784 71.125 56.2651C71.8507 56.4237 72.5765 56.5823 73.3242 56.7456C75.7215 57.1223 78.0147 57.1328 80.4375 57.0776C80.9338 55.8685 81.4301 54.6594 81.9414 53.4136C84.0619 48.2821 86.2338 43.1739 88.4375 38.0776C88.8774 37.0557 88.8774 37.0557 89.3262 36.0132C95.7733 21.3101 106.334 7.48019 121.438 1.07765C127.89 -1.07317 132.983 0.251537 139.051 2.8003Z" fill="#050505"/>
<path d="M128.495 87.8252C130.726 88.7747 132.892 89.8106 135.062 90.8897C135.866 91.282 136.67 91.6744 137.499 92.0787C140.156 93.3908 142.798 94.7296 145.438 96.0772C146.403 96.5678 147.369 97.0585 148.365 97.564C151.339 99.0881 154.296 100.639 157.25 102.202C158.174 102.68 159.099 103.158 160.051 103.651C161.366 104.361 161.366 104.361 162.707 105.085C163.476 105.494 164.246 105.903 165.038 106.324C168.935 109.171 172.736 112.307 173.962 117.15C174.145 119.461 174.14 121.695 174.059 124.011C174.049 125.266 174.049 125.266 174.04 126.546C174.013 129.204 173.944 131.858 173.875 134.515C173.853 136.294 173.835 138.073 173.818 139.853C173.553 160.66 173.553 160.66 171.039 163.855C162.482 168.877 153.474 172.998 144.438 177.077C143.495 177.506 142.552 177.935 141.581 178.377C138.727 179.667 135.866 180.938 133 182.202C132.106 182.605 131.213 183.007 130.292 183.422C129.454 183.785 128.617 184.148 127.754 184.522C127.016 184.848 126.278 185.173 125.518 185.507C120.753 186.813 116.479 183.753 112.312 181.64C111.276 181.116 111.276 181.116 110.219 180.582C104.689 177.761 99.2025 174.859 93.75 171.89C92.9964 171.486 92.2428 171.083 91.4663 170.667C83.0629 166.028 83.0629 166.028 80.4375 162.077C79.5984 157.419 79.5044 152.802 79.4375 148.077C79.4114 146.791 79.3853 145.505 79.3584 144.18C79.3133 140.876 79.2966 137.575 79.3071 134.271C79.3125 132.248 79.3071 130.226 79.3008 128.204C79.3044 124.493 79.3514 120.787 79.4375 117.077C79.4559 116.15 79.4742 115.223 79.4932 114.267C79.7066 110.615 80.0281 108.531 82.5117 105.776C86.0509 103.721 89.6038 101.749 93.25 99.8897C97.8504 97.5242 102.403 95.1385 106.828 92.4561C107.53 92.0367 108.231 91.6174 108.954 91.1853C110.282 90.3848 111.601 89.5681 112.907 88.7327C118.42 85.4463 122.717 85.7247 128.495 87.8252Z" fill="white"/>
<path d="M209.438 143.078C223.516 154.461 236.305 170.535 239.5 188.828C239.84 194.531 237.564 198.6 233.926 202.84C227.172 209.342 218.291 209.466 209.312 209.453C208.379 209.454 207.446 209.456 206.484 209.457C195.61 209.298 185.056 207.291 174.438 205.078C175.754 196.97 177.158 188.887 178.75 180.828C179.031 179.293 179.031 179.293 179.318 177.727C181.601 166.307 186.149 160.644 195.438 153.828C197.021 152.635 198.604 151.443 200.188 150.25C200.924 149.703 201.66 149.156 202.418 148.592C204.801 146.806 207.129 144.959 209.438 143.078Z" fill="white"/>
<path d="M205.918 62.8864C217.067 62.5341 227.809 63.7216 236.266 71.613C239.502 75.6578 238.918 81.2096 238.438 86.0778C234.288 102.769 221.862 116.727 210.438 129.078C206.113 127.665 203.525 125.577 200.25 122.453C195.859 118.335 191.35 114.57 186.531 110.965C181.484 106.416 180.781 101.569 179.938 95.1403C178.905 87.9249 177.622 80.8717 175.988 73.7653C175.438 71.0778 175.438 71.0778 175.438 68.0778C185.662 65.5276 195.382 63.4658 205.918 62.8864Z" fill="white"/>
<path d="M37.2506 62.7036C38.7522 62.7049 38.7522 62.7049 40.2841 62.7063C49.9426 62.8569 59.1746 64.3584 68.4381 67.0786C69.1885 67.2982 69.9389 67.5179 70.7121 67.7441C72.9108 68.4653 72.9108 68.4653 76.4381 70.0786C77.8546 73.7137 77.0959 76.296 76.1256 80.0161C74.9432 84.6728 74.2073 89.1127 73.7506 93.8911C72.6489 100.976 70.0165 103.811 64.4381 108.079C63.8505 108.579 63.2628 109.079 62.6574 109.594C55.4281 115.744 48.6837 121.43 38.7506 120.766C34.6389 120.251 30.931 119.499 28.0006 116.391C27.104 114.98 26.257 113.536 25.4381 112.079C24.3206 110.449 23.203 108.819 22.0844 107.19C15.987 98.117 9.44693 87.4202 10.4381 76.0786C11.6358 72.173 13.4086 69.1817 16.1881 66.2036C22.8646 62.8654 29.9383 62.6919 37.2506 62.7036Z" fill="white"/>
<path d="M48.4369 150.078C50.8822 152.117 50.8822 152.117 53.5619 154.703C57.8183 158.756 62.1932 162.104 67.2455 165.117C73.0375 170.3 74.3505 177.921 75.6869 185.266C75.8596 186.142 76.0324 187.018 76.2103 187.92C76.9921 192.012 77.6796 195.892 77.4369 200.078C76.0021 200.545 74.5638 201.001 73.1244 201.453C71.9236 201.836 71.9236 201.836 70.6986 202.227C61.7657 204.559 53.1587 205.442 43.9369 205.453C42.361 205.49 42.361 205.49 40.7533 205.527C30.8046 205.564 22.209 203.394 14.7767 196.543C10.6809 192.065 11.0188 188.361 11.1283 182.559C11.9897 172.843 16.6254 165.651 22.4369 158.078C22.8752 157.371 23.3134 156.663 23.765 155.934C26.0695 152.525 27.4653 151.267 31.597 150.465C33.8978 150.294 36.2043 150.186 38.5111 150.149C48.0395 149.92 48.0395 149.92 48.4369 150.078Z" fill="white"/>
<path d="M132.438 11.0777C136.364 13.1523 139.156 15.264 141.438 19.0777C141.625 21.8824 141.625 21.8824 141.438 24.9527C141.325 29.8107 141.439 33.0447 144.438 37.0777C146.838 38.7831 149.25 39.9876 151.898 41.2613C155.158 43.5931 156.098 45.7979 157.688 49.4527C158.188 50.5742 158.688 51.6957 159.203 52.8511C160.27 55.6411 160.9 58.1571 161.438 61.0777C156.142 62.9651 150.84 64.8342 145.532 66.6868C143.728 67.3193 141.926 67.9566 140.125 68.5989C137.533 69.5229 134.936 70.4288 132.336 71.3316C131.536 71.6211 130.735 71.9106 129.911 72.2089C122.627 74.703 118.026 73.5074 110.945 70.5738C109.746 70.0807 108.548 69.5877 107.312 69.0797C106.062 68.5583 104.812 68.0368 103.562 67.5152C102.289 66.9892 101.016 66.4638 99.7422 65.939C96.6383 64.6575 93.5369 63.3702 90.4375 62.0777C91.7136 54.8541 94.0979 49.0828 97.5625 42.6402C98.0553 41.7144 98.5481 40.7886 99.0559 39.8348C102.584 33.3427 106.331 27.4564 111.438 22.0777C112.128 21.3326 112.819 20.5875 113.531 19.8199C119.163 13.9569 123.751 9.52767 132.438 11.0777Z" fill="white"/>
<path d="M136.562 202.329C137.391 202.643 138.219 202.958 139.072 203.281C140.74 203.915 142.408 204.551 144.074 205.189C146.217 205.996 148.368 206.764 150.531 207.513C151.697 207.926 152.862 208.34 154.062 208.766C155.086 209.121 156.11 209.475 157.164 209.841C159.438 211.079 159.438 211.079 160.434 212.79C160.444 218.674 156.662 226.563 152.77 230.966C151.369 232.062 149.907 233.077 148.438 234.079C146.67 236.909 146.259 239.031 146.188 242.329C145.588 248.821 141.918 252.874 137.188 257.079C131.942 258.986 127.074 259.129 121.848 257.048C104.869 247.63 96.6893 227.893 91.4375 210.079C91.4375 209.419 91.4375 208.759 91.4375 208.079C92.1383 207.847 92.8392 207.615 93.5613 207.376C96.7497 206.32 99.9374 205.262 103.125 204.204C104.228 203.839 105.331 203.474 106.467 203.098C108.067 202.567 108.067 202.567 109.699 202.024C110.679 201.7 111.658 201.375 112.667 201.04C114.498 200.405 116.31 199.707 118.094 198.947C124.145 196.707 130.859 200.137 136.562 202.329Z" fill="white"/>
<path d="M128.711 111.212C139.144 116.231 144.969 121.349 149.438 132.079C150.977 136.697 151.099 141.262 150.438 146.079C148.996 148.444 147.721 149.424 145.438 151.079C146.184 154.178 146.184 154.178 148.563 155.891C149.182 156.613 149.801 157.335 150.438 158.079C150.188 161.329 150.188 161.329 149.438 164.079C142.982 163.446 142.982 163.446 140.145 161.532C136.629 159.645 134.272 159.914 130.313 160.141C118.208 160.472 109.491 155.958 100.438 148.079C95.3704 142.309 95.0724 137.875 95.1724 130.372C95.6405 124.569 97.2973 121.059 101.567 117.11C110.046 110.293 117.859 107.456 128.711 111.212Z" fill="#050505"/>
<path d="M120.812 120.738C127.885 121.654 132.703 125.497 137.151 130.918C139.307 134.542 139.067 136.946 138.437 141.078C137.777 142.068 137.117 143.058 136.437 144.078C132.813 143.494 131.02 142.066 128.374 139.578C125.931 137.29 124.656 136.151 121.437 135.078C121.737 135.754 122.037 136.429 122.347 137.125C122.727 138.017 123.107 138.909 123.499 139.828C124.073 141.151 124.073 141.151 124.659 142.5C125.483 145.231 125.414 146.447 124.437 149.078C119.32 149.718 116.383 148.37 112.272 145.559C109.011 142.929 106.867 140.314 106.062 136.129C105.7 130.197 108.082 126.952 111.78 122.437C114.573 120.146 117.334 120.612 120.812 120.738Z" fill="white"/>
<path d="M145.688 289.016C148.438 290.078 148.438 290.078 151.375 292.203C154.346 294.409 154.346 294.409 158 293.953C161.341 293.208 161.341 293.208 163.938 291.953C167.365 290.753 169.933 291.337 173.438 292.078C174.438 293.078 174.438 293.078 174.812 295.391C174.438 298.078 174.438 298.078 172.25 300.266C167.506 303.323 164.11 304.49 158.438 304.078C155.297 302.766 155.297 302.766 152.188 301.078C148.503 298.864 148.503 298.864 144.438 298.078C143.86 298.697 143.283 299.316 142.688 299.953C138.2 304.191 132.974 304.514 127.043 304.406C121.91 303.76 117.106 301.746 113.438 298.078C113.25 295.016 113.25 295.016 113.438 292.078C113.768 291.748 114.097 291.418 114.438 291.078C120.66 291.665 120.66 291.665 123.438 293.141C126.664 294.653 128.893 294.478 132.438 294.078C134.15 293.275 135.837 292.416 137.5 291.516C140.618 289.855 142.106 289.085 145.688 289.016Z" fill="#050505"/>
<path d="M163.438 70.0779C165.802 75.2141 167.375 80.1958 168.625 85.7029C168.802 86.4403 168.979 87.1776 169.162 87.9373C170.041 91.7223 170.662 95.1636 170.438 99.0779C166.765 97.0881 163.1 95.086 159.438 93.0779C158.714 92.6816 157.991 92.2852 157.247 91.8768C154.871 90.572 152.498 89.263 150.125 87.9529C149.361 87.5335 148.596 87.1141 147.809 86.6819C143.544 84.3217 139.45 81.8465 135.438 79.0779C136.438 77.0779 136.438 77.0779 138.491 76.2083C139.818 75.7841 139.818 75.7841 141.172 75.3514C142.139 75.042 143.105 74.7326 144.102 74.4139C145.12 74.0968 146.138 73.7797 147.188 73.4529C148.692 72.9657 148.692 72.9657 150.227 72.4686C154.791 71.0279 158.612 69.875 163.438 70.0779Z" fill="white"/>
<path d="M69.438 117.078C69.4328 117.762 69.4276 118.446 69.4222 119.151C69.273 137.638 69.273 137.638 70.438 156.078C53.9498 144.622 53.9498 144.622 51.438 136.016C51.0823 133.035 51.1924 131.55 52.5826 128.879C56.2148 124.413 63.3406 117.078 69.438 117.078Z" fill="white"/>
<path d="M168.438 175.078C168.694 180.99 167.733 186.26 166.438 192.016C166.151 193.328 166.151 193.328 165.859 194.666C165.392 196.805 164.918 198.942 164.438 201.078C156.049 199.952 148.05 197.856 140.438 194.078C139.777 193.088 139.118 192.098 138.438 191.078C144.954 186.957 151.681 183.296 158.5 179.703C159.358 179.25 160.215 178.797 161.099 178.331C167.309 175.078 167.309 175.078 168.438 175.078Z" fill="white"/>
<path d="M184.438 124.078C189.427 125.076 190.826 125.833 194.562 128.953C195.411 129.652 196.259 130.35 197.133 131.07C198.983 132.682 200.738 134.312 202.438 136.078C201.095 139.1 199.644 141.08 197.215 143.312C196.594 143.886 195.973 144.46 195.334 145.051C194.688 145.637 194.041 146.224 193.375 146.828C192.725 147.43 192.074 148.032 191.404 148.652C186.582 153.078 186.582 153.078 185.438 153.078C185.107 143.508 184.778 133.938 184.438 124.078Z" fill="white"/>
<path d="M87.4375 74.0781C94.5892 74.5771 100.85 77.3938 107.438 80.0781C107.438 80.7381 107.438 81.3981 107.438 82.0781C104.005 83.9215 100.566 85.7511 97.125 87.5781C96.1485 88.1028 95.1721 88.6274 94.166 89.168C93.2282 89.6643 92.2904 90.1605 91.3242 90.6719C90.4601 91.1327 89.5961 91.5936 88.7058 92.0684C86.4375 93.0781 86.4375 93.0781 83.4375 93.0781C83.7212 90.8479 84.0148 88.619 84.3125 86.3906C84.4749 85.1493 84.6373 83.9079 84.8047 82.6289C85.3623 79.5002 86.1276 76.9566 87.4375 74.0781Z" fill="white"/>
<path d="M85.4381 180.078C90.7919 181.635 95.4396 184.06 100.313 186.703C101.097 187.123 101.881 187.544 102.688 187.977C104.607 189.006 106.523 190.042 108.438 191.078C105.14 193.277 102.3 194.161 98.5006 195.266C97.2747 195.63 96.0488 195.995 94.7858 196.371C91.7292 197.017 90.2838 197.198 87.4381 196.078C86.2472 190.698 85.1462 185.625 85.4381 180.078Z" fill="white"/>
<path d="M184.438 132.078C184.768 132.078 185.097 132.078 185.438 132.078C185.768 138.678 186.097 145.278 186.438 152.078C189.078 149.438 191.717 146.798 194.438 144.078C195.098 144.408 195.757 144.738 196.438 145.078C196.107 146.068 195.778 147.058 195.438 148.078C194.447 148.408 193.457 148.738 192.438 149.078C191.2 150.316 191.2 150.316 189.938 151.578C187.438 154.078 187.438 154.078 184.438 155.078C184.438 147.488 184.438 139.898 184.438 132.078ZM199.438 132.078C201.375 132.828 201.375 132.828 203.438 134.078C204.25 135.953 204.25 135.953 204.438 138.078C203.223 139.781 203.223 139.781 201.5 141.328C200.934 141.849 200.368 142.37 199.785 142.906C199.34 143.293 198.896 143.68 198.438 144.078C197.777 143.748 197.118 143.418 196.438 143.078C198.087 141.428 199.737 139.778 201.438 138.078C200.777 136.098 200.118 134.118 199.438 132.078Z" fill="#050505"/>
<path d="M184.438 124.078C188.843 124.599 191.184 126.133 194.562 128.953C195.411 129.652 196.259 130.35 197.133 131.07C198.983 132.682 200.738 134.312 202.438 136.078C201.777 137.398 201.118 138.718 200.438 140.078C199.777 139.418 199.118 138.758 198.438 138.078C198.438 137.088 198.438 136.098 198.438 135.078C196.288 132.932 196.288 132.932 193.562 130.891C192.658 130.175 191.753 129.46 190.82 128.723C188.646 126.889 188.646 126.889 186.438 127.078C186.107 128.728 185.778 130.378 185.438 132.078C185.107 132.078 184.778 132.078 184.438 132.078C184.438 129.438 184.438 126.798 184.438 124.078Z" fill="white"/>
<path d="M34.4375 212.078C35.4275 212.738 36.4175 213.398 37.4375 214.078C40.1917 214.379 42.864 214.587 45.625 214.703C46.7494 214.761 46.7494 214.761 47.8965 214.82C49.7431 214.914 51.5903 214.997 53.4375 215.078C53.4375 215.408 53.4375 215.738 53.4375 216.078C43.5708 216.273 34.094 216.46 24.4375 214.078C28.1247 211.62 30.081 211.767 34.4375 212.078Z" fill="#050505"/>
<path d="M121.438 135.078C124.829 135.671 126.648 136.846 129.188 139.141C130.108 139.962 130.108 139.962 131.047 140.801C131.735 141.433 131.735 141.433 132.438 142.078C131.447 142.408 130.457 142.738 129.438 143.078C129.438 142.418 129.438 141.758 129.438 141.078C128.674 141.305 127.911 141.532 127.125 141.766C124.438 142.078 124.438 142.078 122.625 140.891C121.438 139.078 121.438 139.078 121.438 135.078Z" fill="#050505"/>
<path d="M202.438 63.0772C204.833 63.0501 207.229 63.0303 209.625 63.0147C210.299 63.0063 210.972 62.998 211.666 62.9893C215.392 62.9712 218.816 63.1842 222.438 64.0772C222.438 64.4072 222.438 64.7372 222.438 65.0772C215.294 66.2483 209.481 65.6702 202.438 64.0772C202.438 63.7472 202.438 63.4172 202.438 63.0772Z" fill="white"/>
<path d="M209.438 142.078C207.895 146.479 204.423 148.674 200.812 151.328C199.896 152.016 199.896 152.016 198.961 152.719C197.458 153.846 195.949 154.963 194.438 156.078C194.438 155.088 194.438 154.098 194.438 153.078C196.518 151.054 198.573 149.221 200.812 147.391C201.416 146.88 202.019 146.368 202.641 145.842C207.163 142.078 207.163 142.078 209.438 142.078Z" fill="#050505"/>
<path d="M117 291.016C118.207 291.047 118.207 291.047 119.438 291.078C119.438 292.068 119.438 293.058 119.438 294.078C118.447 294.078 117.457 294.078 116.438 294.078C116.768 296.388 117.097 298.698 117.438 301.078C115.438 299.953 115.438 299.953 113.438 298.078C113.125 294.953 113.125 294.953 113.438 292.078C114.438 291.078 114.438 291.078 117 291.016Z" fill="#050505"/>
<path d="M170.437 239.078C170.767 239.078 171.097 239.078 171.437 239.078C171.491 241.015 171.53 242.953 171.562 244.891C171.585 245.97 171.608 247.049 171.632 248.16C171.437 251.078 171.437 251.078 169.437 254.078C167.82 249.227 169.02 243.937 170.437 239.078Z" fill="#050505"/>
<path d="M47.4375 61.0775C52.8579 60.671 56.5077 62.0376 61.4375 64.0775C61.4375 64.7375 61.4375 65.3975 61.4375 66.0775C59.477 65.8227 57.5191 65.5481 55.5625 65.265C53.9267 65.0388 53.9267 65.0388 52.2578 64.808C49.4375 64.0775 49.4375 64.0775 47.4375 61.0775Z" fill="#050505"/>
<path d="M147.438 148.078C148.098 148.738 148.757 149.398 149.438 150.078C148.777 151.398 148.118 152.718 147.438 154.078C148.758 154.738 150.077 155.398 151.438 156.078C151.438 157.728 151.438 159.378 151.438 161.078C150.777 160.088 150.118 159.098 149.438 158.078C147.791 156.392 146.126 154.722 144.438 153.078C146.312 149.203 146.312 149.203 147.438 148.078Z" fill="white"/>
<path d="M168.438 89.0781C168.768 89.0781 169.097 89.0781 169.438 89.0781C169.768 92.3781 170.097 95.6781 170.438 99.0781C168.457 98.0881 166.477 97.0981 164.438 96.0781C164.768 95.4181 165.097 94.7581 165.438 94.0781C166.098 94.0781 166.757 94.0781 167.438 94.0781C167.768 92.4281 168.097 90.7781 168.438 89.0781Z" fill="white"/>
<path d="M142.438 294.078C144.625 293.766 144.625 293.766 147.438 294.078C150.25 296.578 150.25 296.578 152.438 299.078C152.107 299.738 151.778 300.398 151.438 301.078C149.457 299.758 147.477 298.438 145.438 297.078C144.447 297.573 144.447 297.573 143.438 298.078C143.107 296.758 142.778 295.438 142.438 294.078Z" fill="#050505"/>
<path d="M142.438 289.078C146.604 289.552 149.366 290.125 152.438 293.078C152.438 293.738 152.438 294.398 152.438 295.078C148.438 295.078 148.438 295.078 146.688 293.703C145.438 292.078 145.438 292.078 145.438 290.078C144.447 289.748 143.457 289.418 142.438 289.078Z" fill="#050505"/>
<path d="M27.4375 152.078C28.4275 152.738 29.4175 153.398 30.4375 154.078C28.7875 155.728 27.1375 157.378 25.4375 159.078C24.4475 158.748 23.4575 158.418 22.4375 158.078C24.0875 156.098 25.7375 154.118 27.4375 152.078Z" fill="white"/>
<path d="M105.438 194.078C104.777 194.078 104.118 194.078 103.438 194.078C103.438 194.738 103.438 195.398 103.438 196.078C100.797 196.408 98.1575 196.738 95.4375 197.078C95.4375 196.418 95.4375 195.758 95.4375 195.078C101.723 192.65 101.723 192.65 105.438 194.078Z" fill="#050505"/>
<path d="M65.4375 164.078C66.4275 164.078 67.4175 164.078 68.4375 164.078C68.4375 164.738 68.4375 165.398 68.4375 166.078C70.9125 167.068 70.9125 167.068 73.4375 168.078C73.4375 169.398 73.4375 170.718 73.4375 172.078C72.7775 172.078 72.1175 172.078 71.4375 172.078C71.19 171.294 70.9425 170.511 70.6875 169.703C69.2836 166.755 68.4307 166.176 65.4375 165.078C65.4375 164.748 65.4375 164.418 65.4375 164.078Z" fill="#050505"/>
<path d="M10.4375 81.0781C10.7675 81.0781 11.0975 81.0781 11.4375 81.0781C12.4275 84.7081 13.4175 88.3381 14.4375 92.0781C13.4475 91.7481 12.4575 91.4181 11.4375 91.0781C11.4375 90.0881 11.4375 89.0981 11.4375 88.0781C10.7775 88.0781 10.1175 88.0781 9.4375 88.0781C9.7675 85.7681 10.0975 83.4581 10.4375 81.0781Z" fill="#050505"/>
<path d="M139.438 76.0781C140.098 76.4081 140.757 76.7381 141.438 77.0781C141.107 78.0681 140.778 79.0581 140.438 80.0781C141.098 80.4081 141.757 80.7381 142.438 81.0781C142.107 81.7381 141.778 82.3981 141.438 83.0781C139.457 81.7581 137.477 80.4381 135.438 79.0781C136.438 77.0781 136.438 77.0781 139.438 76.0781Z" fill="white"/>
<path d="M93.4385 51.0781C94.0985 51.0781 94.7585 51.0781 95.4385 51.0781C95.1085 53.3881 94.7785 55.6981 94.4385 58.0781C93.7785 58.0781 93.1185 58.0781 92.4385 58.0781C92.1085 59.3981 91.7785 60.7181 91.4385 62.0781C90.302 58.6688 90.571 58.0748 91.876 54.8906C92.3072 53.8175 92.3072 53.8175 92.7471 52.7227C92.9752 52.18 93.2034 51.6373 93.4385 51.0781Z" fill="white"/>
<path d="M103.438 14.0781C104.098 14.4081 104.757 14.7381 105.438 15.0781C104.447 15.7381 103.457 16.3981 102.438 17.0781C102.768 16.0881 103.097 15.0981 103.438 14.0781ZM100.438 18.0781C100.438 19.0681 100.438 20.0581 100.438 21.0781C99.4475 21.5731 99.4475 21.5731 98.4375 22.0781C99.0975 20.7581 99.7575 19.4381 100.438 18.0781ZM97.4375 22.0781C98.0975 22.7381 98.7575 23.3981 99.4375 24.0781C97.4575 25.0681 97.4575 25.0681 95.4375 26.0781C96.0975 24.7581 96.7575 23.4381 97.4375 22.0781Z" fill="#050505"/>
<path d="M102.438 189.078C104.418 189.738 106.398 190.398 108.438 191.078C105.52 193.023 103.812 193.531 100.438 194.078C100.107 193.418 99.7775 192.758 99.4375 192.078C100.428 191.418 101.418 190.758 102.438 190.078C102.438 189.748 102.438 189.418 102.438 189.078Z" fill="white"/>
<path d="M120.438 145.078C122.087 145.078 123.737 145.078 125.438 145.078C125.107 146.398 124.778 147.718 124.438 149.078C122.788 148.748 121.138 148.418 119.438 148.078C119.768 147.088 120.097 146.098 120.438 145.078Z" fill="white"/>
<path d="M168.437 33.0781C169.996 36.1964 169.103 38.7489 168.437 42.0781C167.447 42.5731 167.447 42.5731 166.437 43.0781C165.374 39.6942 165.223 38.4977 166.875 35.2656C167.39 34.5437 167.906 33.8219 168.437 33.0781Z" fill="white"/>
<path d="M238.438 188.078C238.768 188.078 239.097 188.078 239.438 188.078C239.107 190.718 238.778 193.358 238.438 196.078C238.107 195.418 237.778 194.758 237.438 194.078C236.777 194.078 236.118 194.078 235.438 194.078C235.768 192.758 236.097 191.438 236.438 190.078C237.098 190.078 237.757 190.078 238.438 190.078C238.438 189.418 238.438 188.758 238.438 188.078Z" fill="white"/>
<path d="M111.438 143.078C114.549 144.576 117.491 146.277 120.438 148.078C119.447 148.573 119.447 148.573 118.438 149.078C115.962 147.964 113.759 146.497 111.438 145.078C111.438 144.418 111.438 143.758 111.438 143.078Z" fill="white"/>
<path d="M125.438 141.078C126.758 141.078 128.077 141.078 129.438 141.078C128.81 144.007 127.851 146.439 126.438 149.078C126.107 146.438 125.778 143.798 125.438 141.078Z" fill="#050505"/>
<path d="M68.4375 66.0781C70.4175 66.0781 72.3975 66.0781 74.4375 66.0781C75.0975 67.3981 75.7575 68.7181 76.4375 70.0781C73.7975 69.4181 71.1575 68.7581 68.4375 68.0781C68.4375 67.4181 68.4375 66.7581 68.4375 66.0781Z" fill="#050505"/>
<path d="M140.438 5.07812C144.352 6.34754 146.228 7.5898 148.438 11.0781C145.182 10.7293 144.419 10.0568 142.188 7.51562C141.61 6.71125 141.033 5.90688 140.438 5.07812Z" fill="#050505"/>
</svg>
